<?xml version="1.0" encoding="UTF-8"?>
<!DOCTYPE svg PUBLIC "-//W3C//DTD SVG 1.1//EN" "http://www.w3.org/Graphics/SVG/1.1/DTD/svg11.dtd">
<!-- Creator: CorelDRAW -->
<svg xmlns="http://www.w3.org/2000/svg" xml:space="preserve" width="31.393mm" height="26.7251mm" version="1.1" style="shape-rendering:geometricPrecision; text-rendering:geometricPrecision; image-rendering:optimizeQuality; fill-rule:evenodd; clip-rule:evenodd"
viewBox="0 0 270.91 230.63"
 xmlns:xlink="http://www.w3.org/1999/xlink"
 xmlns:xodm="http://www.corel.com/coreldraw/odm/2003">
 <defs>
  <style type="text/css">
   <![CDATA[
    .fil0 {fill:#C63437;fill-rule:nonzero}
   ]]>
  </style>
 </defs>
 <g id="Capa_x0020_1">
  <metadata id="CorelCorpID_0Corel-Layer"/>
  <path class="fil0" d="M261.66 64.16c-8.18,-1.7 -12.98,2.1 -14.86,9.53l-20.11 76.27 -139.28 -1.11 -34.45 -122.76c-1.03,-3.72 -3.72,-6.89 -7.42,-8.75l-22.81 -14.46c-7.35,-3.67 -16.59,-4.67 -20.63,2.02 -4.04,6.68 -2.21,12.49 5.13,16.16l23.11 11.56 33.32 124.04 -17.48 12.54c-2.09,1.5 -3.3,3.78 -3.3,6.2l0 19.72c0,4.32 3.81,7.83 8.55,7.89l24.49 0.32c-3.4,2.88 -5.57,6.95 -5.57,11.52 0,8.72 7.77,15.77 17.35,15.77 9.58,0 17.35,-7.06 17.35,-15.77 0,-4.39 -1.98,-8.35 -5.16,-11.21l114.54 1.46c-2.34,2.69 -3.8,6.05 -3.8,9.75 0,8.72 7.77,15.77 17.36,15.77 9.58,0 17.35,-7.06 17.35,-15.77 0,-3.53 -1.32,-6.76 -3.48,-9.39l14.93 0.19c0.04,0 0.08,0 0.12,0 4.73,0 8.6,-3.45 8.67,-7.78 0.07,-4.36 -3.76,-7.94 -8.56,-8l-186.09 -2.38c-11.1,-0.06 -10.79,0.64 -10.77,-4.58 0.01,-3.73 -0.16,-3.09 7.41,-8.97l7.07 -5.07c1.35,0.37 2.76,0.61 4.22,0.62l156.19 1.32c0.05,0 0.1,0 0.15,0 7.07,0 13.21,-4.45 14.8,-10.72l20.27 -80.21c1.87,-7.43 -0.47,-14 -8.64,-15.71z"/>
  <path class="fil0" d="M102.7 63.05c0,-29.83 24.89,-55.41 54.72,-55.41 31.88,0 54,22.37 54,55.35 0,29.82 -24.19,54.01 -54.01,54.01 -29.37,0 -54.7,-23.68 -54.7,-53.96zm47.87 -20.55c0,-0.01 0,-0.03 0,-0.04 0,-3.71 0.3,-6.75 6.77,-6.75 6.6,0 6.72,3.04 6.78,6.79l0 13.71c4.56,0 9.12,0 13.68,0 3.77,0 6.85,-0.23 6.78,6.7 -0.07,6.87 -2.85,6.85 -6.77,6.92l-13.55 0 0 13.66c-0.02,4.32 -0.25,6.8 -6.77,6.8 -6.69,-0 -6.82,-2.78 -6.82,-6.78l0 -13.65 -13.76 0c-3.84,-0.02 -6.84,0.47 -6.84,-6.8 0,-6.52 2.95,-6.87 6.75,-6.87 4.58,0 9.15,0 13.72,0l0 -13.68 0.02 0zm6.82 -20.67c-23.49,0 -40.47,19.05 -40.47,41.16 0,22.11 19.74,39.78 40.47,39.78 20.04,0 40.47,-16.29 40.47,-39.78 0,-22.54 -17.43,-41.16 -40.47,-41.16z"/>
 </g>
</svg>
