<?xml version="1.0" encoding="UTF-8"?>
<!DOCTYPE svg PUBLIC "-//W3C//DTD SVG 1.1//EN" "http://www.w3.org/Graphics/SVG/1.1/DTD/svg11.dtd">
<!-- Creator: CorelDRAW -->
<svg xmlns="http://www.w3.org/2000/svg" xml:space="preserve" width="31.3934mm" height="26.7254mm" version="1.1" style="shape-rendering:geometricPrecision; text-rendering:geometricPrecision; image-rendering:optimizeQuality; fill-rule:evenodd; clip-rule:evenodd"
viewBox="0 0 1228.7 1046"
 xmlns:xlink="http://www.w3.org/1999/xlink"
 xmlns:xodm="http://www.corel.com/coreldraw/odm/2003">
 <defs>
  <style type="text/css">
   <![CDATA[
    .fil0 {fill:#C63437;fill-rule:nonzero}
   ]]>
  </style>
 </defs>
 <g id="Capa_x0020_1">
  <metadata id="CorelCorpID_0Corel-Layer"/>
  <path class="fil0" d="M731.25 937.57c-147.27,147.01 -118.56,147.2 -291.28,-15.8 -174.13,-168.42 -439.97,-359.68 -439.97,-627.46 0,-79.44 31.99,-154.57 90,-208.99 56.38,-51.24 129.5,-81.7 205.69,-82.3 195.1,-1.52 274.53,142.36 298.88,142.39 24.91,0.04 106.88,-145.42 274.13,-145.42 51.91,0 103.22,12.27 149.53,35.73 106.84,53.3 184.12,162.25 184.12,283.66 0,65.13 -17.87,115.97 -51.34,170.99 50.81,56.25 77.69,131.65 77.69,207.49 0,169.23 -137.24,306.48 -306.48,306.48 -69.37,0 -136.76,-23.57 -190.97,-66.79l-0 0.02zm152.19 -355.98c0,-0.07 0,-0.16 0,-0.23 0,-21.08 1.69,-38.28 38.4,-38.28 37.43,0 38.13,17.24 38.5,38.5l0 77.8 77.5 0.01c0.04,-0.01 0.07,-0.01 0.1,-0.01 21.42,0 38.89,-1.31 38.49,38 -0.39,39.02 -16.19,38.86 -38.4,39.3l-76.89 0.01 0 77.5c-0.13,24.51 -1.42,38.6 -38.4,38.59 -37.95,-0.01 -38.7,-15.78 -38.7,-38.5l0 -77.48 -78.09 0c-21.8,-0.13 -38.8,2.7 -38.8,-38.61 0,-37 16.77,-38.99 38.32,-38.99 0.02,0 0.06,0 0.09,0l77.79 0.01 0 -77.6 0.1 0zm209.21 -148.97c18.69,-28.11 33.02,-64.36 33.02,-112.59 0,-141.75 -117.59,-243.19 -256.31,-243.19 -106.27,0 -159.93,57.48 -228.4,130.23 -47.24,48.34 -42.02,47.95 -88.99,3 -82.99,-81.51 -131.4,-130.61 -253.98,-130.61 -126.74,2.71 -221.34,85.57 -221.34,215.63 0,235.6 257.96,419.39 415.94,572.03 121.92,117.59 84.16,118.26 186.54,17.76 -44.61,-54.67 -67.31,-116.14 -67.31,-186.72 0,-169.28 141.21,-314.4 310.49,-314.4 63.56,0 123.1,16.68 170.33,48.85zm-170.5 31.69c-133.29,0 -229.64,108.09 -229.64,233.55 0,125.46 112.01,225.72 229.64,225.72 113.71,0 229.64,-92.43 229.64,-225.72 0,-127.91 -98.92,-233.55 -229.64,-233.55z"/>
 </g>
</svg>
