<?xml version="1.0" encoding="UTF-8"?>
<!DOCTYPE svg PUBLIC "-//W3C//DTD SVG 1.1//EN" "http://www.w3.org/Graphics/SVG/1.1/DTD/svg11.dtd">
<!-- Creator: CorelDRAW -->
<svg xmlns="http://www.w3.org/2000/svg" xml:space="preserve" width="28.0187mm" height="28.0187mm" version="1.1" style="shape-rendering:geometricPrecision; text-rendering:geometricPrecision; image-rendering:optimizeQuality; fill-rule:evenodd; clip-rule:evenodd"
viewBox="0 0 34.13 34.13"
 xmlns:xlink="http://www.w3.org/1999/xlink"
 xmlns:xodm="http://www.corel.com/coreldraw/odm/2003">
 <defs>
  <style type="text/css">
   <![CDATA[
    .fil1 {fill:#FEFEFE;fill-rule:nonzero}
    .fil0 {fill:#212123;fill-rule:nonzero}
   ]]>
  </style>
 </defs>
 <g id="Capa_x0020_1">
  <metadata id="CorelCorpID_0Corel-Layer"/>
  <path class="fil0" d="M-0 25.2l0 -16.27c0,-4.91 4.02,-8.93 8.93,-8.93l16.27 0c4.91,0 8.93,4.02 8.93,8.93l0 16.27c-0,4.91 -4.02,8.93 -8.93,8.93 -5.56,0 -10.72,0 -16.27,0 -4.91,0 -8.93,-4.02 -8.93,-8.93z"/>
  <g id="_2347705100688">
   <path class="fil1" d="M20.86 6.93c0.05,0 0.09,0 0.14,0 0.12,1.43 -0.43,2.5 -1.09,3.27 -0.65,0.77 -1.54,1.51 -2.98,1.4 -0.1,-1.41 0.45,-2.4 1.11,-3.17 0.61,-0.72 1.74,-1.36 2.82,-1.5z"/>
   <path class="fil1" d="M25.22 21.8c0,0.01 0,0.03 0,0.04 -0.4,1.23 -0.98,2.28 -1.69,3.25 -0.64,0.89 -1.43,2.08 -2.84,2.08 -1.22,0 -2.02,-0.78 -3.27,-0.8 -1.32,-0.02 -2.04,0.65 -3.25,0.82 -0.14,0 -0.28,0 -0.41,0 -0.89,-0.13 -1.6,-0.83 -2.12,-1.46 -1.53,-1.87 -2.72,-4.28 -2.94,-7.36 0,-0.3 0,-0.6 0,-0.91 0.09,-2.21 1.17,-4 2.59,-4.87 0.75,-0.46 1.79,-0.86 2.94,-0.68 0.49,0.08 1,0.25 1.44,0.41 0.42,0.16 0.94,0.45 1.44,0.43 0.34,-0.01 0.67,-0.19 1.01,-0.31 0.99,-0.36 1.97,-0.77 3.25,-0.58 1.54,0.23 2.64,0.92 3.31,1.98 -1.3,0.83 -2.34,2.08 -2.16,4.22 0.16,1.94 1.28,3.08 2.69,3.74z"/>
  </g>
 </g>
</svg>
