<?xml version="1.0" encoding="UTF-8"?>
<!DOCTYPE svg PUBLIC "-//W3C//DTD SVG 1.1//EN" "http://www.w3.org/Graphics/SVG/1.1/DTD/svg11.dtd">
<!-- Creator: CorelDRAW -->
<svg xmlns="http://www.w3.org/2000/svg" xml:space="preserve" width="27.3213mm" height="27.2739mm" version="1.1" style="shape-rendering:geometricPrecision; text-rendering:geometricPrecision; image-rendering:optimizeQuality; fill-rule:evenodd; clip-rule:evenodd"
viewBox="0 0 90.16 90.01"
 xmlns:xlink="http://www.w3.org/1999/xlink"
 xmlns:xodm="http://www.corel.com/coreldraw/odm/2003">
 <defs>
  <style type="text/css">
   <![CDATA[
    .fil0 {fill:#1D1D1B}
   ]]>
  </style>
 </defs>
 <g id="Capa_x0020_1">
  <metadata id="CorelCorpID_0Corel-Layer"/>
  <g id="_2401679091056">
   <path class="fil0" d="M13.99 76.4c-0.24,-0.96 -0.07,-27.51 -0.07,-29.42 -0,-11.24 -0.01,-18.46 0.02,-30.13 0.35,0.65 0.74,1.78 1.09,2.46 0.36,0.7 1.11,0.97 2.28,0.45 1.08,-0.47 1.26,-1.29 0.98,-2 -2.25,-5.55 -4.2,-10.42 -6.52,-16.05 -0.87,-2.11 -3.16,-2.24 -4.15,-0.03 -1.83,4.06 -5.82,12.4 -7.4,15.96 -0.41,0.92 -0.33,1.93 1.02,2.5 1.22,0.52 1.86,0.15 2.32,-0.68 0.38,-0.69 0.56,-1.19 1.12,-2.4 -0.01,10.71 0.02,18.63 0.04,29.43l-0 29.9c-0,9.56 -0.8,8.93 4.79,8.92 10.66,-0.01 21.31,-0 31.97,-0 10.95,-0 19.84,-0 32.82,0.03 -0.08,0.02 -2.23,0.89 -2.46,0.99 -0.98,0.43 -1.16,1.3 -0.59,2.37 0.66,1.22 1.55,1.48 2.29,1.17 2.95,-1.23 8.9,-3.8 12.39,-5.25 4.92,-2.04 5.15,-5.14 -0.11,-7.58 -5.05,-2.34 -6.54,-3 -12.33,-5.52 -0.99,-0.43 -1.68,0.11 -2.23,1.24 -0.57,1.17 -0.62,1.94 0.56,2.66 0.31,0.19 1.94,0.83 2.37,1.01l-32.75 -0.02 -27.43 -0.02z"/>
   <path class="fil0" d="M67.75 17.23c-8.19,8.03 -11.89,11.92 -20.03,20.02 -8.69,8.74 -10.46,10.49 -19.11,19.16 -4.07,4.08 0.33,9.88 4.75,5.5 9.17,-9.08 10.29,-10.28 19.29,-19.33l19.64 -19.59c4.95,-4.58 -0.11,-10.09 -4.54,-5.75z"/>
   <path class="fil0" d="M87.83 11.9c-1.86,0.52 -1.4,2.51 -1.39,5.01 0,0.86 -0.52,4.72 2.4,3.85 1.71,-0.51 1.2,-3.29 1.2,-5.06 0,-0.8 0.13,-2.21 -0.19,-2.84 -0.28,-0.57 -1.1,-1.21 -2.02,-0.95z"/>
   <path class="fil0" d="M55.95 0.19c-1.86,0.66 -1.59,3.21 0.42,3.44 0.79,0.09 5.75,0.1 6.26,-0.1 1.63,-0.64 1.49,-3.19 -0.48,-3.44 -0.82,-0.11 -5.65,-0.1 -6.2,0.1z"/>
   <path class="fil0" d="M70.39 0.24c-1.89,0.8 -1.4,3.28 0.62,3.42 0.92,0.06 5.62,0.11 6.21,-0.15 1.61,-0.71 1.33,-3.25 -0.69,-3.42 -1,-0.08 -5.46,-0.13 -6.14,0.16z"/>
   <path class="fil0" d="M87.83 26.41c-1.92,0.52 -1.39,2.81 -1.39,4.86 -0,1.05 -0.55,4.73 2.28,4.02 1.79,-0.45 1.31,-3.05 1.31,-4.96 0,-0.76 0.11,-2.35 -0.18,-2.98 -0.28,-0.6 -1.09,-1.19 -2.02,-0.94z"/>
   <path class="fil0" d="M26.84 0.21c-0.71,0.32 -1.33,0.88 -1.11,2.04 0.16,0.86 0.88,1.34 1.77,1.4 0.87,0.06 5.64,0.08 6.21,-0.15 1.48,-0.61 1.41,-3.21 -0.7,-3.42 -0.84,-0.08 -5.67,-0.09 -6.17,0.13z"/>
   <path class="fil0" d="M89.95 48.6c0.14,-0.51 0.15,-5.41 0.06,-6.13 -0.26,-2.08 -2.97,-2.07 -3.47,-0.39 -0.15,0.52 -0.16,5.56 -0.07,6.24 0.27,2 3.01,1.99 3.48,0.27z"/>
   <path class="fil0" d="M41.37 0.23c-1.96,0.8 -1.3,3.29 0.63,3.42 0.96,0.06 5.61,0.1 6.21,-0.16 1.53,-0.67 1.38,-3.21 -0.69,-3.41 -0.95,-0.09 -5.51,-0.11 -6.15,0.15z"/>
   <path class="fil0" d="M89.99 62.97c0.11,-0.47 0.09,-5.67 -0.02,-6.21 -0.35,-1.73 -3.03,-1.84 -3.47,-0.07 -0.12,0.5 -0.11,5.85 0.01,6.38 0.42,1.77 3.06,1.8 3.48,-0.1z"/>
   <path class="fil0" d="M86.49 74.79c0.41,1.92 4.55,2.69 3.5,-3.42 -0.25,-1.44 -2.05,-2.01 -3.07,-0.96 -0.57,0.59 -0.67,3.28 -0.43,4.38z"/>
   <path class="fil0" d="M15.06 0.24c-1.69,0.72 -1.2,2.5 -0.42,3.06 0.57,0.41 3.72,0.55 4.48,0.23 1.2,-0.5 1.53,-2.32 0.32,-3.15 -0.66,-0.45 -3.5,-0.52 -4.37,-0.14z"/>
   <path class="fil0" d="M86.4 3.67c0,0 0,0 0,0z"/>
   <path class="fil0" d="M84.33 0.02c-2.05,0.02 -1.82,3.63 0.17,3.68 0.5,0.01 0.44,0.01 1.91,-0.01 0,0 -0,1.17 -0,1.72 0,2.45 3.66,2.41 3.66,0.06 0,-0.6 0,-1.73 0,-1.83 -0,-1.51 0.28,-3.62 -1.74,-3.62 -1.01,-0 -3.24,-0 -4,0z"/>
   <path class="fil0" d="M29.62 71.97c3.04,-0.02 2.81,-6.28 -0.17,-6.32 -0.5,-0.01 -3.41,-0.01 -4.88,0.01 0,0 0,-4.47 0,-5.02 0,-3.44 -6.3,-3.4 -6.3,-0.06 0,0.6 0,8.01 0,8.1 0,2.83 0.39,3.29 2.73,3.29 1.01,0 7.87,0 8.62,-0z"/>
   <path class="fil0" d="M71.59 7.17c-3.04,0.02 -2.81,6.28 0.17,6.32 0.5,0.01 3.41,0.01 4.88,-0.01 0,0 0,4.47 0,5.02 0,3.44 6.3,3.4 6.3,0.06 0,-0.6 -0,-8.01 -0,-8.1 -0,-2.83 -0.39,-3.29 -2.73,-3.29 -1.01,-0 -7.87,-0 -8.62,0z"/>
  </g>
 </g>
</svg>
