<?xml version="1.0"?>
<svg width="640" height="480" xmlns="http://www.w3.org/2000/svg" xmlns:svg="http://www.w3.org/2000/svg" xmlns:xlink="http://www.w3.org/1999/xlink">
 <!-- Created with SVG-edit - https://github.com/SVG-Edit/svgedit-->
 <defs>
  <symbol height="135" id="svg_24" version="1.1" width="110" xmlns="http://www.w3.org/2000/svg" xmlns:svg="http://www.w3.org/2000/svg">
   <g class="layer">
    <title>Layer 1</title>
    <g id="svg_11">
     <path d="m95.61,61.42l-14.59,-8.1c-0.62,-0.35 -1.31,-0.53 -2.02,-0.53l0,-25.57c0,-1.35 -0.66,-2.63 -1.78,-3.41c-1.11,-0.78 -2.53,-0.97 -3.81,-0.5l-41.66,15.15c-1.65,0.6 -2.75,2.17 -2.75,3.92l0,13.12l-14.58,0c-2.3,0 -4.17,1.87 -4.17,4.17l0,47.91c0,2.3 1.87,4.17 4.17,4.17l79.16,0c2.3,0 4.17,-1.87 4.17,-4.17l0,-42.52c0,-1.51 -0.82,-2.91 -2.14,-3.64zm-81.19,-1.75l14.58,0l0,47.91l-14.58,0l0,-47.91zm18.75,0l0,-17.29l41.66,-15.16l0,80.36l-6.25,0l0,-16.66c0,-0.56 -0.22,-1.08 -0.61,-1.47c-0.39,-0.4 -0.92,-0.62 -1.47,-0.62l-25,0c-0.55,0 -1.08,0.22 -1.47,0.62c-0.39,0.39 -0.61,0.91 -0.61,1.47l0,16.67l-6.25,-0.01l0,-47.91zm10.42,33.33l8.33,0l0,14.58l-8.34,0l0.01,-14.58zm12.5,14.58l-0.01,-14.58l8.33,0l0,14.58l-8.32,0zm22.91,0l0,-50.62l14.58,8.1l0.01,42.52l-14.59,0z" id="svg_23"/>
     <path d="m21.71,70.08c-0.55,0 -1.08,0.22 -1.48,0.62c-0.39,0.39 -0.61,0.91 -0.61,1.47l0,22.91c0,1.15 0.94,2.09 2.09,2.09c1.15,0 2.08,-0.94 2.08,-2.09l0,-22.91c0,-0.56 -0.22,-1.08 -0.61,-1.47c-0.39,-0.4 -0.92,-0.62 -1.47,-0.62z" id="svg_22"/>
     <path d="m86.29,74.25c-0.55,0 -1.08,0.22 -1.47,0.61c-0.39,0.39 -0.61,0.92 -0.61,1.47l0,18.75c0,1.15 0.93,2.09 2.08,2.09c1.15,0 2.08,-0.94 2.08,-2.09l0,-18.75c0,-0.55 -0.21,-1.08 -0.6,-1.47s-0.93,-0.61 -1.48,-0.61z" id="svg_21"/>
     <path d="m64.42,63.83l2.08,0l0,2.09c0,1.15 0.93,2.08 2.08,2.08c1.15,0 2.09,-0.93 2.09,-2.08l0,-4.17c0,-0.55 -0.22,-1.08 -0.62,-1.47c-0.39,-0.39 -0.91,-0.61 -1.47,-0.61l-4.16,0c-1.15,0 -2.09,0.93 -2.09,2.08s0.94,2.08 2.09,2.08z" id="svg_20"/>
     <path d="m51.92,63.83l2.08,0l0,2.09c0,1.15 0.93,2.08 2.08,2.08c1.15,0 2.09,-0.93 2.09,-2.08l0,-4.17c0,-0.55 -0.22,-1.08 -0.62,-1.47c-0.39,-0.39 -0.91,-0.61 -1.47,-0.61l-4.16,0c-1.15,0 -2.09,0.93 -2.09,2.08s0.94,2.08 2.09,2.08z" id="svg_19"/>
     <path d="m64.42,49.25l2.08,0l0,2.08c0,1.15 0.93,2.09 2.08,2.09c1.15,0 2.09,-0.94 2.09,-2.09l0,-4.16c0,-0.56 -0.22,-1.08 -0.62,-1.47c-0.39,-0.4 -0.91,-0.62 -1.47,-0.62l-4.16,0c-1.15,0 -2.09,0.94 -2.09,2.09c0,1.15 0.94,2.08 2.09,2.08z" id="svg_18"/>
     <path d="m51.92,49.25l2.08,0l0,2.08c0,1.15 0.93,2.09 2.08,2.09c1.15,0 2.09,-0.94 2.09,-2.09l0,-4.16c0,-0.56 -0.22,-1.08 -0.62,-1.47c-0.39,-0.4 -0.91,-0.62 -1.47,-0.62l-4.16,0c-1.15,0 -2.09,0.94 -2.09,2.09c0,1.15 0.94,2.08 2.09,2.08z" id="svg_17"/>
     <path d="m39.42,49.25l2.08,0l0,2.08c0,1.15 0.93,2.09 2.08,2.09c1.15,0 2.09,-0.94 2.09,-2.09l0,-4.16c0,-0.56 -0.22,-1.08 -0.62,-1.47c-0.39,-0.4 -0.91,-0.62 -1.47,-0.62l-4.16,0c-1.15,0 -2.09,0.94 -2.09,2.09c0,1.15 0.94,2.08 2.09,2.08z" id="svg_16"/>
     <path d="m39.42,63.83l2.08,0l0,2.09c0,1.15 0.93,2.08 2.08,2.08c1.15,0 2.09,-0.93 2.09,-2.08l0,-4.17c0,-0.55 -0.22,-1.08 -0.62,-1.47c-0.39,-0.39 -0.91,-0.61 -1.47,-0.61l-4.16,0c-1.15,0 -2.09,0.93 -2.09,2.08s0.94,2.08 2.09,2.08z" id="svg_15"/>
     <path d="m64.42,78.42l2.08,0l0,2.08c0,1.15 0.93,2.08 2.08,2.08c1.15,0 2.09,-0.93 2.09,-2.08l0,-4.17c0,-0.55 -0.22,-1.08 -0.62,-1.47c-0.39,-0.39 -0.91,-0.61 -1.47,-0.61l-4.16,0c-1.15,0 -2.09,0.93 -2.09,2.08c0,1.15 0.94,2.09 2.09,2.09z" id="svg_14"/>
     <path d="m51.92,78.42l2.08,0l0,2.08c0,1.15 0.93,2.08 2.08,2.08c1.15,0 2.09,-0.93 2.09,-2.08l0,-4.17c0,-0.55 -0.22,-1.08 -0.62,-1.47c-0.39,-0.39 -0.91,-0.61 -1.47,-0.61l-4.16,0c-1.15,0 -2.09,0.93 -2.09,2.08c0,1.15 0.94,2.09 2.09,2.09z" id="svg_13"/>
     <path d="m39.42,78.42l2.08,0l0,2.08c0,1.15 0.93,2.08 2.08,2.08c1.15,0 2.09,-0.93 2.09,-2.08l0,-4.17c0,-0.55 -0.22,-1.08 -0.62,-1.47c-0.39,-0.39 -0.91,-0.61 -1.47,-0.61l-4.16,0c-1.15,0 -2.09,0.93 -2.09,2.08c0,1.15 0.94,2.09 2.09,2.09z" id="svg_12"/>
    </g>
   </g>
  </symbol>
 </defs>
 <g class="layer">
  <title>Layer 1</title>
  <use id="svg_25" transform="matrix(5.36623 0 0 5.36623 28.205 -121.336)" xlink:href="#svg_24"/>
 </g>
</svg>