<?xml version="1.0" encoding="UTF-8"?>
<!DOCTYPE svg PUBLIC "-//W3C//DTD SVG 1.1//EN" "http://www.w3.org/Graphics/SVG/1.1/DTD/svg11.dtd">
<!-- Creator: CorelDRAW -->
<svg xmlns="http://www.w3.org/2000/svg" xml:space="preserve" width="26.607mm" height="27.2111mm" version="1.1" style="shape-rendering:geometricPrecision; text-rendering:geometricPrecision; image-rendering:optimizeQuality; fill-rule:evenodd; clip-rule:evenodd"
viewBox="0 0 96.22 98.41"
 xmlns:xlink="http://www.w3.org/1999/xlink"
 xmlns:xodm="http://www.corel.com/coreldraw/odm/2003">
 <defs>
  <style type="text/css">
   <![CDATA[
    .fil0 {fill:black;fill-rule:nonzero}
   ]]>
  </style>
 </defs>
 <g id="Capa_x0020_1">
  <metadata id="CorelCorpID_0Corel-Layer"/>
  <g id="_2485585997376">
   <path class="fil0" d="M16.11 28.91l-7.83 5c-0.69,0.45 -1.3,0.96 -1.8,1.55l9.63 7.92 0 -14.46zm32 6.17c1.17,0 2.22,-0.47 2.98,-1.24 0.76,-0.76 1.24,-1.82 1.24,-2.98 0,-1.17 -0.47,-2.22 -1.24,-2.98 -0.76,-0.76 -1.82,-1.24 -2.98,-1.24 -1.16,0 -2.22,0.47 -2.98,1.24 -0.76,0.76 -1.24,1.82 -1.24,2.98 0,1.17 0.47,2.22 1.24,2.98 0.76,0.76 1.82,1.24 2.98,1.24zm6.24 2.02c-1.6,1.6 -3.8,2.59 -6.24,2.59 -2.44,0 -4.64,-0.99 -6.24,-2.59 -1.6,-1.6 -2.58,-3.8 -2.58,-6.24 0,-2.44 0.99,-4.64 2.58,-6.24 1.6,-1.6 3.8,-2.58 6.24,-2.58 1.82,0 3.5,0.55 4.91,1.49 0.42,-0.41 0.99,-0.66 1.62,-0.66 1.27,0 2.31,1.03 2.31,2.31l0 5.7c0,0.76 0.32,1.46 0.82,1.97l-0.01 0.01c0.51,0.5 1.21,0.82 1.98,0.82 0.76,0 1.46,-0.31 1.97,-0.82 0.51,-0.51 0.82,-1.2 0.82,-1.97 0,-3.98 -1.62,-7.59 -4.22,-10.2 -2.61,-2.61 -6.21,-4.22 -10.2,-4.22 -3.98,0 -7.59,1.62 -10.2,4.22 -2.61,2.61 -4.22,6.21 -4.22,10.2 0,3.98 1.62,7.59 4.22,10.2 2.61,2.61 6.21,4.22 10.2,4.22 3.98,0 7.59,-1.61 10.2,-4.22 0.85,-0.85 1.58,-1.8 2.2,-2.83 -0.25,0.03 -0.51,0.04 -0.77,0.04 -1.83,0 -3.51,-0.67 -4.81,-1.79 -0.18,0.22 -0.37,0.43 -0.57,0.63l0 -0.01zm7.21 7.21c-3.44,3.44 -8.2,5.57 -13.46,5.57 -5.25,0 -10.01,-2.13 -13.46,-5.57 -3.44,-3.44 -5.58,-8.2 -5.58,-13.46 0,-5.25 2.13,-10.01 5.58,-13.46 3.44,-3.44 8.2,-5.57 13.46,-5.57 5.25,0 10.01,2.13 13.46,5.57 3.44,3.44 5.58,8.2 5.58,13.46 0,5.25 -2.13,10.01 -5.58,13.46zm-40.85 2.84l18.75 15.42 0.66 -0.54c2.35,-1.93 5.16,-2.89 7.98,-2.89 2.82,0 5.64,0.96 7.98,2.89l0.66 0.54 18.75 -15.42 0 -35.13c0,-2.04 -0.84,-3.89 -2.18,-5.24 -1.35,-1.35 -3.2,-2.18 -5.24,-2.18l-39.94 0c-2.04,0 -3.9,0.84 -5.24,2.18 -1.35,1.35 -2.18,3.2 -2.18,5.24l0 35.13 0 0zm59.39 -3.79l9.63 -7.92c-0.51,-0.58 -1.11,-1.1 -1.8,-1.55l-7.83 -5 0 14.46zm0 -19.91l10.29 6.58c1.85,1.18 3.31,2.73 4.3,4.54 0.05,0.09 0.09,0.17 0.14,0.25l0 0.01 0.03 0.05c0.89,1.73 1.35,3.68 1.35,5.74l0 45.2c0,3.46 -1.41,6.61 -3.69,8.89 -2.28,2.28 -5.42,3.69 -8.89,3.69l-71.06 0c-3.46,0 -6.61,-1.41 -8.89,-3.69 -2.28,-2.28 -3.69,-5.42 -3.69,-8.89l0 -45.2c0,-2.06 0.47,-4 1.35,-5.74l0.03 -0.05 0 -0.01c0.05,-0.09 0.09,-0.17 0.14,-0.25 0.99,-1.81 2.44,-3.36 4.3,-4.54l10.29 -6.58 0 -11.42c0,-3.31 1.35,-6.32 3.53,-8.5 2.18,-2.18 5.19,-3.53 8.5,-3.53l39.94 0c3.31,0 6.32,1.35 8.5,3.53 2.18,2.18 3.53,5.19 3.53,8.5l0 11.42 -0 0zm-63 26.68c-0.11,-0.07 -0.21,-0.16 -0.31,-0.25l-12.16 -10c-0.02,0.24 -0.03,0.49 -0.03,0.73l0 45.2c0,1.6 0.47,3.09 1.29,4.34l29.94 -24.61 -18.74 -15.41 0 -0zm62.3 -0.25c-0.09,0.09 -0.2,0.18 -0.31,0.25l-18.74 15.41 29.94 24.61c0.82,-1.25 1.29,-2.74 1.29,-4.34l0 -45.2c0,-0.25 -0.01,-0.49 -0.03,-0.73l-12.16 10 0 0zm-38.45 17.41l-0.07 0.05 -31.4 25.81c0.95,0.4 1.99,0.62 3.08,0.62l71.06 0c1.09,0 2.14,-0.22 3.08,-0.62l-31.4 -25.81 -0.07 -0.05 -2.08 -1.71c-1.49,-1.22 -3.27,-1.83 -5.06,-1.83 -1.79,0 -3.58,0.61 -5.06,1.83l-2.08 1.71z"/>
  </g>
 </g>
</svg>
