<?xml version="1.0" encoding="UTF-8"?>
<!DOCTYPE svg PUBLIC "-//W3C//DTD SVG 1.1//EN" "http://www.w3.org/Graphics/SVG/1.1/DTD/svg11.dtd">
<!-- Creator: CorelDRAW -->
<svg xmlns="http://www.w3.org/2000/svg" xml:space="preserve" width="27.1254mm" height="27.1248mm" version="1.1" style="shape-rendering:geometricPrecision; text-rendering:geometricPrecision; image-rendering:optimizeQuality; fill-rule:evenodd; clip-rule:evenodd"
viewBox="0 0 29.56 29.56"
 xmlns:xlink="http://www.w3.org/1999/xlink"
 xmlns:xodm="http://www.corel.com/coreldraw/odm/2003">
 <defs>
  <style type="text/css">
   <![CDATA[
    .fil1 {fill:none}
    .fil0 {fill:black;fill-rule:nonzero}
   ]]>
  </style>
   <clipPath id="id0">
    <path d="M-0 29.56l29.56 0 0 -29.56 -29.56 0 0 29.56z"/>
   </clipPath>
 </defs>
 <g id="Capa_x0020_1">
  <metadata id="CorelCorpID_0Corel-Layer"/>
  <g>
  </g>
  <g style="clip-path:url(#id0)">
   <g id="_2624229585760">
    <path class="fil0" d="M2.96 15.52l4.44 0c0.15,0 0.29,0.04 0.41,0.12l4.44 2.96c0.2,0.14 0.33,0.37 0.33,0.61 0,0.07 -0.01,0.15 -0.03,0.22 -0.09,0.31 -0.38,0.52 -0.71,0.52 0,0 -0,0 -0,0l-4.44 0c-0.15,-0 -0.29,-0.04 -0.41,-0.13l-4.44 -2.96c-0.2,-0.14 -0.33,-0.37 -0.33,-0.61 0,-0.07 0.01,-0.15 0.03,-0.22 0.09,-0.31 0.38,-0.52 0.71,-0.52 0,0 0,0 0,0l-0 0zm4.21 1.48l-1.77 0 2.22 1.48 1.77 0 -2.22 -1.48z"/>
    <path class="fil0" d="M20.7 11.09c0.15,-0 0.29,0.04 0.41,0.12l4.44 2.96c0.21,0.14 0.33,0.37 0.33,0.62 0,0.01 -0,0.02 -0,0.04 -0.01,0.26 -0.16,0.49 -0.39,0.62l-2.77 1.48c-0.11,0.06 -0.22,0.08 -0.34,0.08 -0.14,0 -0.28,-0.04 -0.39,-0.11l-4.62 -2.96c-0.21,-0.14 -0.34,-0.37 -0.34,-0.62 0,-0.01 0,-0.03 0,-0.04 0.01,-0.27 0.17,-0.5 0.41,-0.62l2.96 -1.48c0.1,-0.05 0.21,-0.08 0.32,-0.08l-0 0zm3 3.62l-3.05 -2.03 -1.41 0.71 3.16 2.02 1.3 -0.7z"/>
    <path class="fil0" d="M22.17 15.42c0,0 0,0 0,0 0.12,0 0.24,0.03 0.35,0.09l2.96 1.58c0.24,0.13 0.39,0.38 0.39,0.65 0,0.03 -0,0.05 -0,0.08 -0.03,0.3 -0.24,0.55 -0.53,0.63l-10.35 2.96c-0.07,0.02 -0.13,0.03 -0.2,0.03 -0.11,0 -0.23,-0.03 -0.33,-0.08l-2.96 -1.48c-0.25,-0.13 -0.41,-0.38 -0.41,-0.66 0,-0.02 0,-0.04 0,-0.06 0.03,-0.3 0.24,-0.56 0.53,-0.64l10.35 -3.06c0.07,-0.02 0.14,-0.03 0.21,-0.03 0,0 0,0 0,0zm1 2.11l-1.08 -0.58 -8.26 2.44 1.02 0.51 8.32 -2.38z"/>
    <path class="fil0" d="M16.26 9.61c0.28,0 0.54,0.16 0.66,0.41l1.48 2.96c0.05,0.1 0.08,0.22 0.08,0.33 0,0.1 -0.02,0.2 -0.06,0.3 -0.09,0.2 -0.26,0.35 -0.47,0.41l-10.35 2.96c-0.07,0.02 -0.13,0.03 -0.2,0.03 -0.28,0 -0.54,-0.16 -0.66,-0.41l-1.48 -2.96c-0.05,-0.1 -0.08,-0.22 -0.08,-0.33 0,-0.1 0.02,-0.2 0.06,-0.3 0.09,-0.2 0.26,-0.35 0.47,-0.41l10.35 -2.96c0.06,-0.02 0.13,-0.03 0.2,-0.03 0,0 0,0 0,0zm0.42 3.23l-0.81 -1.61 -8.9 2.54 0.81 1.61 8.9 -2.54z"/>
    <polygon class="fil0" points="18.48,17.74 17,17.74 17,14.28 7.59,16.97 7.19,15.55 18.48,12.32 "/>
    <path class="fil0" d="M11.83 19.03c-0.2,-0 -0.37,-0.17 -0.37,-0.37 0,-0.05 0.01,-0.1 0.03,-0.15 0.04,-0.08 0.14,-0.32 0.27,-0.66 0.05,-0.14 0.19,-0.24 0.35,-0.24 0.04,0 0.09,0.01 0.13,0.02 0.14,0.05 0.24,0.19 0.24,0.34 0,0.04 -0.01,0.09 -0.02,0.13 -0.13,0.36 -0.24,0.6 -0.28,0.69 -0.06,0.14 -0.19,0.22 -0.34,0.22 -0,0 -0,0 -0,0l-0 0zm0.75 -2.08c-0.04,-0 -0.07,-0.01 -0.11,-0.02 -0.16,-0.05 -0.26,-0.19 -0.26,-0.35 0,-0.04 0.01,-0.07 0.02,-0.11 0.07,-0.24 0.14,-0.47 0.2,-0.7 0.04,-0.16 0.19,-0.28 0.36,-0.28 0.03,0 0.06,0 0.09,0.01 0.16,0.04 0.28,0.19 0.28,0.36 0,0.03 -0,0.06 -0.01,0.09 -0.06,0.24 -0.13,0.48 -0.2,0.72 -0.05,0.16 -0.19,0.26 -0.35,0.26 0,0 -0,0 -0,0l-0 0zm0.51 -2.16c-0.01,0 -0.02,0 -0.03,0 -0.01,0 -0.02,-0 -0.03,-0 -0.18,-0.03 -0.31,-0.18 -0.31,-0.36 0,-0.02 0,-0.04 0.01,-0.06 0.04,-0.24 0.07,-0.48 0.1,-0.71 0.02,-0.19 0.18,-0.33 0.37,-0.33 0.01,0 0.02,0 0.04,0 0.19,0.02 0.33,0.18 0.33,0.37 0,0.01 -0,0.03 -0,0.04 -0.03,0.24 -0.06,0.5 -0.1,0.75 -0.03,0.17 -0.19,0.3 -0.36,0.3 -0,0 -0,0 -0,0l0 0.01zm0.14 -2.21c-0.19,-0 -0.35,-0.15 -0.37,-0.35 -0.01,-0.23 -0.04,-0.46 -0.09,-0.69 -0,-0.02 -0.01,-0.05 -0.01,-0.07 0,-0.18 0.13,-0.33 0.3,-0.36 0.02,-0 0.05,-0.01 0.07,-0.01 0.18,0 0.33,0.13 0.36,0.3 0.05,0.26 0.08,0.52 0.1,0.78 0,0.01 0,0.02 0,0.02 0,0.19 -0.15,0.36 -0.35,0.37l-0.03 -0zm-0.61 -2.11c0,-0 0,-0 0,-0 -0.13,0 -0.24,-0.06 -0.31,-0.17 -0.12,-0.18 -0.26,-0.35 -0.41,-0.49 -0.08,-0.07 -0.12,-0.17 -0.12,-0.27 0,-0.09 0.04,-0.18 0.1,-0.25 0.07,-0.07 0.17,-0.12 0.27,-0.12 0.09,0 0.18,0.04 0.25,0.1 0.2,0.19 0.38,0.4 0.53,0.64 0.04,0.06 0.06,0.13 0.06,0.2 0,0.13 -0.06,0.24 -0.17,0.31 -0.06,0.04 -0.13,0.06 -0.2,0.06 0,0 0,0 -0,0l-0 0zm-6.88 -1.01c-0.19,-0 -0.36,-0.15 -0.37,-0.35 -0,-0.01 -0,-0.01 -0,-0.02 0,-0.2 0.15,-0.36 0.35,-0.37 0.23,-0.01 0.46,-0.04 0.71,-0.07 0.02,-0 0.03,-0 0.05,-0 0.18,0 0.34,0.14 0.37,0.32 0,0.02 0,0.03 0,0.05 0,0.19 -0.14,0.34 -0.32,0.37 -0.26,0.03 -0.52,0.06 -0.76,0.07l-0.02 -0zm-1.48 -0.06c-0.01,0 -0.02,0 -0.03,0 -0.01,0 -0.02,-0 -0.03,-0 -0.27,-0.04 -0.53,-0.11 -0.78,-0.21 -0.14,-0.05 -0.24,-0.19 -0.24,-0.35 0,-0.04 0.01,-0.09 0.02,-0.13 0.05,-0.14 0.19,-0.24 0.35,-0.24 0.04,0 0.09,0.01 0.13,0.02 0.21,0.08 0.43,0.13 0.65,0.17 0.17,0.03 0.3,0.19 0.3,0.36 0,0.02 -0,0.04 -0.01,0.06 -0.03,0.17 -0.18,0.3 -0.35,0.3l-0.01 -0zm6.6 -0.2c0,0 0,0 0,0 -0.04,0 -0.07,-0.01 -0.1,-0.01 -0.22,-0.06 -0.44,-0.11 -0.67,-0.13 -0.18,-0.02 -0.32,-0.18 -0.32,-0.37 0,-0.02 0,-0.03 0,-0.05 0.02,-0.19 0.18,-0.33 0.37,-0.33 0.01,0 0.03,0 0.04,0 0.26,0.03 0.53,0.08 0.78,0.16 0.16,0.05 0.27,0.19 0.27,0.35 0,0.04 -0.01,0.07 -0.02,0.1 -0.05,0.16 -0.19,0.26 -0.35,0.27l-0.01 0zm-2.93 -0.06c-0.18,-0 -0.33,-0.13 -0.36,-0.31 -0,-0.02 -0,-0.04 -0,-0.06 0,-0.18 0.13,-0.34 0.31,-0.36 0.26,-0.04 0.52,-0.07 0.76,-0.1 0.01,-0 0.02,-0 0.03,-0 0.19,0 0.35,0.15 0.37,0.34 0,0.01 0,0.02 0,0.03 0,0.19 -0.15,0.35 -0.34,0.37 -0.23,0.02 -0.46,0.05 -0.71,0.09 -0.02,0 -0.04,0.01 -0.05,0.01l-0.01 -0zm-5.52 -0.82c0,-0 0,-0 0,-0 -0.13,0 -0.25,-0.07 -0.32,-0.18 -0.15,-0.25 -0.25,-0.54 -0.3,-0.83 -0,-0.02 -0,-0.04 -0,-0.06 0,-0.18 0.13,-0.34 0.31,-0.36 0.02,-0 0.04,-0 0.06,-0 0.18,0 0.34,0.13 0.36,0.31 0.03,0.2 0.1,0.38 0.2,0.55 0.03,0.06 0.05,0.12 0.05,0.19 0,0.13 -0.07,0.25 -0.18,0.32 -0.05,0.04 -0.12,0.06 -0.19,0.06l-0.01 -0zm18.08 -0.5c-0.09,0 -0.18,0 -0.27,0 -0.2,-0.01 -0.35,-0.17 -0.35,-0.37 0,-0.01 0,-0.01 0,-0.02 0.01,-0.2 0.17,-0.35 0.37,-0.35 0.01,0 0.01,0 0.02,0 0.08,0 0.16,0.01 0.24,0.01 0.15,0 0.3,-0.01 0.44,-0.02 0.01,-0 0.03,-0 0.04,-0 0.19,0 0.35,0.14 0.37,0.33 0,0.01 0,0.03 0,0.04 0,0.19 -0.14,0.35 -0.33,0.37 -0.15,0.01 -0.3,0.02 -0.45,0.02 -0.02,0 -0.04,-0 -0.06,-0l-0.01 -0zm-1.71 -0.24c-0.03,-0 -0.06,-0 -0.09,-0.01 -0.23,-0.06 -0.48,-0.13 -0.73,-0.21 -0.15,-0.05 -0.26,-0.19 -0.26,-0.35 0,-0.04 0.01,-0.08 0.02,-0.11 0.05,-0.15 0.19,-0.26 0.35,-0.26 0.04,0 0.08,0.01 0.11,0.02 0.24,0.08 0.47,0.15 0.69,0.2 0.16,0.04 0.28,0.19 0.28,0.36 0,0.03 -0,0.06 -0.01,0.09 -0.04,0.16 -0.18,0.28 -0.34,0.29l-0.01 -0zm3.6 -0.22c-0.13,-0 -0.26,-0.07 -0.32,-0.19 -0.03,-0.05 -0.04,-0.12 -0.04,-0.18 0,-0.14 0.07,-0.26 0.19,-0.32 0.2,-0.11 0.38,-0.24 0.56,-0.38 0.07,-0.05 0.15,-0.08 0.23,-0.08 0.11,0 0.22,0.05 0.29,0.14 0.05,0.07 0.08,0.15 0.08,0.23 0,0.11 -0.05,0.22 -0.14,0.29 -0.21,0.17 -0.43,0.32 -0.67,0.45 -0.05,0.03 -0.11,0.05 -0.17,0.05l-0.01 -0zm-5.69 -0.5c-0,-0 -0,-0 -0,-0 -0.05,0 -0.09,-0.01 -0.14,-0.03 -0.22,-0.09 -0.44,-0.19 -0.69,-0.3 -0.14,-0.06 -0.22,-0.19 -0.22,-0.34 0,-0.05 0.01,-0.1 0.03,-0.15 0.06,-0.14 0.19,-0.22 0.34,-0.22 0.05,0 0.1,0.01 0.15,0.03 0.24,0.1 0.46,0.2 0.67,0.28 0.14,0.06 0.23,0.19 0.23,0.34 0,0.05 -0.01,0.1 -0.03,0.14 -0.05,0.14 -0.19,0.24 -0.34,0.24l-0.01 -0zm-14.3 -0.67c-0,-0 -0,-0 -0,-0 -0.05,0 -0.1,-0.01 -0.14,-0.03 -0.14,-0.06 -0.23,-0.19 -0.23,-0.34 0,-0.05 0.01,-0.1 0.03,-0.14 0.1,-0.25 0.23,-0.49 0.38,-0.71 0.07,-0.1 0.18,-0.17 0.31,-0.17 0.07,0 0.14,0.02 0.2,0.06 0.1,0.07 0.17,0.18 0.17,0.31 0,0.07 -0.02,0.14 -0.06,0.2 -0.12,0.19 -0.23,0.38 -0.32,0.59 -0.06,0.13 -0.19,0.22 -0.33,0.23l-0 -0zm12.27 -0.22c0,-0 0,-0 0,-0 -0.05,0 -0.11,-0.01 -0.15,-0.03l-0.67 -0.32c-0.13,-0.06 -0.21,-0.19 -0.21,-0.33 0,-0.05 0.01,-0.11 0.04,-0.16 0.06,-0.13 0.19,-0.21 0.33,-0.21 0.05,0 0.11,0.01 0.16,0.04l0.67 0.31c0.13,0.06 0.21,0.19 0.21,0.33 0,0.05 -0.01,0.11 -0.03,0.16 -0.06,0.13 -0.19,0.21 -0.33,0.22l-0 -0zm-2 -0.96c0,0 0,0 0,0 -0.06,0 -0.11,-0.01 -0.16,-0.04l-0.67 -0.33c-0.13,-0.06 -0.21,-0.19 -0.21,-0.33 0,-0.06 0.01,-0.11 0.04,-0.16 0.06,-0.13 0.19,-0.21 0.33,-0.21 0.06,0 0.11,0.01 0.16,0.04l0.66 0.32c0.13,0.06 0.21,0.19 0.21,0.33 0,0.06 -0.01,0.11 -0.04,0.16 -0.06,0.13 -0.18,0.21 -0.32,0.21l-0.01 -0zm-8.93 -0.56c0,-0 0,-0 0,-0 -0.11,0 -0.21,-0.05 -0.28,-0.13 -0.05,-0.07 -0.09,-0.15 -0.09,-0.24 0,-0.11 0.05,-0.21 0.13,-0.28 0.2,-0.17 0.42,-0.32 0.64,-0.46 0.06,-0.04 0.13,-0.06 0.19,-0.06 0.13,0 0.25,0.07 0.31,0.17 0.04,0.06 0.06,0.13 0.06,0.19 0,0.13 -0.07,0.25 -0.17,0.31 -0.19,0.12 -0.38,0.26 -0.56,0.4 -0.06,0.06 -0.14,0.09 -0.23,0.09l-0.01 -0zm6.95 -0.41c-0.06,-0 -0.11,-0.01 -0.16,-0.04l-0.3 -0.15c-0.12,-0.06 -0.24,-0.11 -0.35,-0.16 -0.14,-0.06 -0.22,-0.19 -0.22,-0.34 0,-0.05 0.01,-0.1 0.03,-0.15 0.06,-0.14 0.19,-0.22 0.34,-0.22 0.05,0 0.1,0.01 0.15,0.03 0.13,0.05 0.26,0.11 0.38,0.18l0.3 0.15c0.13,0.06 0.21,0.19 0.21,0.33 0,0.06 -0.01,0.11 -0.04,0.16 -0.06,0.13 -0.19,0.21 -0.33,0.21 -0,0 -0,0 -0,0l0 -0zm-5 -0.63c-0.16,-0 -0.3,-0.11 -0.35,-0.26 -0.01,-0.03 -0.02,-0.07 -0.02,-0.11 0,-0.16 0.11,-0.31 0.26,-0.35 0.25,-0.08 0.51,-0.14 0.77,-0.18 0.02,-0 0.04,-0.01 0.06,-0.01 0.18,0 0.33,0.13 0.36,0.3 0,0.02 0.01,0.04 0.01,0.06 0,0.18 -0.13,0.33 -0.3,0.36 -0.23,0.04 -0.45,0.09 -0.67,0.16 -0.04,0.01 -0.08,0.02 -0.12,0.02l-0 0zm2.92 -0.13c-0.01,0 -0.02,0 -0.04,0 -0.01,0 -0.02,-0 -0.04,-0 -0.23,-0.05 -0.46,-0.08 -0.69,-0.1 -0.19,-0.02 -0.34,-0.18 -0.34,-0.37 0,-0.01 0,-0.02 0,-0.03 0.01,-0.19 0.17,-0.34 0.37,-0.34 0.01,0 0.02,0 0.03,0 0.26,0.02 0.52,0.06 0.77,0.11 0.18,0.03 0.3,0.18 0.3,0.36 0,0.02 -0,0.05 -0.01,0.07 -0.04,0.17 -0.19,0.3 -0.36,0.3 -0,0 -0,0 -0.01,0l-0 -0z"/>
    <path class="fil0" d="M24.39 4.43c0.41,0 0.74,0.33 0.74,0.74 0,0.41 -0.33,0.74 -0.74,0.74 -0.41,0 -0.74,-0.33 -0.74,-0.74 0,-0.41 0.33,-0.74 0.74,-0.74l-0 0z"/>
    <path class="fil0" d="M22.91 2.61c0.71,-0.41 1.5,-0.36 1.77,0.11 0.27,0.47 -0.3,2.45 -0.3,2.45 0,0 -1.99,-0.5 -2.27,-0.97 -0.27,-0.47 0.08,-1.19 0.79,-1.59z"/>
    <path class="fil0" d="M25.87 7.73c-0.71,0.41 -1.5,0.36 -1.77,-0.11 -0.27,-0.47 0.29,-2.45 0.29,-2.45 0,0 1.99,0.5 2.27,0.97 0.27,0.47 -0.08,1.18 -0.79,1.59z"/>
    <path class="fil0" d="M11.83 28.82c-0.16,-0 -0.32,-0.05 -0.44,-0.15 -0.19,-0.14 -0.3,-0.36 -0.3,-0.59l0 -8.87c0,-0.26 0.13,-0.49 0.35,-0.63 0.12,-0.07 0.25,-0.11 0.39,-0.11 0.12,0 0.23,0.03 0.33,0.08l2.7 1.35 7.11 -2.03c0.07,-0.02 0.13,-0.03 0.2,-0.03 0.16,0 0.32,0.05 0.45,0.15 0.19,0.14 0.3,0.36 0.3,0.59l0 6.55c0,0 0,0 0,0 0,0.33 -0.22,0.62 -0.54,0.71l-10.35 2.96c-0.06,0.02 -0.13,0.03 -0.19,0.03 -0,0 -0.01,0 -0.01,0l-0 0zm0.74 -8.41l0 6.69 8.87 -2.53 0 -5.01 -6.45 1.84c-0.07,0.02 -0.13,0.03 -0.2,0.03 -0.11,0 -0.23,-0.03 -0.33,-0.08l-1.89 -0.94z"/>
    <path class="fil0" d="M11.83 28.83c-0.16,-0 -0.32,-0.05 -0.44,-0.15l-5.91 -4.44c-0.19,-0.14 -0.3,-0.36 -0.3,-0.59l0 -5.54c0,-0.28 0.16,-0.54 0.41,-0.66 0.1,-0.05 0.22,-0.08 0.33,-0.08 0.16,0 0.32,0.05 0.44,0.15l1.28 0.96 4.19 0c0.41,-0 0.74,0.33 0.74,0.74l0 8.87c0,0 0,0 0,0 0,0.28 -0.16,0.54 -0.41,0.66 -0.1,0.05 -0.21,0.07 -0.32,0.07 -0,0 -0,0 -0,0l-0 0zm-5.17 -5.54l4.44 3.33 0 -6.65 -3.7 -0c-0.16,0 -0.32,-0.05 -0.44,-0.15l-0.3 -0.22 -0 3.7z"/>
   </g>
  </g>
  <polygon class="fil1" points="-0,29.56 29.56,29.56 29.56,0 -0,0 "/>
 </g>
</svg>
