<?xml version="1.0" encoding="UTF-8"?>
<!DOCTYPE svg PUBLIC "-//W3C//DTD SVG 1.1//EN" "http://www.w3.org/Graphics/SVG/1.1/DTD/svg11.dtd">
<!-- Creator: CorelDRAW -->
<svg xmlns="http://www.w3.org/2000/svg" xml:space="preserve" width="28.0187mm" height="28.0179mm" version="1.1" style="shape-rendering:geometricPrecision; text-rendering:geometricPrecision; image-rendering:optimizeQuality; fill-rule:evenodd; clip-rule:evenodd"
viewBox="0 0 39.94 39.94"
 xmlns:xlink="http://www.w3.org/1999/xlink"
 xmlns:xodm="http://www.corel.com/coreldraw/odm/2003">
 <defs>
  <style type="text/css">
   <![CDATA[
    .fil1 {fill:#FEFEFE;fill-rule:nonzero}
    .fil0 {fill:url(#id0)}
   ]]>
  </style>
  <linearGradient id="id0" gradientUnits="userSpaceOnUse" x1="36.87" y1="3.07" x2="3.07" y2="36.87">
   <stop offset="0" style="stop-opacity:1; stop-color:#3F75B9"/>
   <stop offset="1" style="stop-opacity:1; stop-color:#3C438D"/>
  </linearGradient>
 </defs>
 <g id="Capa_x0020_1">
  <metadata id="CorelCorpID_0Corel-Layer"/>
  <path class="fil0" d="M-0 29.49l0 -19.05c0,-5.75 4.7,-10.45 10.45,-10.45l19.04 0c5.75,0 10.45,4.7 10.45,10.45l0 19.05c0,5.75 -4.7,10.45 -10.45,10.45l-6.4 0 -3.35 -0.82 -2.89 0.82 -6.4 0c-5.75,0 -10.45,-4.7 -10.45,-10.45z"/>
  <path class="fil1" d="M27.74 26.4l0.88 -5.77 -5.54 0 0 -3.75c0,-1.58 0.77,-3.12 3.25,-3.12l2.52 0 0 -4.91c0,0 -2.29,-0.39 -4.47,-0.39 -4.56,0 -7.54,2.76 -7.54,7.77l0 4.4 -5.07 0 0 5.77 5.07 0 0 13.54 6.24 0 0 -13.54 4.65 0z"/>
 </g>
</svg>
