<?xml version="1.0" encoding="UTF-8"?>
<!DOCTYPE svg PUBLIC "-//W3C//DTD SVG 1.1//EN" "http://www.w3.org/Graphics/SVG/1.1/DTD/svg11.dtd">
<!-- Creator: CorelDRAW -->
<svg xmlns="http://www.w3.org/2000/svg" xml:space="preserve" width="1.1031in" height="1.10307in" version="1.1" style="shape-rendering:geometricPrecision; text-rendering:geometricPrecision; image-rendering:optimizeQuality; fill-rule:evenodd; clip-rule:evenodd"
viewBox="0 0 15.72 15.72"
 xmlns:xlink="http://www.w3.org/1999/xlink"
 xmlns:xodm="http://www.corel.com/coreldraw/odm/2003">
 <defs>
  <style type="text/css">
   <![CDATA[
    .fil1 {fill:#FEFEFE;fill-rule:nonzero}
    .fil0 {fill:url(#id0)}
   ]]>
  </style>
  <linearGradient id="id0" gradientUnits="userSpaceOnUse" x1="14.52" y1="1.21" x2="1.21" y2="14.52">
   <stop offset="0" style="stop-opacity:1; stop-color:#3F75B9"/>
   <stop offset="1" style="stop-opacity:1; stop-color:#3C438D"/>
  </linearGradient>
 </defs>
 <g id="Capa_x0020_1">
  <metadata id="CorelCorpID_0Corel-Layer"/>
  <path class="fil0" d="M-0 11.61l0 -7.5c0,-2.26 1.85,-4.11 4.11,-4.11l7.5 0c2.26,0 4.11,1.85 4.11,4.11l0 7.5c0,2.26 -1.85,4.11 -4.11,4.11l-2.52 0 -1.32 -0.32 -1.14 0.32 -2.52 0c-2.26,0 -4.11,-1.85 -4.11,-4.11z"/>
  <path class="fil1" d="M10.92 10.39l0.35 -2.27 -2.18 0 0 -1.47c0,-0.62 0.3,-1.23 1.28,-1.23l0.99 0 0 -1.93c0,0 -0.9,-0.15 -1.76,-0.15 -1.8,0 -2.97,1.09 -2.97,3.06l0 1.73 -2 0 0 2.27 2 0 0 5.33 2.46 0 0 -5.33 1.83 0z"/>
 </g>
</svg>
