<?xml version="1.0" encoding="UTF-8"?>
<!DOCTYPE svg PUBLIC "-//W3C//DTD SVG 1.1//EN" "http://www.w3.org/Graphics/SVG/1.1/DTD/svg11.dtd">
<!-- Creator: CorelDRAW -->
<svg xmlns="http://www.w3.org/2000/svg" xml:space="preserve" width="28.1591mm" height="27.125mm" version="1.1" style="shape-rendering:geometricPrecision; text-rendering:geometricPrecision; image-rendering:optimizeQuality; fill-rule:evenodd; clip-rule:evenodd"
viewBox="0 0 30.08 28.97"
 xmlns:xlink="http://www.w3.org/1999/xlink"
 xmlns:xodm="http://www.corel.com/coreldraw/odm/2003">
 <defs>
  <style type="text/css">
   <![CDATA[
    .fil0 {fill:#990000;fill-rule:nonzero}
   ]]>
  </style>
 </defs>
 <g id="Capa_x0020_1">
  <metadata id="CorelCorpID_0Corel-Layer"/>
  <g id="_2366136742992">
   <path class="fil0" d="M8.39 28.96c-2.6,0.05 -4.8,-2.59 -4.17,-5.16 0,0 1.08,-5.08 1.08,-5.08 -2,-2.06 -6.41,-4.42 -5.05,-7.96 1.02,-3.67 5.91,-2.96 8.79,-3.46 1.35,-2.57 2.2,-7.46 6,-7.3 3.81,-0.17 4.65,4.71 6,7.3 2.86,0.5 7.76,-0.21 8.79,3.46 1.34,3.55 -3.05,5.9 -5.07,7.96 0.42,2.87 2.6,7.33 -0.57,9.43 -2.93,2.38 -6.57,-1.08 -9.15,-2.36 -1.41,0.62 -5.01,3.38 -6.65,3.17zm6.65 -26.33c-0.2,0 -0.68,0.06 -0.92,0.6l-2.82 5.82c-0.24,0.53 -0.74,0.9 -1.32,0.96l-6.53 0.95c-0.59,0.06 -0.78,0.5 -0.86,0.69 -0.06,0.18 -0.15,0.66 0.29,1.05l4.79 4c0.44,0.39 0.63,0.98 0.51,1.55l-1.17 6.87c-0.12,0.57 0.23,0.9 0.39,1.02 0.17,0.12 0.59,0.35 1.1,0.06l5.75 -3.08c0.51,-0.29 1.13,-0.29 1.64,0l5.65 3.08c0.51,0.3 0.93,0.06 1.1,-0.06 0.17,-0.12 0.51,-0.45 0.39,-1.02l-1.17 -6.77c-0.12,-0.57 0.08,-1.16 0.51,-1.55l4.79 -4c0.44,-0.39 0.35,-0.87 0.29,-1.05 -0.06,-0.18 -0.27,-0.63 -0.86,-0.69l-6.43 -1.06c-0.59,-0.06 -1.08,-0.42 -1.32,-0.96l-2.82 -5.84c-0.29,-0.53 -0.77,-0.59 -0.96,-0.59z"/>
  </g>
 </g>
</svg>
