<?xml version="1.0" encoding="UTF-8"?>
<!DOCTYPE svg PUBLIC "-//W3C//DTD SVG 1.1//EN" "http://www.w3.org/Graphics/SVG/1.1/DTD/svg11.dtd">
<!-- Creator: CorelDRAW -->
<svg xmlns="http://www.w3.org/2000/svg" xml:space="preserve" width="32.352mm" height="27.1249mm" version="1.1" style="shape-rendering:geometricPrecision; text-rendering:geometricPrecision; image-rendering:optimizeQuality; fill-rule:evenodd; clip-rule:evenodd"
viewBox="0 0 829.71 695.66"
 xmlns:xlink="http://www.w3.org/1999/xlink"
 xmlns:xodm="http://www.corel.com/coreldraw/odm/2003">
 <defs>
  <style type="text/css">
   <![CDATA[
    .fil0 {fill:black;fill-rule:nonzero}
   ]]>
  </style>
 </defs>
 <g id="Capa_x0020_1">
  <metadata id="CorelCorpID_0Corel-Layer"/>
  <g id="_2518479992144">
   <path class="fil0" d="M753.33 9.36c-12.47,-12.47 -32.66,-12.47 -45.12,0l-631.82 631.82c-12.46,12.46 -12.46,32.66 0,45.12 12.45,12.47 32.66,12.47 45.12,0l631.82 -631.81c12.46,-12.47 12.46,-32.67 0,-45.13z"/>
   <path class="fil0" d="M414.86 92.53c50.3,0 98.5,8.21 143.12,21.91l-84.82 84.82c-18.06,-7.09 -37.72,-10.99 -58.3,-10.99 -88.12,0 -159.56,71.44 -159.56,159.56 0,20.58 3.9,40.25 10.99,58.31l-47.97 47.96c-17.13,-31.6 -26.85,-67.8 -26.85,-106.27 0,-63.97 26.9,-121.66 69.99,-162.39 -38.34,14.64 -73.2,33.76 -103.05,54.92 -33.1,23.43 -58.4,48.24 -74.79,70.04 -8.17,10.87 -13.5,20.16 -16.6,27.34 -2.75,6.37 -3.13,9.62 -3.18,10.09 0.01,0.23 0.12,1.08 0.52,2.61 0.18,0.72 0.43,1.58 0.77,2.6 0.46,1.35 1.06,2.98 1.89,4.9 3.1,7.19 8.43,16.46 16.6,27.33 16.39,21.79 41.69,46.6 74.79,70.04 11.25,7.97 23.19,15.65 35.79,22.92l-46.51 46.53c-90.31,-56.05 -147.69,-129.63 -147.69,-176.92 0,-85.09 185.74,-255.3 414.86,-255.3z"/>
   <path class="fil0" d="M414.86 252.1c1.8,0 3.57,0.05 5.33,0.15l-100.93 100.91c-0.1,-1.76 -0.15,-3.54 -0.15,-5.33 0,-52.88 42.88,-95.73 95.74,-95.73z"/>
   <path class="fil0" d="M510.45 342.5l-100.93 100.92 3.23 0.13 2.1 0.02c52.86,0 95.74,-42.87 95.74,-95.74 0,-1.78 -0.05,-3.57 -0.14,-5.33z"/>
   <path class="fil0" d="M414.86 507.39c-20.59,0 -40.25,-3.9 -58.3,-10.99l-84.83 84.81c44.6,13.72 92.83,21.92 143.13,21.92 229.11,0 414.86,-170.2 414.86,-255.3 0,-47.29 -57.38,-120.88 -147.69,-176.91l-46.51 46.52c12.59,7.26 24.54,14.94 35.78,22.92 33.1,23.43 58.4,48.24 74.79,70.04 8.16,10.87 13.48,20.16 16.6,27.34 2.75,6.37 3.13,9.62 3.18,10.09 -0.05,0.47 -0.43,3.74 -3.18,10.11l-1.3 2.87c-0.68,1.41 -1.42,2.9 -2.26,4.44 -3.13,5.81 -7.4,12.53 -13.04,20.02 -16.39,21.79 -41.7,46.6 -74.79,70.04 -29.85,21.16 -64.71,40.27 -103.06,54.91 43.11,-40.72 70,-98.42 70,-162.39 0,-38.47 -9.72,-74.67 -26.85,-106.27l-47.97 47.97c7.09,18.06 10.99,37.73 10.99,58.3 0,88.13 -71.44,159.56 -159.56,159.56z"/>
  </g>
 </g>
</svg>
