<?xml version="1.0" encoding="UTF-8"?>
<!DOCTYPE svg PUBLIC "-//W3C//DTD SVG 1.1//EN" "http://www.w3.org/Graphics/SVG/1.1/DTD/svg11.dtd">
<!-- Creator: CorelDRAW -->
<svg xmlns="http://www.w3.org/2000/svg" xml:space="preserve" width="27.813mm" height="27.125mm" version="1.1" style="shape-rendering:geometricPrecision; text-rendering:geometricPrecision; image-rendering:optimizeQuality; fill-rule:evenodd; clip-rule:evenodd"
viewBox="0 0 41.74 40.71"
 xmlns:xlink="http://www.w3.org/1999/xlink"
 xmlns:xodm="http://www.corel.com/coreldraw/odm/2003">
 <defs>
  <style type="text/css">
   <![CDATA[
    .fil0 {fill:#2B2929;fill-rule:nonzero}
   ]]>
  </style>
 </defs>
 <g id="Capa_x0020_1">
  <metadata id="CorelCorpID_0Corel-Layer"/>
  <g id="_2750860406400">
   <path class="fil0" d="M22.06 40.71l0 -10c0,-1.24 0.59,-2.41 1.6,-3.14l4.87 -3.55 0.02 3.45 -2.37 1.71c-0.85,0.61 -1.35,1.6 -1.35,2.65l-0 3.47 7.99 -5.77c0.64,-0.46 1.02,-1.2 1.02,-1.99l0 -10.47 1.78 1.4c0.62,0.49 0.99,1.24 0.99,2.03l0 8.46c0,0.79 -0.38,1.52 -1.02,1.99l-13.52 9.77z"/>
   <path class="fil0" d="M19.09 40.71l-0 -10c-0,-1.24 -0.59,-2.41 -1.6,-3.14l-4.87 -3.55 -0.02 3.45 2.37 1.71c0.85,0.61 1.35,1.6 1.35,2.65l0 3.47 -7.99 -5.77c-0.64,-0.46 -1.02,-1.2 -1.02,-1.99l0 -10.47 -1.78 1.4c-0.62,0.49 -0.99,1.24 -0.99,2.03l0 8.46c0,0.79 0.38,1.52 1.02,1.99l13.52 9.77z"/>
   <path class="fil0" d="M36.59 9.88l-1.54 -1.22c-0.78,-0.61 -1.23,-1.55 -1.23,-2.54l0 -3.93 2.77 0 0 7.69z"/>
   <path class="fil0" d="M38.3 17.68l-17.82 -14.14 -17.03 13.6c-0.95,0.76 -2.34,0.6 -3.1,-0.35l-0.35 -0.44 20.47 -16.35 21.27 16.88 -0.35 0.44c-0.76,0.95 -2.14,1.11 -3.1,0.36z"/>
  </g>
 </g>
</svg>
