<?xml version="1.0" encoding="UTF-8"?>
<!DOCTYPE svg PUBLIC "-//W3C//DTD SVG 1.1//EN" "http://www.w3.org/Graphics/SVG/1.1/DTD/svg11.dtd">
<!-- Creator: CorelDRAW -->
<svg xmlns="http://www.w3.org/2000/svg" xml:space="preserve" width="1.10309in" height="1.10307in" version="1.1" style="shape-rendering:geometricPrecision; text-rendering:geometricPrecision; image-rendering:optimizeQuality; fill-rule:evenodd; clip-rule:evenodd"
viewBox="0 0 15.1 15.1"
 xmlns:xlink="http://www.w3.org/1999/xlink"
 xmlns:xodm="http://www.corel.com/coreldraw/odm/2003">
 <defs>
  <style type="text/css">
   <![CDATA[
    .fil1 {fill:#FEFEFE;fill-rule:nonzero}
    .fil0 {fill:url(#id0)}
   ]]>
  </style>
  <linearGradient id="id0" gradientUnits="userSpaceOnUse" x1="15.25" y1="-0.16" x2="-4.27" y2="19.37">
   <stop offset="0" style="stop-opacity:1; stop-color:#F9D889"/>
   <stop offset="0.211765" style="stop-opacity:1; stop-color:#FBB257"/>
   <stop offset="0.380392" style="stop-opacity:1; stop-color:#F0647C"/>
   <stop offset="0.521569" style="stop-opacity:1; stop-color:#E5509A"/>
   <stop offset="0.741176" style="stop-opacity:1; stop-color:#7A57A2"/>
   <stop offset="1" style="stop-opacity:1; stop-color:#5261AA"/>
  </linearGradient>
 </defs>
 <g id="Capa_x0020_1">
  <metadata id="CorelCorpID_0Corel-Layer"/>
  <path class="fil0" d="M-0 11.15l0 -7.2c0,-2.17 1.78,-3.95 3.95,-3.95l7.2 0c2.17,0 3.95,1.78 3.95,3.95l0 7.2c0,2.17 -1.78,3.95 -3.95,3.95l-7.2 0c-2.17,0 -3.95,-1.78 -3.95,-3.95z"/>
  <path class="fil1" d="M9.89 4.7c-0.29,0 -0.52,0.23 -0.52,0.52 0,0.29 0.23,0.52 0.52,0.52 0.29,0 0.52,-0.23 0.52,-0.52 0,-0.29 -0.23,-0.52 -0.52,-0.52z"/>
  <path class="fil1" d="M7.59 8.95c-0.77,0 -1.4,-0.63 -1.4,-1.4 0,-0.77 0.63,-1.4 1.4,-1.4 0.77,0 1.4,0.63 1.4,1.4 0,0.77 -0.63,1.4 -1.4,1.4zm0 -3.58c-1.2,0 -2.18,0.98 -2.18,2.18 0,1.2 0.98,2.18 2.18,2.18 1.2,0 2.18,-0.98 2.18,-2.18 0,-1.2 -0.98,-2.18 -2.18,-2.18z"/>
  <path class="fil1" d="M5.78 3.96c-1.01,0 -1.83,0.82 -1.83,1.83l0 3.53c0,1.01 0.82,1.83 1.83,1.83l3.53 0c1.01,0 1.83,-0.82 1.83,-1.83l0 -3.53c0,-1.01 -0.82,-1.83 -1.83,-1.83l-3.53 0zm3.53 8.02l-3.53 0c-1.47,0 -2.66,-1.19 -2.66,-2.66l0 -3.53c0,-1.47 1.19,-2.66 2.66,-2.66l3.53 0c1.47,0 2.66,1.19 2.66,2.66l0 3.53c0,1.47 -1.19,2.66 -2.66,2.66z"/>
 </g>
</svg>
