<?xml version="1.0" encoding="UTF-8"?>
<!DOCTYPE svg PUBLIC "-//W3C//DTD SVG 1.1//EN" "http://www.w3.org/Graphics/SVG/1.1/DTD/svg11.dtd">
<!-- Creator: CorelDRAW -->
<svg xmlns="http://www.w3.org/2000/svg" xml:space="preserve" width="28.0184mm" height="28.0179mm" version="1.1" style="shape-rendering:geometricPrecision; text-rendering:geometricPrecision; image-rendering:optimizeQuality; fill-rule:evenodd; clip-rule:evenodd"
viewBox="0 0 38.35 38.35"
 xmlns:xlink="http://www.w3.org/1999/xlink"
 xmlns:xodm="http://www.corel.com/coreldraw/odm/2003">
 <defs>
  <style type="text/css">
   <![CDATA[
    .fil1 {fill:#FEFEFE;fill-rule:nonzero}
    .fil0 {fill:url(#id0)}
   ]]>
  </style>
  <linearGradient id="id0" gradientUnits="userSpaceOnUse" x1="38.75" y1="-0.4" x2="-10.85" y2="49.2">
   <stop offset="0" style="stop-opacity:1; stop-color:#F9D889"/>
   <stop offset="0.211765" style="stop-opacity:1; stop-color:#FBB257"/>
   <stop offset="0.380392" style="stop-opacity:1; stop-color:#F0647C"/>
   <stop offset="0.521569" style="stop-opacity:1; stop-color:#E5509A"/>
   <stop offset="0.741176" style="stop-opacity:1; stop-color:#7A57A2"/>
   <stop offset="1" style="stop-opacity:1; stop-color:#5261AA"/>
  </linearGradient>
 </defs>
 <g id="Capa_x0020_1">
  <metadata id="CorelCorpID_0Corel-Layer"/>
  <path class="fil0" d="M-0 28.32l0 -18.29c0,-5.52 4.51,-10.03 10.03,-10.03l18.29 0c5.52,0 10.03,4.51 10.03,10.03l0 18.29c0,5.52 -4.51,10.03 -10.03,10.03l-18.29 0c-5.52,0 -10.03,-4.51 -10.03,-10.03z"/>
  <path class="fil1" d="M25.13 11.95c-0.73,0 -1.32,0.59 -1.32,1.32 0,0.73 0.59,1.32 1.32,1.32 0.73,0 1.32,-0.59 1.32,-1.32 0,-0.73 -0.59,-1.32 -1.32,-1.32z"/>
  <path class="fil1" d="M19.27 22.72c-1.96,0 -3.55,-1.59 -3.55,-3.55 0,-1.96 1.59,-3.55 3.55,-3.55 1.96,0 3.55,1.59 3.55,3.55 0,1.96 -1.59,3.55 -3.55,3.55zm0 -9.08c-3.05,0 -5.54,2.48 -5.54,5.54 0,3.05 2.48,5.54 5.54,5.54 3.05,0 5.54,-2.49 5.54,-5.54 0,-3.05 -2.48,-5.54 -5.54,-5.54z"/>
  <path class="fil1" d="M14.69 10.05c-2.56,0 -4.64,2.08 -4.64,4.64l0 8.98c0,2.56 2.08,4.64 4.64,4.64l8.98 0c2.56,0 4.64,-2.08 4.64,-4.64l0 -8.98c0,-2.56 -2.08,-4.64 -4.64,-4.64l-8.98 0zm8.98 20.37l-8.98 0c-3.72,0 -6.75,-3.03 -6.75,-6.75l0 -8.98c0,-3.72 3.03,-6.75 6.75,-6.75l8.98 0c3.72,0 6.75,3.03 6.75,6.75l0 8.98c0,3.72 -3.03,6.75 -6.75,6.75z"/>
 </g>
</svg>
