<?xml version="1.0" encoding="UTF-8"?>
<!DOCTYPE svg PUBLIC "-//W3C//DTD SVG 1.1//EN" "http://www.w3.org/Graphics/SVG/1.1/DTD/svg11.dtd">
<!-- Creator: CorelDRAW -->
<svg xmlns="http://www.w3.org/2000/svg" xml:space="preserve" width="1.1031in" height="1.10309in" version="1.1" style="shape-rendering:geometricPrecision; text-rendering:geometricPrecision; image-rendering:optimizeQuality; fill-rule:evenodd; clip-rule:evenodd"
viewBox="0 0 15.72 15.72"
 xmlns:xlink="http://www.w3.org/1999/xlink"
 xmlns:xodm="http://www.corel.com/coreldraw/odm/2003">
 <defs>
  <style type="text/css">
   <![CDATA[
    .fil1 {fill:#FEFEFE;fill-rule:nonzero}
    .fil0 {fill:url(#id0)}
   ]]>
  </style>
  <linearGradient id="id0" gradientUnits="userSpaceOnUse" x1="14.52" y1="1.21" x2="1.21" y2="14.52">
   <stop offset="0" style="stop-opacity:1; stop-color:#007FAF"/>
   <stop offset="1" style="stop-opacity:1; stop-color:#2A62AC"/>
  </linearGradient>
 </defs>
 <g id="Capa_x0020_1">
  <metadata id="CorelCorpID_0Corel-Layer"/>
  <path class="fil0" d="M-0 11.61l0 -7.5c0,-2.26 1.85,-4.11 4.11,-4.11l7.5 0c2.26,0 4.11,1.85 4.11,4.11l0 7.5c0,2.26 -1.85,4.11 -4.11,4.11l-7.5 0c-2.26,0 -4.11,-1.85 -4.11,-4.11z"/>
  <path class="fil1" d="M5.33 3.97c0.49,0 0.88,0.4 0.88,0.88 0,0.49 -0.39,0.88 -0.88,0.88 -0.49,0 -0.88,-0.4 -0.88,-0.88 0,-0.49 0.39,-0.88 0.88,-0.88zm-0.76 2.43l1.52 0 0 4.89 -1.52 0 0 -4.89z"/>
  <path class="fil1" d="M7.04 6.4l1.46 0 0 0.67 0.02 0c0.2,-0.39 0.7,-0.79 1.44,-0.79 1.54,0 1.82,1.01 1.82,2.33l0 2.68 -1.52 0 0 -2.38c0,-0.57 -0.01,-1.3 -0.79,-1.3 -0.79,0 -0.91,0.62 -0.91,1.26l0 2.42 -1.52 0 0 -4.89z"/>
 </g>
</svg>
