<?xml version="1.0" encoding="UTF-8"?>
<!DOCTYPE svg PUBLIC "-//W3C//DTD SVG 1.1//EN" "http://www.w3.org/Graphics/SVG/1.1/DTD/svg11.dtd">
<!-- Creator: CorelDRAW -->
<svg xmlns="http://www.w3.org/2000/svg" xml:space="preserve" width="28.0187mm" height="28.0184mm" version="1.1" style="shape-rendering:geometricPrecision; text-rendering:geometricPrecision; image-rendering:optimizeQuality; fill-rule:evenodd; clip-rule:evenodd"
viewBox="0 0 39.94 39.94"
 xmlns:xlink="http://www.w3.org/1999/xlink"
 xmlns:xodm="http://www.corel.com/coreldraw/odm/2003">
 <defs>
  <style type="text/css">
   <![CDATA[
    .fil1 {fill:#FEFEFE;fill-rule:nonzero}
    .fil0 {fill:url(#id0)}
   ]]>
  </style>
  <linearGradient id="id0" gradientUnits="userSpaceOnUse" x1="36.87" y1="3.07" x2="3.07" y2="36.87">
   <stop offset="0" style="stop-opacity:1; stop-color:#007FAF"/>
   <stop offset="1" style="stop-opacity:1; stop-color:#2A62AC"/>
  </linearGradient>
 </defs>
 <g id="Capa_x0020_1">
  <metadata id="CorelCorpID_0Corel-Layer"/>
  <path class="fil0" d="M-0 29.49l0 -19.05c0,-5.75 4.7,-10.45 10.45,-10.45l19.04 0c5.75,0 10.45,4.7 10.45,10.45l0 19.05c0,5.75 -4.7,10.45 -10.45,10.45l-19.04 0c-5.75,0 -10.45,-4.7 -10.45,-10.45z"/>
  <path class="fil1" d="M13.53 10.08c1.24,0 2.24,1 2.24,2.24 0,1.23 -1,2.24 -2.24,2.24 -1.24,0 -2.24,-1.01 -2.24,-2.24 0,-1.23 1,-2.24 2.24,-2.24zm-1.93 6.18l3.87 0 0 12.42 -3.87 0 0 -12.42z"/>
  <path class="fil1" d="M17.89 16.25l3.7 0 0 1.7 0.05 0c0.52,-0.98 1.78,-2.01 3.66,-2.01 3.91,0 4.63,2.57 4.63,5.92l0 6.81 -3.86 0 0 -6.04c0,-1.44 -0.03,-3.29 -2.01,-3.29 -2.01,0 -2.32,1.57 -2.32,3.19l0 6.15 -3.86 0 0 -12.42z"/>
 </g>
</svg>
