<?xml version="1.0" encoding="UTF-8"?>
<!DOCTYPE svg PUBLIC "-//W3C//DTD SVG 1.1//EN" "http://www.w3.org/Graphics/SVG/1.1/DTD/svg11.dtd">
<!-- Creator: CorelDRAW -->
<svg xmlns="http://www.w3.org/2000/svg" xml:space="preserve" width="6.3843in" height="1.77388in" version="1.1" style="shape-rendering:geometricPrecision; text-rendering:geometricPrecision; image-rendering:optimizeQuality; fill-rule:evenodd; clip-rule:evenodd"
viewBox="0 0 6397.52 1777.55"
 xmlns:xlink="http://www.w3.org/1999/xlink"
 xmlns:xodm="http://www.corel.com/coreldraw/odm/2003">
 <defs>
  <style type="text/css">
   <![CDATA[
    .fil0 {fill:#383838;fill-rule:nonzero}
   ]]>
  </style>
 </defs>
 <g id="Capa_x0020_1">
  <metadata id="CorelCorpID_0Corel-Layer"/>
  <path class="fil0" d="M2486.92 361.63c-35.06,0 -70.57,3.41 -105.55,10.12 -173.27,33.28 -308.4,141.43 -361.42,289.32 -72.74,202.99 -24.11,432.44 118.24,557.98 92.37,81.44 236.57,123.87 385.43,113.54 141.56,-9.77 267.8,-64.96 346.65,-151.48l0 -395.78 -404.68 0 0 131.13 262.14 0 -0.03 96.02c1.36,41.11 -7.13,74.18 -25.94,100.96 -26.28,37.41 -71.58,59.89 -138.51,68.72 -143.38,18.96 -262.37,-23.55 -335.01,-119.65 -74.17,-98.18 -89.38,-244.3 -37.83,-363.57 45.9,-106.31 136.45,-174.27 248.43,-186.44 102.08,-11.12 209.7,21.2 282.3,84.44l102.94 -104.59c-84.02,-83.12 -206.68,-130.71 -337.16,-130.71z"/>
  <polygon class="fil0" points="3955.86,387.36 4334.8,1308.94 4537.03,1308.38 4902.73,387.36 4722.72,387.36 4417.34,1136.76 4414.2,1128.47 4134.73,387.36 "/>
  <polygon class="fil0" points="5117.61,1308.35 5296.41,1308.35 5296.41,387.37 5117.61,387.37 "/>
  <path class="fil0" d="M3335.23 977.4l1.87 -4.75 157.88 -404.03 156.39 408.78 -316.14 0zm267.04 -590.5l-196.63 0.13 -378.85 921.32 179.13 0 83.07 -212.58 407.69 0 81.32 212.58 195.38 0 -371.11 -921.45z"/>
  <path class="fil0" d="M6039.87 362.35c-97.58,0 -191.92,26.11 -272.78,75.52 -123.3,75.36 -199.55,195.72 -214.71,338.87 -19.15,180.89 36.94,338.3 157.96,443.22 124.7,108.17 301.51,143.53 485.16,97.12 39.08,-9.9 151.44,-54.57 202.02,-107.49l-100.35 -111.8c-119.34,84.88 -277.39,104.62 -394.29,48.94 -110.13,-52.46 -173.29,-161.4 -173.29,-298.87 -0.03,-139.09 66.42,-248.85 182.32,-301.12 114.05,-51.47 256.81,-31.47 364.52,50.86l100.32 -114.15c-31.16,-25.68 -112.3,-73.53 -141.22,-84.67 -62.6,-24.16 -128.43,-36.41 -195.66,-36.41z"/>
  <path class="fil0" d="M2665.14 1571.94c-7.28,19.11 -13.76,35.07 -19.49,47.91l-7.11 16.27 53.84 0 -7.13 -16.27c-5.65,-12.94 -12.15,-28.91 -19.49,-47.91l-0.62 0zm39.54 92.15l-78.43 0 -20.4 46.55 -40.64 0 82.66 -182.67 34.86 0 82.66 182.67 -40.32 0 -20.39 -46.55z"/>
  <path class="fil0" d="M2885.46 1688.27c3.74,0 7.27,-0.42 10.59,-1.23 3.31,-0.82 6.37,-1.86 9.18,-3.14 2.8,-1.27 5.32,-2.69 7.54,-4.23 2.23,-1.55 4.12,-3.09 5.68,-4.65l0 -59.11c-3.95,-4.09 -8.81,-7.52 -14.64,-10.24 -5.8,-2.73 -11.97,-4.13 -18.51,-4.23 -2.28,0 -4.7,0.25 -7.24,0.75 -2.55,0.5 -5.12,1.39 -7.71,2.66 -2.59,1.28 -5.05,2.99 -7.37,5.12 -2.34,2.14 -4.4,4.84 -6.15,8.13 -1.77,3.27 -3.2,7.18 -4.28,11.74 -1.08,4.54 -1.63,9.83 -1.63,15.82 0,6.66 0.73,12.58 2.17,17.82 1.45,5.25 3.63,9.7 6.55,13.39 2.91,3.68 6.51,6.5 10.81,8.46 4.31,1.96 9.31,2.94 15.02,2.94zm33 25.8c0,-1.82 0.02,-4.08 0.07,-6.76 0.06,-2.69 0.18,-4.93 0.39,-6.75l-0.31 0c-2.28,1.64 -4.9,3.25 -7.86,4.84 -2.96,1.59 -6.19,3.05 -9.71,4.37 -3.53,1.32 -7.42,2.37 -11.68,3.13 -4.26,0.78 -8.62,1.17 -13.07,1.17 -8,0 -15.81,-1.25 -23.44,-3.76 -7.63,-2.51 -14.4,-6.46 -20.31,-11.87 -5.91,-5.42 -10.69,-12.36 -14.31,-20.82 -3.65,-8.46 -5.46,-18.66 -5.46,-30.59 0,-11.91 1.84,-22.37 5.53,-31.33 3.68,-8.96 8.58,-16.45 14.7,-22.46 6.12,-6 13.15,-10.53 21.1,-13.57 7.93,-3.06 16.1,-4.58 24.51,-4.58 9.23,0 17.44,1.7 24.59,5.12 7.15,3.41 13.03,7.75 17.59,13.03l0.63 0 1.54 -14.88 32.37 0 0 134.75c0,7.74 -0.72,14.38 -2.17,19.93 -1.45,5.55 -3.58,10.47 -6.39,14.75 -3.31,5.01 -7.54,9.38 -12.68,13.11 -5.14,3.73 -11,6.82 -17.58,9.28 -6.61,2.45 -13.84,4.3 -21.73,5.53 -7.88,1.22 -16.23,1.84 -25.05,1.84 -4.98,0 -9.87,-0.15 -14.62,-0.47 -4.79,-0.32 -9.27,-0.78 -13.47,-1.37 -4.21,-0.6 -8.04,-1.28 -11.52,-2.05 -3.47,-0.78 -6.39,-1.57 -8.78,-2.39l0 -26.35c6.84,2 14.03,3.52 21.56,4.58 7.52,1.03 15.43,1.56 23.73,1.56 16.49,0 29.27,-2.8 38.29,-8.39 9.03,-5.59 13.54,-14.08 13.54,-25.47l0 -3.13z"/>
  <path class="fil0" d="M3088.96 1600.34c-4.66,0 -8.81,0.75 -12.44,2.26 -3.65,1.5 -6.78,3.55 -9.42,6.14 -2.65,2.6 -4.73,5.62 -6.3,9.09 -1.55,3.45 -2.59,7.14 -3.12,11.05l59.3 0c0,-3.91 -0.6,-7.6 -1.8,-11.05 -1.18,-3.46 -2.95,-6.49 -5.29,-9.09 -2.32,-2.59 -5.24,-4.64 -8.71,-6.14 -3.46,-1.5 -7.54,-2.26 -12.22,-2.26zm14.79 87.65c7.17,0 14.63,-0.64 22.41,-1.92 7.78,-1.27 15.65,-3.09 23.66,-5.46l0 25.8c-4.79,1.82 -12.08,3.55 -21.94,5.19 -9.88,1.64 -20.08,2.45 -30.67,2.45 -10.69,0 -20.83,-1.21 -30.43,-3.62 -9.6,-2.41 -17.98,-6.29 -25.15,-11.67 -7.14,-5.37 -12.83,-12.33 -17.04,-20.89 -4.2,-8.56 -6.29,-18.93 -6.29,-31.13 0,-12.01 1.95,-22.52 5.9,-31.54 3.95,-9.01 9.24,-16.47 15.88,-22.4 6.64,-5.91 14.25,-10.34 22.81,-13.3 8.56,-2.95 17.4,-4.44 26.53,-4.44 9.55,0 18.33,1.28 26.39,3.83 8.03,2.54 14.99,6.55 20.85,12.01 5.87,5.46 10.42,12.5 13.69,21.1 3.27,8.6 4.9,18.76 4.9,30.51 -0.09,4.55 -0.25,8.42 -0.46,11.61l-98.83 0c0.52,6.1 2.08,11.3 4.66,15.63 2.59,4.33 6,7.84 10.2,10.52 4.2,2.67 9.1,4.64 14.7,5.86 5.61,1.23 11.68,1.85 18.22,1.85z"/>
  <path class="fil0" d="M3253.73 1596.79l0.63 0c2.18,-2.73 4.92,-5.41 8.25,-8.06 3.33,-2.63 7.1,-4.96 11.35,-6.96 4.26,-2 8.95,-3.62 14.1,-4.84 5.14,-1.23 10.59,-1.84 16.42,-1.84 5.5,0 10.8,0.54 15.93,1.63 5.15,1.1 9.83,2.8 14.1,5.12 4.23,2.32 8,5.32 11.29,9.02 3.27,3.67 5.82,8.07 7.69,13.16 1.03,2.82 1.73,5.89 2.1,9.22 0.36,3.33 0.54,7.16 0.54,11.54l0 85.87 -36.9 0 0 -80.82c0,-3.55 -0.15,-6.6 -0.46,-9.14 -0.3,-2.55 -0.89,-4.77 -1.71,-6.69 -1.86,-4.17 -4.7,-7.18 -8.47,-9 -3.8,-1.82 -8.38,-2.73 -13.78,-2.73 -7.16,0 -14.04,1.48 -20.63,4.43 -6.58,2.97 -12.43,7.27 -17.51,12.9l0 91.07 -36.88 0 0 -132.29 30.49 0 3.42 18.43z"/>
  <path class="fil0" d="M3535.52 1707.79c-4.66,1.72 -10.38,3.2 -17.12,4.44 -6.73,1.23 -13.86,1.84 -21.32,1.84 -10.9,0 -21.07,-1.37 -30.51,-4.09 -9.45,-2.73 -17.7,-6.88 -24.75,-12.43 -7.05,-5.55 -12.61,-12.59 -16.66,-21.09 -4.05,-8.52 -6.06,-18.46 -6.06,-29.84 0,-12.73 2.32,-23.66 6.99,-32.76 4.66,-9.1 10.73,-16.49 18.12,-22.18 7.43,-5.69 15.78,-9.88 25.08,-12.57 9.27,-2.67 18.43,-4.02 27.47,-4.02 6.74,0 13.22,0.53 19.44,1.57 6.24,1.05 11.89,2.48 16.97,4.3l0 26.35c-4.56,-1.72 -9.42,-3.12 -14.55,-4.16 -5.13,-1.05 -10.68,-1.57 -16.57,-1.57 -5.93,0 -11.58,0.81 -16.97,2.39 -5.4,1.59 -10.19,4.12 -14.32,7.57 -4.15,3.46 -7.44,8.04 -9.88,13.72 -2.44,5.69 -3.66,12.54 -3.66,20.56 0,5.82 0.93,11.3 2.81,16.44 1.85,5.15 4.58,9.55 8.17,13.18 3.56,3.65 8.13,6.58 13.69,8.81 5.55,2.23 12.1,3.34 19.68,3.34 6.75,0 12.86,-0.59 18.36,-1.77 5.5,-1.18 10.69,-2.65 15.57,-4.37l0 26.35z"/>
  <path class="fil0" d="M3598.64 1578.37l36.88 0 0 132.29 -36.88 0 0 -132.29zm-0.94 -65.4l38.75 0 0 35.09 -38.75 0 0 -35.09z"/>
  <path class="fil0" d="M3792.97 1654.27c-3.53,-0.73 -7.57,-1.39 -12.15,-1.98 -4.56,-0.6 -9.17,-0.89 -13.86,-0.89 -9.02,0 -16.15,1.57 -21.39,4.7 -5.23,3.15 -7.86,7.95 -7.86,14.4 0,3.01 0.6,5.63 1.8,7.85 1.18,2.24 2.8,4.08 4.83,5.54 2.04,1.45 4.37,2.55 7.09,3.27 2.69,0.74 5.54,1.1 8.56,1.1 3.73,0 7.26,-0.45 10.58,-1.31 3.33,-0.86 6.39,-1.95 9.18,-3.27 2.8,-1.32 5.32,-2.8 7.56,-4.44 2.23,-1.64 4.1,-3.23 5.68,-4.77l0 -20.21zm2.95 42.32l-0.63 0c-2.07,1.91 -4.56,3.87 -7.46,5.87 -2.91,2 -6.23,3.89 -9.97,5.67 -3.74,1.78 -7.89,3.2 -12.45,4.3 -4.56,1.08 -9.49,1.64 -14.79,1.64 -7.14,0 -13.85,-0.99 -20.06,-2.94 -6.23,-1.96 -11.58,-4.79 -16.03,-8.46 -4.48,-3.69 -7.97,-8.15 -10.52,-13.39 -2.53,-5.23 -3.81,-11.08 -3.81,-17.54 0,-7.1 1.48,-13.47 4.44,-19.12 2.97,-5.63 7.09,-10.41 12.37,-14.33 5.31,-3.91 11.64,-6.89 19,-8.94 7.35,-2.05 15.5,-3.08 24.42,-3.08 6.53,0 12.55,0.36 18.05,1.1 5.5,0.72 10.34,1.59 14.49,2.59l0 -5.33c0,-3.09 -0.61,-6.07 -1.81,-8.94 -1.18,-2.87 -3.09,-5.41 -5.75,-7.64 -2.64,-2.24 -6.1,-4.01 -10.34,-5.33 -4.26,-1.32 -9.45,-1.98 -15.57,-1.98 -7.46,0 -14.94,0.73 -22.41,2.17 -7.47,1.46 -15.58,3.65 -24.29,6.57l0 -25.26c7.57,-2.92 15.63,-5.15 24.12,-6.69 8.5,-1.55 17.45,-2.37 26.78,-2.45 11.01,0 20.63,1.18 28.88,3.55 8.24,2.36 15.14,5.61 20.7,9.76 5.55,4.15 9.7,9.03 12.45,14.67 2.74,5.65 4.12,11.79 4.12,18.44l0 49.83c0,8.74 0.09,16.24 0.3,22.53 0.21,6.28 0.41,11.87 0.63,16.79l-33.31 0 -1.56 -14.06z"/>
  <path class="fil0" d="M3998.43 1578.37l36.88 0 0 132.29 -36.88 0 0 -132.29zm-0.93 -65.4l38.75 0 0 35.09 -38.75 0 0 -35.09z"/>
  <path class="fil0" d="M4140.92 1596.79l0.63 0c2.19,-2.73 4.92,-5.41 8.25,-8.06 3.33,-2.63 7.1,-4.96 11.35,-6.96 4.26,-2 8.95,-3.62 14.1,-4.84 5.14,-1.23 10.59,-1.84 16.42,-1.84 5.5,0 10.8,0.54 15.93,1.63 5.15,1.1 9.83,2.8 14.1,5.12 4.23,2.32 8,5.32 11.29,9.02 3.27,3.67 5.82,8.07 7.7,13.16 1.03,2.82 1.72,5.89 2.1,9.22 0.36,3.33 0.54,7.16 0.54,11.54l0 85.87 -36.9 0 0 -80.82c0,-3.55 -0.15,-6.6 -0.46,-9.14 -0.3,-2.55 -0.89,-4.77 -1.71,-6.69 -1.86,-4.17 -4.7,-7.18 -8.47,-9 -3.8,-1.82 -8.38,-2.73 -13.78,-2.73 -7.16,0 -14.04,1.48 -20.63,4.43 -6.58,2.97 -12.43,7.27 -17.51,12.9l0 91.07 -36.88 0 0 -132.29 30.49 0 3.42 18.43z"/>
  <path class="fil0" d="M4508.34 1630.11c0,-2.82 -0.12,-5.47 -0.32,-7.92 -0.21,-2.46 -0.57,-4.59 -1.1,-6.41 -1.13,-4.01 -3.37,-7.24 -6.68,-9.7 -3.33,-2.45 -8,-3.73 -14.01,-3.81 -3.22,0 -6.53,0.4 -9.95,1.22 -3.42,0.82 -6.82,1.98 -10.19,3.48 -3.38,1.5 -6.61,3.33 -9.66,5.46 -3.06,2.14 -5.83,4.54 -8.34,7.18l0 91.06 -36.88 0 0 -80.55c0,-2.82 -0.1,-5.47 -0.3,-7.92 -0.21,-2.46 -0.59,-4.59 -1.09,-6.41 -1.14,-4.01 -3.35,-7.24 -6.62,-9.7 -3.27,-2.45 -7.96,-3.73 -14.07,-3.81 -3.22,0 -6.55,0.4 -9.98,1.22 -3.42,0.82 -6.82,1.98 -10.19,3.48 -3.38,1.5 -6.6,3.33 -9.66,5.46 -3.07,2.14 -5.83,4.54 -8.32,7.18l0 91.06 -36.88 0 0 -132.3 30.51 0 3.41 18.43 0.64 0c2.17,-2.73 4.91,-5.41 8.25,-8.06 3.31,-2.63 7.08,-4.96 11.29,-6.96 4.2,-1.99 8.81,-3.62 13.85,-4.84 5.02,-1.22 10.36,-1.84 15.95,-1.84 9.95,0 18.9,1.94 26.83,5.79 7.95,3.88 14,9.91 18.15,18.09l0.61 0c2.91,-3.55 6.17,-6.78 9.73,-9.69 3.57,-2.91 7.54,-5.42 11.9,-7.52 4.36,-2.09 9.06,-3.73 14.1,-4.92 5.04,-1.18 10.4,-1.77 16.1,-1.77 10.79,0.09 19.83,2.06 27.15,5.93 7.32,3.87 12.96,9.17 16.88,15.91 1.05,1.73 1.93,3.62 2.66,5.67 0.74,2.05 1.34,4.36 1.8,6.9 0.47,2.55 0.79,5.37 1.01,8.46 0.21,3.09 0.31,6.64 0.31,10.65l0 82.06 -36.88 0 0 -80.55z"/>
  <path class="fil0" d="M4721.64 1644.58c0,-7.01 -0.93,-13.19 -2.8,-18.57 -1.87,-5.37 -4.47,-9.88 -7.79,-13.52 -3.31,-3.65 -7.31,-6.37 -11.99,-8.2 -4.66,-1.81 -9.74,-2.73 -15.24,-2.73 -5.4,0 -10.4,0.92 -15.03,2.73 -4.6,1.83 -8.57,4.55 -11.9,8.2 -3.31,3.63 -5.91,8.14 -7.78,13.52 -1.87,5.37 -2.8,11.55 -2.8,18.57 0,7.01 0.93,13.19 2.8,18.57 1.87,5.37 4.48,9.86 7.85,13.45 3.38,3.6 7.37,6.33 12,8.2 4.62,1.86 9.67,2.8 15.17,2.8 5.5,0 10.53,-0.94 15.09,-2.8 4.56,-1.87 8.52,-4.6 11.83,-8.2 3.33,-3.59 5.93,-8.07 7.79,-13.45 1.87,-5.37 2.8,-11.55 2.8,-18.57zm38.13 0c0,10.38 -1.77,19.84 -5.29,28.39 -3.53,8.56 -8.59,15.89 -15.18,21.99 -6.58,6.1 -14.55,10.8 -23.9,14.13 -9.33,3.33 -19.75,4.98 -31.27,4.98 -11.83,0 -22.44,-1.66 -31.83,-4.98 -9.39,-3.33 -17.35,-8.03 -23.9,-14.13 -6.54,-6.1 -11.54,-13.43 -15.02,-21.99 -3.46,-8.55 -5.2,-18.01 -5.2,-28.39 0,-10.38 1.75,-19.85 5.3,-28.39 3.52,-8.56 8.57,-15.9 15.16,-21.99 6.58,-6.1 14.56,-10.8 23.9,-14.12 9.34,-3.33 19.76,-4.98 31.29,-4.98 11.83,0 22.44,1.65 31.83,4.98 9.4,3.33 17.35,8.03 23.88,14.12 6.54,6.1 11.55,13.43 15.02,21.99 3.48,8.55 5.22,18.01 5.22,28.39z"/>
  <path class="fil0" d="M5010.53 1578.37l36.88 0 0 132.29 -36.88 0 0 -132.29zm-0.94 -65.4l38.75 0 0 35.09 -38.75 0 0 -35.09z"/>
  <polygon class="fil0" points="5120.65,1512.97 5157.54,1512.97 5157.54,1710.66 5120.65,1710.66 "/>
  <path class="fil0" d="M5230.79 1578.37l36.88 0 0 132.29 -36.88 0 0 -132.29zm-0.95 -65.4l38.75 0 0 35.09 -38.75 0 0 -35.09z"/>
  <path class="fil0" d="M5425.11 1654.27c-3.53,-0.73 -7.57,-1.39 -12.15,-1.98 -4.56,-0.6 -9.17,-0.89 -13.86,-0.89 -9.02,0 -16.14,1.57 -21.39,4.7 -5.24,3.15 -7.87,7.95 -7.87,14.4 0,3.01 0.6,5.63 1.8,7.85 1.18,2.24 2.8,4.08 4.83,5.54 2.03,1.45 4.37,2.55 7.08,3.27 2.69,0.74 5.54,1.1 8.56,1.1 3.73,0 7.26,-0.45 10.58,-1.31 3.33,-0.86 6.39,-1.95 9.18,-3.27 2.8,-1.32 5.32,-2.8 7.56,-4.44 2.23,-1.64 4.12,-3.23 5.68,-4.77l0 -20.21zm2.95 42.32l-0.61 0c-2.09,1.91 -4.58,3.87 -7.48,5.87 -2.91,2 -6.23,3.89 -9.96,5.67 -3.74,1.78 -7.89,3.2 -12.46,4.3 -4.56,1.08 -9.49,1.64 -14.79,1.64 -7.14,0 -13.85,-0.99 -20.05,-2.94 -6.24,-1.96 -11.58,-4.79 -16.03,-8.46 -4.48,-3.69 -7.98,-8.15 -10.52,-13.39 -2.53,-5.23 -3.81,-11.08 -3.81,-17.54 0,-7.1 1.48,-13.47 4.44,-19.12 2.97,-5.63 7.09,-10.41 12.38,-14.33 5.3,-3.91 11.63,-6.89 19,-8.94 7.35,-2.05 15.5,-3.08 24.42,-3.08 6.53,0 12.55,0.36 18.05,1.1 5.5,0.72 10.34,1.59 14.49,2.59l0 -5.33c0,-3.09 -0.61,-6.07 -1.81,-8.94 -1.18,-2.87 -3.09,-5.41 -5.75,-7.64 -2.63,-2.24 -6.1,-4.01 -10.34,-5.33 -4.26,-1.32 -9.45,-1.98 -15.57,-1.98 -7.46,0 -14.93,0.73 -22.41,2.17 -7.47,1.46 -15.57,3.65 -24.29,6.57l0 -25.26c7.57,-2.92 15.63,-5.15 24.12,-6.69 8.52,-1.55 17.45,-2.37 26.78,-2.45 11.01,0 20.63,1.18 28.88,3.55 8.24,2.36 15.15,5.61 20.7,9.76 5.55,4.15 9.7,9.03 12.46,14.67 2.74,5.65 4.12,11.79 4.12,18.44l0 49.83c0,8.74 0.09,16.24 0.3,22.53 0.21,6.28 0.41,11.87 0.63,16.79l-33.31 0 -1.56 -14.06z"/>
  <path class="fil0" d="M5623.31 1604.03l-3.12 0c-11.3,0 -21.24,1.48 -29.8,4.44 -8.56,2.95 -15.18,7.49 -19.85,13.58l0 88.6 -36.88 0 0 -132.29 30.49 0 3.42 18.43 0.64 0c4.36,-6.73 10.34,-12.04 17.97,-15.91 7.63,-3.87 16.78,-5.8 27.47,-5.8 3.74,0 6.96,0.19 9.65,0.56l0 28.39z"/>
  <path class="fil0" d="M5676.32 1578.37l36.88 0 0 132.29 -36.88 0 0 -132.29zm-0.93 -65.4l38.76 0 0 35.09 -38.76 0 0 -35.09z"/>
  <path class="fil0" d="M5870.65 1654.27c-3.53,-0.73 -7.57,-1.39 -12.15,-1.98 -4.56,-0.6 -9.17,-0.89 -13.86,-0.89 -9.02,0 -16.14,1.57 -21.39,4.7 -5.23,3.15 -7.86,7.95 -7.86,14.4 0,3.01 0.6,5.63 1.8,7.85 1.18,2.24 2.8,4.08 4.83,5.54 2.03,1.45 4.37,2.55 7.09,3.27 2.69,0.74 5.54,1.1 8.56,1.1 3.73,0 7.27,-0.45 10.58,-1.31 3.33,-0.86 6.39,-1.95 9.18,-3.27 2.8,-1.32 5.31,-2.8 7.55,-4.44 2.23,-1.64 4.12,-3.23 5.68,-4.77l0 -20.21zm2.95 42.32l-0.62 0c-2.09,1.91 -4.58,3.87 -7.47,5.87 -2.91,2 -6.23,3.89 -9.97,5.67 -3.74,1.78 -7.89,3.2 -12.45,4.3 -4.56,1.08 -9.49,1.64 -14.79,1.64 -7.14,0 -13.85,-0.99 -20.06,-2.94 -6.23,-1.96 -11.58,-4.79 -16.03,-8.46 -4.48,-3.69 -7.97,-8.15 -10.52,-13.39 -2.53,-5.23 -3.81,-11.08 -3.81,-17.54 0,-7.1 1.48,-13.47 4.44,-19.12 2.96,-5.63 7.09,-10.41 12.37,-14.33 5.3,-3.91 11.63,-6.89 19,-8.94 7.35,-2.05 15.5,-3.08 24.42,-3.08 6.53,0 12.55,0.36 18.05,1.1 5.5,0.72 10.34,1.59 14.49,2.59l0 -5.33c0,-3.09 -0.61,-6.07 -1.81,-8.94 -1.18,-2.87 -3.09,-5.41 -5.75,-7.64 -2.63,-2.24 -6.1,-4.01 -10.34,-5.33 -4.26,-1.32 -9.45,-1.98 -15.58,-1.98 -7.46,0 -14.93,0.73 -22.4,2.17 -7.48,1.46 -15.58,3.65 -24.29,6.57l0 -25.26c7.57,-2.92 15.63,-5.15 24.12,-6.69 8.51,-1.55 17.45,-2.37 26.78,-2.45 11.01,0 20.63,1.18 28.88,3.55 8.24,2.36 15.14,5.61 20.7,9.76 5.55,4.15 9.7,9.03 12.45,14.67 2.74,5.65 4.12,11.79 4.12,18.44l0 49.83c0,8.74 0.1,16.24 0.31,22.53 0.21,6.28 0.4,11.87 0.63,16.79l-33.31 0 -1.56 -14.06z"/>
  <path class="fil0" d="M918.78 1695.66l0.1 -416.35c0.02,-51.76 24.75,-100.4 66.57,-130.91l202.82 -147.93 0.85 143.71 -98.69 71.31c-35.38,25.57 -56.35,66.55 -56.37,110.22l-0.04 144.52 332.79 -240.47c26.55,-19.18 42.28,-49.95 42.28,-82.71l0 -436.31 74.17 58.43c25.9,20.39 41.03,51.55 41.03,84.52l0 352.24c0,32.74 -15.73,63.52 -42.28,82.71l-563.22 407.01z"/>
  <path class="fil0" d="M795.37 1695.66l-0.1 -416.35c-0.02,-51.76 -24.74,-100.4 -66.57,-130.91l-202.82 -147.93 -0.85 143.71 98.69 71.31c35.38,25.57 56.35,66.55 56.36,110.22l0.04 144.52 -332.79 -240.47c-26.55,-19.18 -42.28,-49.95 -42.28,-82.71l0 -436.31 -74.17 58.43c-25.9,20.39 -41.03,51.55 -41.03,84.52l0 352.24c0,32.74 15.73,63.52 42.28,82.71l563.22 407.01z"/>
  <path class="fil0" d="M1524.27 411.37l-64.02 -50.62c-32.32,-25.55 -51.18,-64.5 -51.18,-105.69l0 -163.85 115.2 0 0 320.16z"/>
  <path class="fil0" d="M1595.19 736.27l-742.37 -589.04 -709.22 566.41c-39.59,31.62 -97.32,25.17 -128.96,-14.43l-14.64 -18.33 852.58 -680.88 886.09 703.06 -14.56 18.36c-31.51,39.71 -89.23,46.36 -128.93,14.85z"/>
  <path class="fil0" d="M4813.14 1710.36l0 -194.42 37.2 0 0 74.4c12.78,-12.88 25,-15.18 40.82,-15.25 17.15,-0.07 31.32,6.2 42.54,18.64 12.81,14.21 18.48,34.25 17.5,53.88 -0.86,17.35 -6.92,34.38 -17.82,46.77 -11.43,12.99 -25.39,19.5 -41.72,19.5 -17.81,0 -33.83,-3.1 -44.03,-17.3l0 13.77 -34.48 0zm36.65 -64.53c0,19.18 11.69,38.73 32.67,38.73 20.56,0 29.37,-20.67 30.2,-38.43 0.57,-12.12 -2.5,-24.24 -9.2,-31.8 -6.12,-6.9 -13.3,-10.72 -22.45,-10.72 -23.7,0 -31.23,22.11 -31.23,42.22z"/>
 </g>
</svg>
