<?xml version="1.0" encoding="UTF-8"?>
<!DOCTYPE svg PUBLIC "-//W3C//DTD SVG 1.1//EN" "http://www.w3.org/Graphics/SVG/1.1/DTD/svg11.dtd">
<!-- Creator: CorelDRAW -->
<svg xmlns="http://www.w3.org/2000/svg" xml:space="preserve" width="334.483mm" height="87.0463mm" version="1.1" style="shape-rendering:geometricPrecision; text-rendering:geometricPrecision; image-rendering:optimizeQuality; fill-rule:evenodd; clip-rule:evenodd"
viewBox="0 0 64847.77 16876.09"
 xmlns:xlink="http://www.w3.org/1999/xlink"
 xmlns:xodm="http://www.corel.com/coreldraw/odm/2003">
 <defs>
  <style type="text/css">
   <![CDATA[
    .fil1 {fill:#008800}
    .fil0 {fill:#303030}
   ]]>
  </style>
 </defs>
 <g id="Capa_x0020_1">
  <metadata id="CorelCorpID_0Corel-Layer"/>
  <g id="_2624166568288">
   <path class="fil0" d="M104.17 4345.07c-105.62,331.04 -180.21,7561.18 29,8363.39 568.09,2178.22 1971.38,4167.38 4379.44,4167.38 1726.8,0 4706.1,-19.08 6589.5,-16.58 2312.27,-1028.74 3276.93,-2876.58 3276.68,-5368.84 -0.08,-684.13 -35.96,-3908.05 -42.65,-4209.68 -6.69,-301.63 -62.39,-286.92 -281.41,-293.62 -227.2,-14.87 -6153.92,-35.81 -6746.88,-13.38 -240.66,9.09 -263.48,107.64 -263.48,317.08l0 2484.2c0,605.72 62.31,499.69 538.12,496.26 816.37,-5.89 1251.15,-16.17 2128.94,-11.81 14.19,782.25 89.34,1684.4 -180.05,2076.67 -448.39,650.93 -457.93,745.08 -1666.35,744.27 -488.22,-0.31 -1694.78,101.16 -2090.11,-64.1 -969.65,-405.33 -987.29,-1137.15 -987.29,-2090.07l0 -5282.84c0,-1672.77 921.87,-1795.15 2359.32,-1795.15 1175.68,0.08 1380.52,-180.98 2330.14,490.79 139.86,117 164.44,285.46 263.36,454.69 207.39,354.85 456.89,234.18 945.49,234.18 605.55,-13.09 1965.06,-1527.19 3026.08,-2564.48 0,-1230.68 -2117.02,-2462.23 -3140.68,-2461.94 -1091.34,0.45 -5733.48,-2.85 -6470.69,-0.87 -2454.2,488.2 -3256.85,1949.14 -3996.48,4344.43z"/>
   <path class="fil1" d="M15247.89 16856.53l4667.36 0c652.35,-1558.85 3675.52,-12201.88 3695.66,-12444.07l153.88 0c1102.28,4030.46 2390.05,8175.55 3559.35,12186.9 77.47,270.77 75.09,275.57 236.16,276.74 343.57,0 4475.39,-13.18 4489.21,-16.69 196.36,-6.36 245.39,30.65 229.43,-85.89 -388.27,-1217.09 -5004.86,-14336.17 -5795.81,-16771.96l-5590.56 0c-184.41,0 -4457.63,13182.31 -4891.19,14496.28 -124.31,426.85 -747.45,2087.35 -753.49,2358.7z"/>
   <path class="fil1" d="M28278.28 1.55l-410.32 0c560.03,1867.5 4474.88,13917.33 5453.72,16857.73l5539.28 0c330.05,0 5652.73,-15343.37 5778.71,-16857.73l-4821.22 0c-291.59,1251.37 -3517.16,12165.71 -3692.85,12155.64 -192.67,-11.03 -3185.19,-10856.99 -3487.69,-12155.64l-4359.63 0z"/>
   <path class="fil0" d="M51307.31 4566.33l0 7693.44c0,2133.28 1653.75,4616.06 3696.79,4616.06l5689.22 0c1284.91,0 4154.45,-1565.11 4154.45,-2564.48 -176.91,-64.08 -2564.48,-2409.07 -2564.48,-2461.9l-1333.53 0c-45.21,413.3 -587.09,736.94 -869.78,976.63 -987.31,285.87 -2136.52,315.9 -3118.19,-14.73 -373.64,-136.72 -884.53,-877.26 -884.53,-1218.35l0 -6154.75c0,-565.38 504.58,-1208.33 1035.78,-1374.82 322.43,-101.07 2532.88,-200.41 2893.12,10.41 262.25,257.83 560.59,545.04 841.03,1005.4 383.78,0 792.6,22.92 1277.6,-55.95 291.36,-136.8 2620.41,-2378.19 2620.41,-2559.83 -43.41,-17.53 -834.86,-1052.91 -1375.72,-1397.76 -982.03,-626.24 -945.39,-785.23 -2023.26,-1064.12 -168.5,-0.12 -5990.48,-1.96 -6312.86,-0.47 -1954.65,450.49 -3726.04,2396.82 -3726.04,4565.23z"/>
   <path class="fil0" d="M45575.42 577.18l47.75 15576.47c0,330.21 191.06,697.02 502.68,709.87l3655.37 3.57c417.96,-24.64 611.89,-312.91 611.89,-721.62l-47.75 -15660.65c0,-196.57 -9.65,-485.87 -418.09,-484.09 -408.44,1.78 -3201.73,5.23 -3894.75,1.86 -365.16,17.2 -457.1,151.18 -457.1,574.59z"/>
  </g>
 </g>
</svg>
