<?xml version="1.0" encoding="UTF-8"?>
<!DOCTYPE svg PUBLIC "-//W3C//DTD SVG 1.1//EN" "http://www.w3.org/Graphics/SVG/1.1/DTD/svg11.dtd">
<!-- Creator: CorelDRAW -->
<svg xmlns="http://www.w3.org/2000/svg" xml:space="preserve" width="23.6617mm" height="26.725mm" version="1.1" style="shape-rendering:geometricPrecision; text-rendering:geometricPrecision; image-rendering:optimizeQuality; fill-rule:evenodd; clip-rule:evenodd"
viewBox="0 0 84.45 95.38"
 xmlns:xlink="http://www.w3.org/1999/xlink"
 xmlns:xodm="http://www.corel.com/coreldraw/odm/2003">
 <defs>
  <style type="text/css">
   <![CDATA[
    .fil0 {fill:#2B2929;fill-rule:nonzero}
   ]]>
  </style>
 </defs>
 <g id="Capa_x0020_1">
  <metadata id="CorelCorpID_0Corel-Layer"/>
  <path class="fil0" d="M82.37 85.57l-12.76 -15.6c5.32,-6.58 9.78,-16.5 10.06,-29.22 0,-23.37 -16.12,-40.74 -39.31,-40.74 -21.56,0 -40.35,17.37 -40.35,40.74 0,23.37 16.54,42.31 40.35,42.31 7.35,0 14.66,-1.72 20.89,-6.22l12.7 15.53c2.56,3.13 4.41,4.42 7.79,0.97 2.94,-3 3.99,-3.75 0.64,-7.76l0 0zm-42.01 -16.68c-13.64,0 -27.33,-11.46 -27.33,-28.12 0,-16.66 13.69,-26.56 27.33,-26.56 13.64,0 25.26,9.9 25.26,26.56 0,16.66 -11.62,28.12 -25.26,28.12z"/>
 </g>
</svg>
