<?xml version="1.0" encoding="UTF-8"?>
<!DOCTYPE svg PUBLIC "-//W3C//DTD SVG 1.1//EN" "http://www.w3.org/Graphics/SVG/1.1/DTD/svg11.dtd">
<!-- Creator: CorelDRAW -->
<svg xmlns="http://www.w3.org/2000/svg" xml:space="preserve" width="20.2722mm" height="20.2439mm" version="1.1" style="shape-rendering:geometricPrecision; text-rendering:geometricPrecision; image-rendering:optimizeQuality; fill-rule:evenodd; clip-rule:evenodd"
viewBox="0 0 55.43 55.35"
 xmlns:xlink="http://www.w3.org/1999/xlink"
 xmlns:xodm="http://www.corel.com/coreldraw/odm/2003">
 <defs>
  <style type="text/css">
   <![CDATA[
    .fil0 {fill:#4B4B4D}
   ]]>
  </style>
 </defs>
 <g id="Capa_x0020_1">
  <metadata id="CorelCorpID_0Corel-Layer"/>
  <g id="_3236759021408">
   <path class="fil0" d="M5.19 0l45.06 0.1c5.04,0.01 5.17,1.08 5.16,3.93 -0.01,3.02 -0.06,3.91 -5.19,3.9l-45.06 -0.1c-5.07,-0.01 -5.17,-1.08 -5.16,-3.93 0.01,-2.97 0.09,-3.91 5.19,-3.9z"/>
   <path class="fil0" d="M5.2 23.69l45.06 0.1c5.04,0.01 5.17,1.08 5.16,3.93 -0.01,3.02 -0.06,3.91 -5.19,3.9l-45.06 -0.1c-5.07,-0.01 -5.17,-1.08 -5.16,-3.93 0.01,-2.97 0.09,-3.91 5.19,-3.9z"/>
   <path class="fil0" d="M5.19 47.42l45.06 0.1c5.04,0.01 5.17,1.08 5.16,3.93 -0.01,3.02 -0.06,3.91 -5.19,3.9l-45.06 -0.1c-5.07,-0.01 -5.17,-1.08 -5.16,-3.93 0.01,-2.97 0.09,-3.91 5.19,-3.9z"/>
  </g>
 </g>
</svg>
