<?xml version="1.0" encoding="UTF-8"?>
<!DOCTYPE svg PUBLIC "-//W3C//DTD SVG 1.1//EN" "http://www.w3.org/Graphics/SVG/1.1/DTD/svg11.dtd">
<!-- Creator: CorelDRAW -->
<svg xmlns="http://www.w3.org/2000/svg" xml:space="preserve" width="37.8411mm" height="27.125mm" version="1.1" style="shape-rendering:geometricPrecision; text-rendering:geometricPrecision; image-rendering:optimizeQuality; fill-rule:evenodd; clip-rule:evenodd"
viewBox="0 0 77.6 55.63"
 xmlns:xlink="http://www.w3.org/1999/xlink"
 xmlns:xodm="http://www.corel.com/coreldraw/odm/2003">
 <defs>
  <style type="text/css">
   <![CDATA[
    .fil0 {fill:#C63437;fill-rule:nonzero}
   ]]>
  </style>
 </defs>
 <g id="Capa_x0020_1">
  <metadata id="CorelCorpID_0Corel-Layer"/>
  <path class="fil0" d="M69.58 0l-61.15 0c-6.8,0 -8.43,1.04 -8.43,7.82l-0 38.76c0,6.8 2.45,9.04 9.25,9.04l60.33 0c6.8,-0 8.02,-2.04 8.02,-8.84l0 -38.15c0,-6.8 -1.24,-8.64 -8.02,-8.64zm0.2 4.94l-27.67 21.72c-1.37,1.08 -3.21,1 -4.55,0.02l-29.59 -21.74 61.81 0zm-1.09 45.68l-59.88 -0.01c-2.27,-0 -4.1,-1.84 -4.1,-4.11l-0 -37.66 28.67 21.67c3.59,2.71 9.41,2.84 12.9,0l26.62 -21.66 0 37.73c0,2.8 -0.98,4.04 -4.2,4.04z"/>
 </g>
</svg>
