<?xml version="1.0" encoding="UTF-8"?>
<!DOCTYPE svg PUBLIC "-//W3C//DTD SVG 1.1//EN" "http://www.w3.org/Graphics/SVG/1.1/DTD/svg11.dtd">
<!-- Creator: CorelDRAW -->
<svg xmlns="http://www.w3.org/2000/svg" xml:space="preserve" width="21.7865mm" height="21.7937mm" version="1.1" style="shape-rendering:geometricPrecision; text-rendering:geometricPrecision; image-rendering:optimizeQuality; fill-rule:evenodd; clip-rule:evenodd"
viewBox="0 0 46.84 46.85"
 xmlns:xlink="http://www.w3.org/1999/xlink"
 xmlns:xodm="http://www.corel.com/coreldraw/odm/2003">
 <defs>
  <style type="text/css">
   <![CDATA[
    .fil0 {fill:black;fill-rule:nonzero}
   ]]>
  </style>
 </defs>
 <g id="Capa_x0020_1">
  <metadata id="CorelCorpID_0Corel-Layer"/>
  <g id="_1826508122560">
   <path class="fil0" d="M21.65 37.11c-0.04,0.15 -0.16,0.28 -0.31,0.32l-1.56 0.46c-1.42,0.41 -2.94,0.02 -3.98,-1.02l-5.81 -5.81c-1.04,-1.04 -1.44,-2.57 -1.03,-3.98l0.46 -1.56 0 -0c0.04,-0.15 0.16,-0.27 0.31,-0.31 0.15,-0.04 0.32,0 0.43,0.11l11.37 11.37c0.11,0.11 0.16,0.27 0.12,0.42l0 0zm-10.55 -1.36c-1.45,-1.45 -3.56,-2.02 -5.54,-1.49 -1.98,0.53 -3.53,2.08 -4.06,4.06l-1.41 5.25c-0.25,0.9 0,1.86 0.66,2.52 0.66,0.66 1.63,0.91 2.52,0.66l5.25 -1.41c1.98,-0.53 3.53,-2.08 4.06,-4.06 0.53,-1.98 -0.04,-4.09 -1.49,-5.54zm28.77 0.93c2.3,-4.93 1.33,-9.99 0.74,-12.27l-10.33 10.3c-1.24,1.24 -2.9,1.96 -4.64,2.02 1.16,1.82 1.85,3.9 2.02,6.06l0.2 2.64c0.01,0.11 0.06,0.21 0.13,0.28l0.07 0.05c0.11,0.08 0.26,0.1 0.39,0.05 5.65,-1.88 9.48,-4.95 11.43,-9.14l-0 0zm-27.71 -20.11l10.27 -10.3c-2.28,-0.63 -7.35,-1.59 -12.27,0.7 -4.18,1.95 -7.26,5.78 -9.13,11.43 -0.04,0.13 -0.02,0.27 0.05,0.39 0.08,0.11 0.2,0.19 0.34,0.2l2.27 0.17 0 0c2.3,0.18 4.51,0.95 6.42,2.24 0.02,-1.82 0.76,-3.56 2.05,-4.83l0 0zm23.47 5.85c-2.26,2.26 -5.66,2.94 -8.62,1.72 -2.96,-1.22 -4.88,-4.11 -4.88,-7.31 0,-3.2 1.93,-6.08 4.88,-7.31 2.96,-1.22 6.36,-0.55 8.62,1.71 3.08,3.1 3.06,8.11 -0.03,11.19l0.03 0zm-1.88 -1.88c1.5,-1.5 1.95,-3.76 1.14,-5.72 -0.81,-1.96 -2.72,-3.24 -4.84,-3.24 -2.12,0 -4.03,1.28 -4.85,3.24 -0.81,1.96 -0.36,4.22 1.14,5.72 2.05,2.02 5.34,2.02 7.39,0l0.03 0zm-0.66 -6.79c-1.25,-1.24 -3.12,-1.62 -4.75,-0.94 -1.63,0.68 -2.69,2.26 -2.69,4.02 0,1.76 1.06,3.35 2.69,4.02 1.63,0.68 3.5,0.3 4.75,-0.94 1.69,-1.7 1.69,-4.46 0,-6.16zm8.23 8.65l-11.68 11.69c-2.35,2.35 -6.17,2.35 -8.52,0l-8.37 -8.37c-2.35,-2.35 -2.35,-6.17 0,-8.52l11.69 -11.68c3.73,-3.72 8.84,-5.72 14.1,-5.51l2.83 0.11c2.89,0.14 5.19,2.45 5.33,5.33l0.11 2.83c0.22,5.27 -1.77,10.38 -5.49,14.12l-0 -0zm-5.09 0.65l0 0c1.65,-1.65 2.58,-3.89 2.58,-6.22 0,-2.34 -0.93,-4.57 -2.58,-6.22 -1.65,-1.65 -3.89,-2.58 -6.22,-2.58 -2.33,0 -4.57,0.93 -6.22,2.58 -1.65,1.65 -2.58,3.89 -2.58,6.22 0,2.33 0.93,4.57 2.58,6.22 1.65,1.65 3.89,2.57 6.22,2.57 2.33,0 4.57,-0.92 6.22,-2.57l-0 -0z"/>
  </g>
 </g>
</svg>
