<?xml version="1.0" encoding="UTF-8"?>
<!DOCTYPE svg PUBLIC "-//W3C//DTD SVG 1.1//EN" "http://www.w3.org/Graphics/SVG/1.1/DTD/svg11.dtd">
<!-- Creator: CorelDRAW -->
<svg xmlns="http://www.w3.org/2000/svg" xml:space="preserve" width="25.5157mm" height="25.5161mm" version="1.1" style="shape-rendering:geometricPrecision; text-rendering:geometricPrecision; image-rendering:optimizeQuality; fill-rule:evenodd; clip-rule:evenodd"
viewBox="0 0 62.8 62.81"
 xmlns:xlink="http://www.w3.org/1999/xlink"
 xmlns:xodm="http://www.corel.com/coreldraw/odm/2003">
 <defs>
  <style type="text/css">
   <![CDATA[
    .fil0 {fill:#4D4E50;fill-rule:nonzero}
   ]]>
  </style>
 </defs>
 <g id="Capa_x0020_1">
  <metadata id="CorelCorpID_0Corel-Layer"/>
  <path class="fil0" d="M31.4 56.44c-13.79,0 -25.01,-11.22 -25.01,-25.01 0,-10.98 7.12,-20.33 16.98,-23.68l0 6.81c-6.3,3.01 -10.66,9.44 -10.66,16.88 0,10.31 8.39,18.7 18.69,18.7 10.31,0 18.69,-8.39 18.69,-18.7 0,-7.43 -4.36,-13.87 -10.66,-16.88l0 -6.81c9.86,3.36 16.98,12.7 16.98,23.68 0,13.79 -11.22,25.01 -25.01,25.01zm-3.87 -52.66l7.6 0 0 23.04 -7.6 0 0 -23.04zm3.87 -3.77c-17.34,0 -31.4,14.06 -31.4,31.4 0,17.34 14.06,31.4 31.4,31.4 17.34,0 31.4,-14.06 31.4,-31.4 0,-17.34 -14.06,-31.4 -31.4,-31.4z"/>
 </g>
</svg>
