<?xml version="1.0" encoding="UTF-8"?>
<!DOCTYPE svg PUBLIC "-//W3C//DTD SVG 1.1//EN" "http://www.w3.org/Graphics/SVG/1.1/DTD/svg11.dtd">
<!-- Creator: CorelDRAW -->
<svg xmlns="http://www.w3.org/2000/svg" xml:space="preserve" width="27.1252mm" height="27.1252mm" version="1.1" style="shape-rendering:geometricPrecision; text-rendering:geometricPrecision; image-rendering:optimizeQuality; fill-rule:evenodd; clip-rule:evenodd"
viewBox="0 0 36.55 36.55"
 xmlns:xlink="http://www.w3.org/1999/xlink"
 xmlns:xodm="http://www.corel.com/coreldraw/odm/2003">
 <defs>
  <style type="text/css">
   <![CDATA[
    .fil0 {fill:#2B2929;fill-rule:nonzero}
   ]]>
  </style>
 </defs>
 <g id="Capa_x0020_1">
  <metadata id="CorelCorpID_0Corel-Layer"/>
  <g id="_2785355936928">
   <path class="fil0" d="M32.33 0l-22.49 0c-2.33,0 -4.22,1.89 -4.22,4.22l0 1.41 -1.41 0c-2.33,0 -4.22,1.89 -4.22,4.22l0 22.49c0,2.33 1.89,4.22 4.22,4.22l22.49 0c2.33,0 4.22,-1.89 4.22,-4.22l0 -1.41 1.41 0c2.33,0 4.22,-1.89 4.22,-4.22l0 -22.49c0,-2.33 -1.89,-4.22 -4.22,-4.22zm-4.22 32.33c0,0.78 -0.63,1.41 -1.41,1.41l-22.49 0c-0.78,0 -1.41,-0.63 -1.41,-1.41l0 -22.49c0,-0.78 0.63,-1.41 1.41,-1.41l22.49 0c0.78,0 1.41,0.63 1.41,1.41l0 22.49zm5.62 -5.62c0,0.78 -0.63,1.41 -1.41,1.41l-1.41 0 0 -18.28c0,-2.33 -1.89,-4.22 -4.22,-4.22l-18.28 0 0 -1.41c0,-0.78 0.63,-1.41 1.41,-1.41l22.49 0c0.78,0 1.41,0.63 1.41,1.41l0 22.49z"/>
   <path class="fil0" d="M6.33 15.23l18.28 0c0.39,0 0.7,-0.31 0.7,-0.7l0 -1.41c0,-0.39 -0.31,-0.7 -0.7,-0.7l-18.28 0c-0.39,0 -0.7,0.31 -0.7,0.7l0 1.41c0,0.39 0.32,0.7 0.7,0.7z"/>
   <path class="fil0" d="M6.33 22.48l18.28 0c0.39,0 0.7,-0.31 0.7,-0.7l0 -1.41c0,-0.39 -0.31,-0.7 -0.7,-0.7l-18.28 0c-0.39,0 -0.7,0.32 -0.7,0.7l0 1.41c0,0.39 0.32,0.7 0.7,0.7z"/>
   <path class="fil0" d="M6.33 29.72l18.28 0c0.39,0 0.7,-0.31 0.7,-0.7l0 -1.41c0,-0.39 -0.31,-0.7 -0.7,-0.7l-18.28 0c-0.39,0 -0.7,0.31 -0.7,0.7l0 1.41c0,0.39 0.32,0.7 0.7,0.7z"/>
  </g>
 </g>
</svg>
