<?xml version="1.0" encoding="UTF-8"?>
<!DOCTYPE svg PUBLIC "-//W3C//DTD SVG 1.1//EN" "http://www.w3.org/Graphics/SVG/1.1/DTD/svg11.dtd">
<!-- Creator: CorelDRAW -->
<svg xmlns="http://www.w3.org/2000/svg" xml:space="preserve" width="25.3866mm" height="27.125mm" version="1.1" style="shape-rendering:geometricPrecision; text-rendering:geometricPrecision; image-rendering:optimizeQuality; fill-rule:evenodd; clip-rule:evenodd"
viewBox="0 0 20.96 22.39"
 xmlns:xlink="http://www.w3.org/1999/xlink"
 xmlns:xodm="http://www.corel.com/coreldraw/odm/2003">
 <defs>
  <style type="text/css">
   <![CDATA[
    .fil0 {fill:black;fill-rule:nonzero}
   ]]>
  </style>
 </defs>
 <g id="Capa_x0020_1">
  <metadata id="CorelCorpID_0Corel-Layer"/>
  <g id="_2946468348880">
   <path class="fil0" d="M20.25 5.98l-5.29 -5.29c-0.71,-0.73 -0.57,-0.69 -1.66,-0.69l-7.11 0c-1.71,0 -2.51,0.8 -2.51,2.51l0 6.73 -2.72 -0c-0.53,0 -0.95,0.43 -0.95,0.95l0 5.48c0,0.53 0.43,0.95 0.95,0.95l2.72 0 0 3.26c0,1.71 0.8,2.51 2.51,2.51l12.26 0c1.71,0 2.51,-0.8 2.51,-2.51l0 -12.05c0,-1.3 0.08,-1.08 -0.71,-1.85zm-17.1 8.83l0 -3.75c0,-0.19 0.16,-0.35 0.35,-0.35l1.13 0c0.81,0 1.48,0.66 1.48,1.48l0 0.05c0,0.81 -0.66,1.48 -1.48,1.48l-0.78 0 0 1.1c0,0.19 -0.16,0.35 -0.35,0.35 -0.19,-0 -0.35,-0.16 -0.35,-0.35zm3.77 0l0 -3.75c0,-0.19 0.16,-0.35 0.35,-0.35l1.13 0c0.81,0 1.48,0.66 1.48,1.48l0 1.5c0,0.81 -0.66,1.48 -1.48,1.48l-1.13 0c-0.19,0 -0.35,-0.16 -0.35,-0.35zm6.16 -2.43c0.19,0 0.35,0.16 0.35,0.35 0,0.19 -0.16,0.35 -0.35,0.35l-1.63 0 0 1.73c0,0.19 -0.16,0.35 -0.35,0.35 -0.19,0 -0.35,-0.16 -0.35,-0.35l0 -3.75c0,-0.19 0.16,-0.35 0.35,-0.35l2.25 0c0.19,0 0.35,0.16 0.35,0.35 0,0.19 -0.16,0.35 -0.35,0.35l-1.9 0 0 0.97 1.63 0 0 0zm6.6 7.18c0,1.32 -0.49,1.56 -1.81,1.56l-11.35 0c-1.32,0 -1.56,-0.49 -1.56,-1.81l0 -2.68 10.94 0c0.53,0 0.95,-0.43 0.95,-0.95l0 -5.48c0,-0.53 -0.43,-0.95 -0.95,-0.95l-10.94 0 0 -6.15c0,-1.32 0.24,-1.81 1.56,-1.81l7.26 0 0 4.86c0,0.58 0.47,1.05 1.05,1.05l4.86 0 0 12.37 0 0zm-15.06 -6.54l-0.78 0 0 -1.6 0.78 0c0.43,0 0.78,0.35 0.78,0.78l0 0.05c0,0.43 -0.35,0.78 -0.78,0.78zm3.77 1.45l-0.78 0 0 -3.05 0.78 0c0.43,0 0.78,0.35 0.78,0.78l0 1.5c0,0.43 -0.35,0.78 -0.78,0.78z"/>
  </g>
 </g>
</svg>
