<?xml version="1.0" encoding="UTF-8"?>
<!DOCTYPE svg PUBLIC "-//W3C//DTD SVG 1.1//EN" "http://www.w3.org/Graphics/SVG/1.1/DTD/svg11.dtd">
<!-- Creator: CorelDRAW -->
<svg xmlns="http://www.w3.org/2000/svg" xml:space="preserve" width="21.095mm" height="27.2475mm" version="1.1" style="shape-rendering:geometricPrecision; text-rendering:geometricPrecision; image-rendering:optimizeQuality; fill-rule:evenodd; clip-rule:evenodd"
viewBox="0 0 44.87 57.96"
 xmlns:xlink="http://www.w3.org/1999/xlink"
 xmlns:xodm="http://www.corel.com/coreldraw/odm/2003">
 <defs>
  <style type="text/css">
   <![CDATA[
    .fil0 {fill:black;fill-rule:nonzero}
   ]]>
  </style>
 </defs>
 <g id="Capa_x0020_1">
  <metadata id="CorelCorpID_0Corel-Layer"/>
  <g id="_1826521203616">
   <path class="fil0" d="M37.26 39.13c0.37,-0.23 0.72,-0.51 1.04,-0.83 1.63,-1.63 2.12,-3.97 1.28,-6.11l-0.04 -0.09c-0.68,-1.73 0.12,-3.66 1.82,-4.4l0.08 -0.03c0.01,-0 0.01,-0 0.01,-0.01 2.11,-0.92 3.42,-2.92 3.42,-5.22 0,-2.3 -1.31,-4.3 -3.41,-5.22l-0.07 -0.03c-0.01,-0 -0.02,-0.01 -0.02,-0.01 -1.71,-0.74 -2.51,-2.68 -1.82,-4.41l0.03 -0.08c0.85,-2.15 0.36,-4.49 -1.27,-6.12 -1.63,-1.63 -3.97,-2.12 -6.11,-1.27 -0.01,0 -0.02,0.01 -0.03,0.01l-0.07 0.03c-1.73,0.67 -3.66,-0.13 -4.39,-1.82l-0.04 -0.08c-0,-0 -0,-0.01 -0.01,-0.01 -0.92,-2.12 -2.92,-3.43 -5.22,-3.43 -2.3,0 -4.31,1.31 -5.22,3.42 -0,0.01 -0,0.01 -0.01,0.01l-0.03 0.07c-0.74,1.7 -2.67,2.5 -4.39,1.83l-0.07 -0.03c-0.01,-0.01 -0.02,-0.01 -0.03,-0.01 -2.14,-0.84 -4.49,-0.35 -6.11,1.27 -1.63,1.63 -2.12,3.97 -1.28,6.11l0.04 0.09c0.68,1.73 -0.12,3.66 -1.82,4.41 -0.01,0 -0.02,0.01 -0.02,0.01l-0.07 0.03c-2.11,0.92 -3.41,2.92 -3.41,5.22 0,2.3 1.31,4.31 3.42,5.22 0.01,0 0.01,0 0.01,0.01l0.08 0.03c1.7,0.74 2.5,2.68 1.82,4.41l-0.03 0.08c-0.84,2.14 -0.35,4.49 1.27,6.12 0.32,0.32 0.67,0.6 1.04,0.83l-6.51 11.28c-0.23,0.4 -0.2,0.89 0.08,1.26 0.28,0.36 0.75,0.52 1.19,0.41l6.88 -1.84 1.84 6.88c0.12,0.44 0.49,0.77 0.95,0.83 0.05,0.01 0.1,0.01 0.15,0.01 0.4,0 0.77,-0.21 0.98,-0.57l7.4 -12.82c0.58,0.2 1.21,0.3 1.86,0.3l0.01 0c0.65,0 1.28,-0.11 1.87,-0.3l7.4 12.82c0.2,0.35 0.58,0.57 0.98,0.57 0.05,0 0.1,-0 0.15,-0.01 0.45,-0.06 0.83,-0.39 0.95,-0.83l1.84 -6.88 6.88 1.84c0.44,0.12 0.91,-0.04 1.19,-0.41 0.28,-0.36 0.31,-0.86 0.08,-1.26l-6.52 -11.28zm-24.69 14.76l-1.43 -5.34c-0.16,-0.6 -0.78,-0.96 -1.39,-0.8l-5.34 1.43 5.35 -9.26c0.96,0.14 1.95,0.03 2.91,-0.35l0.09 -0.04c1.73,-0.68 3.66,0.12 4.4,1.82l0.03 0.08c0,0.01 0,0.01 0.01,0.01 0.34,0.77 0.82,1.44 1.41,1.97l-6.04 10.47zm9.86 -11.28l-0.01 0c-1.4,0 -2.58,-0.77 -3.14,-2.06l-0.03 -0.08c-0,-0 -0,-0.01 -0.01,-0.01 -1.23,-2.83 -4.44,-4.16 -7.3,-3.03l-0.09 0.04c-0.77,0.3 -1.56,0.33 -2.28,0.1 -0.01,-0 -0.02,-0.01 -0.02,-0.01 -0.5,-0.16 -0.97,-0.45 -1.38,-0.86 -1,-1 -1.28,-2.38 -0.76,-3.7l0.03 -0.07c1.13,-2.87 -0.2,-6.08 -3.03,-7.31 -0.01,-0 -0.01,-0 -0.01,-0.01l-0.08 -0.03c-1.29,-0.56 -2.06,-1.74 -2.06,-3.15 0,-1.41 0.77,-2.59 2.06,-3.15 0.01,-0 0.02,-0.01 0.02,-0.01l0.07 -0.03c2.82,-1.23 4.15,-4.44 3.02,-7.3l-0.04 -0.09c-0.52,-1.31 -0.23,-2.69 0.77,-3.69 0.99,-0.99 2.37,-1.28 3.67,-0.77l0.07 0.03c0.01,0.01 0.02,0.01 0.03,0.01 2.87,1.13 6.08,-0.2 7.31,-3.04l0.03 -0.08c0.56,-1.29 1.74,-2.06 3.15,-2.06 1.41,0 2.59,0.77 3.15,2.06l0.04 0.09c0.93,2.15 3.01,3.43 5.21,3.43 0.7,0 1.41,-0.13 2.1,-0.4 0.01,-0 0.02,-0.01 0.03,-0.01l0.07 -0.03c1.31,-0.51 2.68,-0.22 3.68,0.77 1,1 1.28,2.37 0.76,3.69l-0.03 0.08c-1.13,2.87 0.19,6.07 3.02,7.31l0.07 0.03c0.01,0 0.01,0.01 0.02,0.01 1.29,0.56 2.06,1.74 2.06,3.15 0,1.41 -0.77,2.59 -2.06,3.15l-0.08 0.03c-0.01,0 -0.01,0 -0.01,0.01 -2.83,1.23 -4.16,4.44 -3.03,7.3l0.04 0.09c0.52,1.31 0.23,2.69 -0.77,3.69 -0.41,0.41 -0.88,0.69 -1.39,0.86 -0,0 -0,0 -0,0 -0.73,0.23 -1.53,0.21 -2.3,-0.1l-0.08 -0.04c-2.87,-1.13 -6.08,0.2 -7.31,3.04l-0.03 0.07c-0.56,1.29 -1.74,2.07 -3.15,2.07l-0 -0zm12.68 5.14c-0.29,-0.08 -0.6,-0.04 -0.86,0.11 -0.26,0.15 -0.45,0.4 -0.53,0.69l-1.43 5.34 -6.05 -10.47c0.59,-0.54 1.07,-1.2 1.41,-1.98l0.03 -0.07c0.74,-1.71 2.68,-2.51 4.42,-1.82l0.07 0.03c0.96,0.38 1.96,0.49 2.92,0.35l5.35 9.26 -5.34 -1.43zm-0.72 -25.32c0,-6.59 -5.36,-11.96 -11.96,-11.96 -6.6,0 -11.96,5.36 -11.96,11.96 0,6.6 5.37,11.96 11.96,11.96 6.59,-0 11.96,-5.37 11.96,-11.96zm-11.96 9.7c-5.35,0 -9.7,-4.35 -9.7,-9.7 0,-5.35 4.35,-9.69 9.7,-9.69 5.35,0 9.69,4.35 9.69,9.69 0,5.35 -4.35,9.7 -9.69,9.7zm5.36 -13.8c0.46,0.43 0.48,1.14 0.05,1.6l-6.18 6.56c-0.21,0.23 -0.51,0.35 -0.82,0.35l-0.03 0c-0.32,-0.01 -0.62,-0.15 -0.83,-0.4l-2.97 -3.51c-0.41,-0.48 -0.34,-1.19 0.13,-1.59 0.48,-0.41 1.19,-0.34 1.59,0.13l2.16 2.55 5.32 -5.64c0.43,-0.46 1.14,-0.48 1.6,-0.05l0 0z"/>
  </g>
 </g>
</svg>
