<?xml version="1.0"?>
<svg width="640" height="480" xmlns="http://www.w3.org/2000/svg" xmlns:svg="http://www.w3.org/2000/svg" xmlns:xlink="http://www.w3.org/1999/xlink">
 <!-- Created with SVG-edit - https://github.com/SVG-Edit/svgedit-->
 <defs>
  <symbol id="svg_28" viewBox="0 0 48 60" x="0px" xmlns="http://www.w3.org/2000/svg" y="0px">
   <path d="m43.75,7.58l-2.26,0l0,-2.26c0,-0.55 -0.45,-1 -1,-1s-1,0.45 -1,1l0,2.26l-2.26,0c-0.55,0 -1,0.45 -1,1s0.45,1 1,1l2.26,0l0,2.26c0,0.55 0.45,1 1,1s1,-0.45 1,-1l0,-2.26l2.26,0c0.55,0 1,-0.45 1,-1s-0.45,-1 -1,-1z"/>
   <path d="m34.76,23.79c1.63,-1.37 2.66,-3.43 2.66,-5.73c0,-4.1 -3.29,-7.44 -7.33,-7.44c-1.83,0 -3.58,0.71 -4.91,1.93c-1.57,-2.81 -4.55,-4.61 -7.84,-4.61c-4.96,0 -9,4.04 -9,9c0,3.11 1.59,5.86 3.99,7.47c-4.4,1.29 -7.59,4.98 -7.59,9.33l0,8.94c0,0.55 0.45,1 1,1l23.2,0c0.55,0 1,-0.45 1,-1l0,-1.85l10.49,0c0.55,0 1,-0.45 1,-1l0,-7.72c0,-4 -2.84,-7.36 -6.67,-8.33l0,0.01zm-4.67,-11.18c2.94,0 5.33,2.44 5.33,5.44s-2.39,5.44 -5.33,5.44c-1.91,0 -3.67,-1.06 -4.62,-2.73c0.02,-0.04 0.04,-0.09 0.06,-0.14c0.09,-0.2 0.17,-0.39 0.25,-0.59c0.08,-0.21 0.15,-0.42 0.21,-0.64c0.03,-0.1 0.06,-0.19 0.08,-0.29c0.18,-0.71 0.28,-1.43 0.28,-2.17c0,-0.13 -0.02,-0.26 -0.03,-0.39c0,-0.17 -0.02,-0.34 -0.04,-0.51c-0.02,-0.17 -0.04,-0.33 -0.06,-0.5c-0.05,-0.29 -0.11,-0.57 -0.18,-0.86c-0.01,-0.04 -0.01,-0.08 -0.03,-0.12c1.01,-1.22 2.5,-1.94 4.08,-1.94zm-6,12.45c-0.57,-0.27 -1.16,-0.48 -1.77,-0.65c0.75,-0.5 1.42,-1.11 2,-1.82c0.55,0.72 1.22,1.33 1.97,1.8c-0.51,0.29 -0.99,0.65 -1.46,1.06c-0.24,-0.13 -0.48,-0.27 -0.74,-0.4l0,0.01zm-13.75,-8.13c0,-3.86 3.14,-7 7,-7c2.98,0 5.63,1.9 6.61,4.72c0.26,0.75 0.39,1.52 0.39,2.28s-0.13,1.46 -0.36,2.16c-0.14,0.4 -0.3,0.8 -0.51,1.17c-0.01,0.02 0,0.05 -0.02,0.07c-1.18,2.12 -3.37,3.46 -5.77,3.58l-0.81,0c-3.64,-0.24 -6.54,-3.27 -6.54,-6.98l0.01,0zm17.6,24.75l-21.19,0l0,-7.94c0,-4.32 4.06,-7.83 9.04,-7.83l1.09,0c0.15,0 0.31,0.02 0.46,0.02c0.12,0 0.23,-0.02 0.35,-0.02l1.21,0c1.52,0 3.01,0.33 4.33,0.96c2.62,1.24 4.32,2.83 4.71,6.92l0,7.89zm11.49,-2.85l-9.49,0l0,-5.09s0,-0.06 0,-0.09c-0.3,-3.2 -1.32,-5.4 -3.35,-7.04c1.08,-0.82 2,-1.11 3.45,-1.11l2.46,0c3.83,0 6.94,2.97 6.94,6.62l0,6.72l-0.01,-0.01z"/>
   <text fill="#000000" font-family="&#x27;Helvetica Neue&#x27;, Helvetica, Arial-Unicode, Arial, Sans-serif" font-size="5px" font-weight="bold" x="0" y="63">Created by papergarden</text>
   <text fill="#000000" font-family="&#x27;Helvetica Neue&#x27;, Helvetica, Arial-Unicode, Arial, Sans-serif" font-size="5px" font-weight="bold" x="0" y="68">from the Noun Project</text>
  </symbol>
 </defs>
 <g class="layer">
  <title>Layer 1</title>
  <use id="svg_29" transform="matrix(1.51071 0 0 1.51071 -172.387 -49.4839)" xlink:href="#svg_28"/>
 </g>
</svg>