<?xml version="1.0" encoding="UTF-8"?>
<!DOCTYPE svg PUBLIC "-//W3C//DTD SVG 1.1//EN" "http://www.w3.org/Graphics/SVG/1.1/DTD/svg11.dtd">
<!-- Creator: CorelDRAW -->
<svg xmlns="http://www.w3.org/2000/svg" xml:space="preserve" width="27.125mm" height="27.125mm" version="1.1" style="shape-rendering:geometricPrecision; text-rendering:geometricPrecision; image-rendering:optimizeQuality; fill-rule:evenodd; clip-rule:evenodd"
viewBox="0 0 27.15 27.15"
 xmlns:xlink="http://www.w3.org/1999/xlink"
 xmlns:xodm="http://www.corel.com/coreldraw/odm/2003">
 <defs>
  <style type="text/css">
   <![CDATA[
    .fil0 {fill:black;fill-rule:nonzero}
   ]]>
  </style>
 </defs>
 <g id="Capa_x0020_1">
  <metadata id="CorelCorpID_0Corel-Layer"/>
  <g id="_2231648736352">
   <path class="fil0" d="M25.41 9.75l-1.75 0c-0.14,0 -0.27,-0.08 -0.33,-0.21 -0.06,-0.13 -0.02,-0.29 0.08,-0.39l1.31 -1.24c0.33,-0.32 0.52,-0.76 0.52,-1.23 -0,-0.46 -0.19,-0.9 -0.52,-1.23l-3.02 -3.02c-0.32,-0.29 -0.73,-0.44 -1.16,-0.45 -0.46,-0 -0.9,0.18 -1.22,0.5l-1.24 1.24c-0.1,0.15 -0.3,0.19 -0.46,0.1 -0.12,-0.06 -0.2,-0.18 -0.21,-0.32l0 -1.77c0,-0.46 -0.18,-0.9 -0.51,-1.23 -0.33,-0.33 -0.77,-0.51 -1.23,-0.51l-4.18 0c-0.96,0 -1.74,0.78 -1.74,1.74l0 1.75c0,0.14 -0.08,0.27 -0.21,0.33 -0.13,0.06 -0.29,0.02 -0.39,-0.08l-1.24 -1.23 0 0c-0.32,-0.33 -0.76,-0.52 -1.23,-0.52 -0.45,-0.02 -0.89,0.13 -1.23,0.43l-3.02 3.02c-0.32,0.33 -0.5,0.77 -0.5,1.23 -0,0.46 0.18,0.9 0.5,1.23l1.24 1.24c0.13,0.08 0.19,0.24 0.15,0.39 -0.06,0.12 -0.18,0.2 -0.32,0.21l-1.77 -0c-0.96,0 -1.74,0.78 -1.74,1.74l0 4.18c0,0.46 0.18,0.9 0.51,1.23 0.33,0.33 0.77,0.51 1.23,0.51l1.75 0c0.14,-0 0.27,0.08 0.33,0.21 0.06,0.13 0.02,0.29 -0.08,0.39l-1.31 1.24c-0.67,0.68 -0.67,1.77 0,2.45l3.02 3.02c0.33,0.32 0.77,0.5 1.23,0.5 0.46,0 0.9,-0.18 1.23,-0.5l1.24 -1.24c0.08,-0.13 0.24,-0.19 0.39,-0.15 0.12,0.06 0.2,0.18 0.21,0.32l0 1.77c0,0.46 0.18,0.9 0.51,1.23 0.33,0.33 0.77,0.51 1.23,0.51l4.18 0c0.46,0 0.9,-0.18 1.23,-0.51 0.33,-0.33 0.51,-0.77 0.51,-1.23l0 -1.75c-0,-0.14 0.08,-0.27 0.21,-0.33 0.13,-0.06 0.29,-0.02 0.39,0.08l1.24 1.23 0 -0c0.32,0.33 0.76,0.52 1.23,0.52 0.46,0 0.9,-0.18 1.23,-0.5l3.02 -2.95c0.67,-0.68 0.67,-1.77 0,-2.45l-1.24 -1.24c-0.13,-0.08 -0.19,-0.24 -0.15,-0.39 0.06,-0.12 0.18,-0.2 0.32,-0.21l1.77 0c0.46,0 0.9,-0.18 1.23,-0.51 0.33,-0.33 0.51,-0.77 0.51,-1.23l0 -4.18c0,-0.46 -0.18,-0.9 -0.51,-1.23 -0.33,-0.33 -0.77,-0.51 -1.23,-0.51l-0 0zm-0.35 5.57l-1.39 0 0 -0c-0.99,0.01 -1.87,0.6 -2.25,1.52 -0.38,0.91 -0.17,1.96 0.53,2.66l1 0.99 -2.41 2.45 -1.06 -1c-0.7,-0.7 -1.75,-0.9 -2.66,-0.53 -0.91,0.38 -1.51,1.26 -1.51,2.25l0 1.39 -3.48 -0 0 -1.39c-0.01,-0.99 -0.6,-1.88 -1.51,-2.25 -0.91,-0.38 -1.96,-0.17 -2.66,0.53l-0.99 1 -2.44 -2.4 1 -1.06c0.7,-0.7 0.9,-1.75 0.53,-2.66 -0.38,-0.91 -1.26,-1.51 -2.25,-1.51l-1.39 0 0 -3.48 1.39 0c0.98,-0.02 1.85,-0.61 2.22,-1.51 0.37,-0.9 0.18,-1.94 -0.5,-2.64l-1 -0.99 2.46 -2.46 0.99 1c0.7,0.7 1.75,0.9 2.66,0.53 0.91,-0.38 1.51,-1.26 1.51,-2.25l0 -1.39 3.48 0 0 1.39c0.01,0.99 0.6,1.88 1.51,2.25 0.91,0.38 1.96,0.17 2.66,-0.53l1.03 -1 2.46 2.46 -1.07 0.99c-0.7,0.7 -0.9,1.75 -0.53,2.66 0.38,0.91 1.26,1.51 2.25,1.51l1.39 0 0.01 3.47zm-11.49 -6.96c-1.38,0 -2.71,0.55 -3.69,1.53 -0.98,0.98 -1.53,2.31 -1.53,3.69 0,1.39 0.55,2.71 1.53,3.69 0.98,0.98 2.31,1.53 3.69,1.53 1.39,0 2.71,-0.55 3.69,-1.53 0.98,-0.98 1.53,-2.31 1.53,-3.69 0,-1.39 -0.55,-2.71 -1.53,-3.69 -0.98,-0.98 -2.31,-1.53 -3.69,-1.53zm0 8.35c-1.27,0 -2.41,-0.76 -2.89,-1.93 -0.49,-1.17 -0.22,-2.52 0.68,-3.41 0.9,-0.9 2.24,-1.16 3.41,-0.68 1.17,0.48 1.93,1.63 1.93,2.89 0,1.73 -1.4,3.13 -3.13,3.13z"/>
  </g>
 </g>
</svg>
