<svg xmlns="http://www.w3.org/2000/svg" version="1.1" viewBox="-5.0 -10.0 110.0 135.0">
 <path d="m85.418 38.543h-5.25c-0.42969 0.007812-0.82031-0.23828-1-0.625-0.17188-0.40234-0.070313-0.87109 0.25-1.168l3.9141-3.707c1-0.95703 1.5586-2.2852 1.543-3.668-0.007812-1.3789-0.5625-2.6953-1.543-3.668l-9.0391-9.0391c-0.95312-0.85547-2.1836-1.3281-3.4609-1.3359-1.3711-0.011719-2.6953 0.53125-3.6641 1.5l-3.7109 3.7109c-0.3125 0.4375-0.91016 0.5625-1.375 0.28906-0.37109-0.17188-0.61328-0.54297-0.625-0.95703v-5.293c0-1.3789-0.54688-2.7031-1.5234-3.6797-0.97656-0.98047-2.3008-1.5273-3.6836-1.5273h-12.5c-2.875 0-5.207 2.332-5.207 5.207v5.25c0.007812 0.42969-0.23828 0.82031-0.625 1-0.40234 0.17188-0.87109 0.070313-1.168-0.25l-3.707-3.668v0.003907c-0.95703-1-2.2852-1.5586-3.668-1.543-1.3438-0.058594-2.6562 0.40234-3.668 1.293l-9.0391 9.0391c-0.96484 0.97656-1.5039 2.2969-1.5 3.668-0.011719 1.375 0.52734 2.6953 1.5 3.668l3.707 3.707c0.39453 0.24219 0.58203 0.71875 0.45703 1.168-0.17188 0.37109-0.54297 0.61328-0.95703 0.625h-5.293c-2.875 0-5.207 2.332-5.207 5.207v12.5c0 1.3828 0.54688 2.707 1.5273 3.6836 0.97656 0.97656 2.3008 1.5234 3.6797 1.5234h5.25c0.42969-0.007812 0.82031 0.23828 1 0.625 0.17188 0.40234 0.070313 0.87109-0.25 1.168l-3.9141 3.707c-1.9922 2.0391-1.9922 5.2969 0 7.3359l9.0391 9.0391c0.97656 0.96484 2.2969 1.5039 3.668 1.5 1.375 0.011719 2.6953-0.52734 3.668-1.5l3.707-3.707c0.24219-0.39453 0.71875-0.58203 1.168-0.45703 0.37109 0.17188 0.61328 0.54297 0.625 0.95703v5.293c0 1.3789 0.54688 2.7031 1.5234 3.6797 0.97656 0.98047 2.3008 1.5273 3.6836 1.5273h12.5c1.3828 0 2.707-0.54688 3.6836-1.5273 0.97656-0.97656 1.5234-2.3008 1.5234-3.6797v-5.25c-0.007812-0.42969 0.23828-0.82031 0.625-1 0.40234-0.17188 0.87109-0.070313 1.168 0.25l3.707 3.668v-0.003907c0.95703 1 2.2852 1.5586 3.668 1.543 1.3711 0.003906 2.6914-0.53516 3.668-1.5l9.0391-8.832c1.9922-2.0391 1.9922-5.2969 0-7.3359l-3.707-3.707c-0.39453-0.24219-0.58203-0.71875-0.45703-1.168 0.17188-0.37109 0.54297-0.61328 0.95703-0.625h5.293c1.3789 0 2.7031-0.54688 3.6797-1.5234 0.98047-0.97656 1.5273-2.3008 1.5273-3.6836v-12.5c0-1.3828-0.54688-2.707-1.5273-3.6836-0.97656-0.97656-2.3008-1.5234-3.6797-1.5234zm-1.043 16.668h-4.168v-0.003907c-2.9531 0.015625-5.6094 1.8047-6.7383 4.5352-1.1289 2.7305-0.50781 5.8711 1.5742 7.9648l3 2.957-7.2109 7.3359-3.1641-3c-2.0977-2.082-5.2383-2.7031-7.9688-1.5742-2.7305 1.1289-4.5156 3.7852-4.5312 6.7422v4.168h-10.418v-4.168c-0.015625-2.957-1.8008-5.6133-4.5312-6.7422-2.7305-1.1289-5.8711-0.50781-7.9688 1.5742l-2.957 3-7.293-7.168 3-3.1641c2.082-2.0977 2.7031-5.2383 1.5742-7.9688-1.1289-2.7305-3.7852-4.5156-6.7422-4.5312h-4.168v-10.418h4.168c2.918-0.046875 5.5312-1.8203 6.6523-4.5156s0.53906-5.7969-1.4844-7.9023l-3-2.957 7.375-7.375 2.957 3c2.0977 2.082 5.2383 2.7031 7.9688 1.5742 2.7305-1.1289 4.5156-3.7852 4.5312-6.7422v-4.168h10.418v4.168c0.015625 2.957 1.8008 5.6133 4.5312 6.7422 2.7305 1.1289 5.8711 0.50781 7.9688-1.5742l3.082-3 7.375 7.375-3.207 2.957c-2.082 2.0977-2.7031 5.2383-1.5742 7.9688 1.1289 2.7305 3.7852 4.5156 6.7422 4.5312h4.168zm-34.375-20.836c-4.1445 0-8.1172 1.6445-11.047 4.5781-2.9336 2.9297-4.5781 6.9023-4.5781 11.047s1.6445 8.1172 4.5781 11.047c2.9297 2.9336 6.9023 4.5781 11.047 4.5781s8.1172-1.6445 11.047-4.5781c2.9336-2.9297 4.5781-6.9023 4.5781-11.047s-1.6445-8.1172-4.5781-11.047c-2.9297-2.9336-6.9023-4.5781-11.047-4.5781zm0 25c-3.793 0-7.2109-2.2852-8.6602-5.7891-1.4531-3.5-0.64844-7.5352 2.0312-10.215 2.6797-2.6797 6.7148-3.4844 10.215-2.0312 3.5039 1.4492 5.7891 4.8672 5.7891 8.6602 0 5.1758-4.1992 9.375-9.375 9.375z"/>
<text x="0.0" y="117.5" font-size="5.0" font-weight="bold" font-family="Arbeit Regular, Helvetica, Arial-Unicode, Arial, Sans-serif" fill="#000000">Created by Dwi ridwanto</text><text x="0.0" y="122.5" font-size="5.0" font-weight="bold" font-family="Arbeit Regular, Helvetica, Arial-Unicode, Arial, Sans-serif" fill="#000000">from Noun Project</text></svg>