<?xml version="1.0" encoding="UTF-8"?>
<!DOCTYPE svg PUBLIC "-//W3C//DTD SVG 1.1//EN" "http://www.w3.org/Graphics/SVG/1.1/DTD/svg11.dtd">
<!-- Creator: CorelDRAW -->
<svg xmlns="http://www.w3.org/2000/svg" xml:space="preserve" width="0.67063in" height="1.05217in" version="1.1" style="shape-rendering:geometricPrecision; text-rendering:geometricPrecision; image-rendering:optimizeQuality; fill-rule:evenodd; clip-rule:evenodd"
viewBox="0 0 7 10.98"
 xmlns:xlink="http://www.w3.org/1999/xlink"
 xmlns:xodm="http://www.corel.com/coreldraw/odm/2003">
 <defs>
  <style type="text/css">
   <![CDATA[
    .fil0 {fill:black;fill-rule:nonzero}
   ]]>
  </style>
 </defs>
 <g id="Capa_x0020_1">
  <metadata id="CorelCorpID_0Corel-Layer"/>
  <g id="_2288223526560">
   <path class="fil0" d="M5.55 2.3c-0.84,-3.42 -5.46,-2.87 -5.55,0.69l0 7.65c0.01,0.45 0.87,0.46 0.89,0l0 -7.65c0.06,-2.38 3.09,-3.02 3.77,-0.64 0.19,-0.09 0.63,-0.12 0.89,-0.05z"/>
   <path class="fil0" d="M3.3 4.12c-0.03,0.07 -0,0.12 0.02,0.15 0.01,0.02 0.06,0.08 0.13,0.08l3.38 0c0.08,0 0.12,-0.05 0.13,-0.08 0.02,-0.03 0.04,-0.08 0.02,-0.15 -0.66,-1.74 -3.02,-1.74 -3.67,0l-0 0z"/>
   <path class="fil0" d="M6.68 4.97c-0.18,0 -0.32,0.15 -0.32,0.34l0 1.22c0.01,0.45 0.63,0.45 0.64,0l0 -1.22c0,-0.19 -0.14,-0.34 -0.32,-0.34l-0 0z"/>
   <path class="fil0" d="M5.18 4.97c-0.18,0 -0.32,0.15 -0.32,0.34l0 1.22c0.01,0.45 0.63,0.45 0.64,0l0 -1.22c0,-0.19 -0.14,-0.34 -0.32,-0.34l-0 0z"/>
   <path class="fil0" d="M3.61 4.97c-0.18,0 -0.32,0.15 -0.32,0.34l0 1.22c0.01,0.45 0.63,0.45 0.64,0l0 -1.22c0,-0.19 -0.14,-0.34 -0.32,-0.34l-0 0z"/>
  </g>
 </g>
</svg>
