<?xml version="1.0" encoding="UTF-8"?>
<!DOCTYPE svg PUBLIC "-//W3C//DTD SVG 1.1//EN" "http://www.w3.org/Graphics/SVG/1.1/DTD/svg11.dtd">
<!-- Creator: CorelDRAW -->
<svg xmlns="http://www.w3.org/2000/svg" xml:space="preserve" width="32.352mm" height="19.9098mm" version="1.1" style="shape-rendering:geometricPrecision; text-rendering:geometricPrecision; image-rendering:optimizeQuality; fill-rule:evenodd; clip-rule:evenodd"
viewBox="0 0 3711.87 2284.33"
 xmlns:xlink="http://www.w3.org/1999/xlink"
 xmlns:xodm="http://www.corel.com/coreldraw/odm/2003">
 <defs>
  <style type="text/css">
   <![CDATA[
    .fil1 {fill:black}
    .fil0 {fill:black;fill-rule:nonzero}
   ]]>
  </style>
 </defs>
 <g id="Capa_x0020_1">
  <metadata id="CorelCorpID_0Corel-Layer"/>
  <g id="_2518469003040">
   <path class="fil0" d="M1855.94 0c225,0 440.67,36.75 640.26,98.04l-208.06 208.12c-386.4,-74.89 -542.18,-93.51 -1118.45,109.48 -171.53,65.51 -327.46,151.04 -461.01,245.68 -148.06,104.83 -261.26,215.83 -334.59,313.33 -36.53,48.61 -60.38,90.17 -74.26,122.33 -12.3,28.49 -14.02,43.05 -14.24,45.16 0.06,1.02 0.54,4.85 2.32,11.66 0.81,3.24 1.94,7.07 3.45,11.65 2.05,6.05 4.75,13.33 8.47,21.91 13.87,32.16 37.72,73.65 74.26,122.27 73.33,97.5 186.52,208.48 334.59,313.33 50.35,35.67 103.77,70.03 160.1,102.53l-208.07 208.16c-404.04,-250.74 -660.71,-579.93 -660.71,-791.5 0,-380.68 830.95,-1142.13 1855.94,-1142.13z"/>
   <path class="fil0" d="M868.78 1725.47l-208.07 208.16c354.34,220.53 811.1,340.37 1195.23,350.63 822.47,7.77 1855.94,-761.41 1855.94,-1142.13 0,-184.86 -342.48,-544.55 -525.01,-678.2 -182.54,-133.65 -327.1,-240.38 -690.66,-365.89l-208.06 208.12c318.02,87.9 560.51,242.11 715.05,355.16 154.54,113.04 407.76,331.41 423.08,480.82 -47.97,288.95 -1137.32,894.99 -1571.52,884.97 -132.2,-3.07 -623.65,-77.16 -985.97,-301.62z"/>
   <g>
    <path class="fil1" d="M1851.15 210.49c509.64,0 922.78,413.15 922.78,922.78 0,509.64 -413.15,922.78 -922.78,922.78 -509.64,0 -922.78,-413.15 -922.78,-922.78 0,-509.64 413.15,-922.78 922.78,-922.78zm-656.93 914.37c0,428.94 322.1,666.94 669.36,665.11 368.59,-1.94 649.57,-288.87 649.08,-654.09 -0.47,-356.57 -275.57,-679.04 -670.09,-669.97 -378.06,8.71 -638.74,280.86 -648.35,658.94z"/>
    <circle class="fil1" cx="1851.15" cy="1133.27" r="419.27"/>
   </g>
  </g>
 </g>
</svg>
