<?xml version="1.0" encoding="UTF-8"?>
<!DOCTYPE svg PUBLIC "-//W3C//DTD SVG 1.1//EN" "http://www.w3.org/Graphics/SVG/1.1/DTD/svg11.dtd">
<!-- Creator: CorelDRAW -->
<svg xmlns="http://www.w3.org/2000/svg" xml:space="preserve" width="24.2433mm" height="27.2742mm" version="1.1" style="shape-rendering:geometricPrecision; text-rendering:geometricPrecision; image-rendering:optimizeQuality; fill-rule:evenodd; clip-rule:evenodd"
viewBox="0 0 66.76 75.1"
 xmlns:xlink="http://www.w3.org/1999/xlink"
 xmlns:xodm="http://www.corel.com/coreldraw/odm/2003"
 data-name="Layer 1">
 <defs>
  <style type="text/css">
   <![CDATA[
    .fil0 {fill:black}
   ]]>
  </style>
 </defs>
 <g id="Capa_x0020_1">
  <metadata id="CorelCorpID_0Corel-Layer"/>
  <g id="_2485094729600">
   <path class="fil0" d="M33.4 37.97c0,0 0,-0 0,-0 0,-1.21 0.98,-2.2 2.2,-2.2 0,0 0,0 0,0l22.49 -0c1.22,0 2.2,0.99 2.2,2.2 0,1.22 -0.99,2.2 -2.2,2.2l-22.49 0c-1.22,0 -2.2,-0.99 -2.2,-2.2zm0 -6.64c-0,0 -0,-0 -0,-0 0,-1.21 0.98,-2.2 2.2,-2.2 0,0 0,0 0,0l22.49 0c1.2,0.02 2.16,1 2.16,2.2 0,1.2 -0.96,2.18 -2.16,2.2l-22.49 0c-1.22,0 -2.2,-0.99 -2.2,-2.2zm0 -6.64c0,-0 0,-0 0,-0 0,-1.21 0.98,-2.2 2.2,-2.2 0,0 0,0 0,0l22.49 0c1.22,0 2.2,0.99 2.2,2.2 0,1.22 -0.99,2.2 -2.2,2.2l-22.49 0c-0,-0 -0,-0 -0,-0 -1.21,0 -2.2,-0.98 -2.2,-2.2 0,-0 0,-0 0,-0l0 0zm-3.99 42.06c0,-0 0,0 0,0 0,1.21 -0.98,2.2 -2.2,2.2 -0,0 -0,0 -0,0l-5.57 0c-1.21,-0 -2.2,-0.99 -2.2,-2.2 0,-1.21 0.98,-2.2 2.2,-2.2l5.57 0c0,-0 0,-0 0,-0 1.21,0 2.2,0.98 2.2,2.2l-0 0zm32.95 -24.33l0 -22.17 -31.03 0 0 22.17 3.94 0c0,0 0,0 0,0 1.09,0 2.02,0.8 2.18,1.89l0.39 2.72 2.97 -3.76c0.42,-0.53 1.05,-0.84 1.73,-0.84l19.82 0zm-17.91 15.97l0 -11.57 -0.84 0 -5.48 6.94c-0.42,0.53 -1.05,0.83 -1.73,0.83 -1.09,0 -2.02,-0.8 -2.18,-1.88l-0.86 -5.9 -4.23 0c-0,0 -0,0 -0,0 -1.21,0 -2.2,-0.98 -2.2,-2.2 0,-0 0,-0 0,-0l0 -26.57c0,-0 0,-0 0,-0 0,-1.21 0.98,-2.2 2.2,-2.2 0,0 0,0 0,0l15.31 0 0 -9.98c-0,-0.81 -0.66,-1.47 -1.47,-1.47l-4.29 0 -1.67 5.15c-0.29,0.91 -1.14,1.52 -2.09,1.52l-21 0c0,0 -0,0 -0,0 -0.95,0 -1.8,-0.61 -2.09,-1.52l-1.68 -5.15 -4.29 0c-0.81,0 -1.47,0.66 -1.47,1.47l-0 52.51 40.04 0zm-1.47 12.32c0,-0 0,-0 0,-0 0.81,0 1.47,-0.66 1.47,-1.47 0,0 0,0 0,0l0 -6.45 -40.04 0 0 6.45c0,0.81 0.66,1.47 1.47,1.47l37.11 0zm-8.92 -66.3l-0.74 2.27 -17.79 0 -0.74 -2.27 19.27 0zm8.92 -4.4l-37.11 0c-3.24,0 -5.86,2.63 -5.87,5.87l-0 63.37c0,3.24 2.63,5.86 5.87,5.87l37.11 0c3.24,-0 5.86,-2.63 5.87,-5.87l0 -22.42 15.71 0c1.21,-0 2.2,-0.98 2.2,-2.2l0 -26.57c-0,-1.21 -0.99,-2.2 -2.2,-2.2l-15.72 0 0 -9.98c-0,-3.24 -2.63,-5.86 -5.87,-5.87z"/>
  </g>
 </g>
</svg>
