<?xml version="1.0" encoding="UTF-8"?>
<!DOCTYPE svg PUBLIC "-//W3C//DTD SVG 1.1//EN" "http://www.w3.org/Graphics/SVG/1.1/DTD/svg11.dtd">
<!-- Creator: CorelDRAW -->
<svg xmlns="http://www.w3.org/2000/svg" xml:space="preserve" width="29.4986mm" height="27.1249mm" version="1.1" style="shape-rendering:geometricPrecision; text-rendering:geometricPrecision; image-rendering:optimizeQuality; fill-rule:evenodd; clip-rule:evenodd"
viewBox="0 0 27.36 25.16"
 xmlns:xlink="http://www.w3.org/1999/xlink"
 xmlns:xodm="http://www.corel.com/coreldraw/odm/2003">
 <defs>
  <style type="text/css">
   <![CDATA[
    .fil1 {fill:#2B2929}
    .fil0 {fill:#2B2929;fill-rule:nonzero}
   ]]>
  </style>
 </defs>
 <g id="Capa_x0020_1">
  <metadata id="CorelCorpID_0Corel-Layer"/>
  <path class="fil0" d="M13.71 2.18c6.77,-0 11.5,4.53 11.39,9.95 -0.11,5.54 -5.58,8.51 -11.16,8.87 0,0 -2.63,0.89 -3.29,1.19 0,0 0.23,-1.44 0.23,-1.44 -4.23,-0.43 -8.43,-4.04 -8.44,-9.23 -0.01,-4.85 5.32,-9.34 11.27,-9.34zm0.86 20.9c7.14,-0.39 12.98,-4.35 12.79,-11.53 -0.19,-7.17 -6.12,-11.55 -13.68,-11.55 -7.55,0 -13.81,5.21 -13.68,11.55 0.13,6.34 4.38,9.86 8.56,10.72l-0.49 2.89c2.32,-0.74 6.5,-2.08 6.5,-2.08z"/>
  <circle class="fil1" cx="7.96" cy="11.83" r="1.17"/>
  <circle class="fil1" cx="13.62" cy="11.83" r="1.17"/>
  <circle class="fil1" cx="19.32" cy="11.83" r="1.17"/>
 </g>
</svg>
