<?xml version="1.0" encoding="UTF-8"?>
<!DOCTYPE svg PUBLIC "-//W3C//DTD SVG 1.1//EN" "http://www.w3.org/Graphics/SVG/1.1/DTD/svg11.dtd">
<!-- Creator: CorelDRAW -->
<svg xmlns="http://www.w3.org/2000/svg" xml:space="preserve" width="28.515mm" height="27.2808mm" version="1.1" style="shape-rendering:geometricPrecision; text-rendering:geometricPrecision; image-rendering:optimizeQuality; fill-rule:evenodd; clip-rule:evenodd"
viewBox="0 0 82.06 78.51"
 xmlns:xlink="http://www.w3.org/1999/xlink"
 xmlns:xodm="http://www.corel.com/coreldraw/odm/2003"
 enable-background="new 0 0 64 64">
 <defs>
  <style type="text/css">
   <![CDATA[
    .fil0 {fill:black;fill-rule:nonzero}
   ]]>
  </style>
 </defs>
 <g id="Capa_x0020_1">
  <metadata id="CorelCorpID_0Corel-Layer"/>
  <g id="_1788997439168">
   <g>
    <path class="fil0" d="M70.4 15.39l1.62 7.79 4.09 2.55c-1.38,-3.74 -3.31,-7.22 -5.71,-10.34z"/>
    <path class="fil0" d="M39.25 70.89c-17.44,0 -31.64,-14.19 -31.64,-31.64 0,-17.44 14.19,-31.64 31.64,-31.64 5.68,0 11.01,1.5 15.62,4.13l3.14 -4.05c0.56,-0.73 1.25,-1.32 2.01,-1.75 -6.03,-3.78 -13.15,-5.96 -20.77,-5.96 -21.64,0 -39.25,17.61 -39.25,39.25 0,21.65 17.61,39.25 39.25,39.25 20.74,0 37.77,-16.16 39.16,-36.55l-7.71 0.8c-1.75,15.8 -15.18,28.14 -31.45,28.14z"/>
    <path class="fil0" d="M42.22 45.68l6.32 -0.65c-1.93,3.1 -5.36,5.16 -9.28,5.16 -6.03,0 -10.93,-4.89 -10.93,-10.93 0,-6.04 4.89,-10.93 10.93,-10.93 0.87,0 1.72,0.1 2.53,0.29l-5.27 6.79c-1.54,1.99 -1.83,4.58 -0.76,6.77 1.07,2.17 3.27,3.53 5.75,3.53 0.24,0 0.48,-0.01 0.72,-0.04z"/>
    <path class="fil0" d="M39.25 56.43c-9.47,0 -17.18,-7.71 -17.18,-17.18 0,-9.47 7.71,-17.18 17.18,-17.18 2.33,0 4.56,0.47 6.59,1.31l4.78 -6.17c-3.41,-1.76 -7.27,-2.76 -11.37,-2.76 -13.67,0 -24.8,11.12 -24.8,24.8 0,13.67 11.12,24.8 24.8,24.8 12.23,0 22.43,-8.91 24.44,-20.58l-8.01 0.82c-2.16,7.02 -8.7,12.14 -16.42,12.14z"/>
    <path class="fil0" d="M82.01 35.98c-0.16,0.71 -0.78,1.52 -2.02,1.65l-1.51 0.16 -7.6 0.78 -6.83 0.7 -7.64 0.79 -6.32 0.65 -8.29 0.85c-0.1,0.01 -0.2,0.01 -0.29,0.01 -0.9,0 -1.66,-0.45 -2.03,-1.21 -0.38,-0.77 -0.26,-1.67 0.32,-2.41l5.86 -7.56 3.83 -4.93 4.66 -6.02 4.19 -5.4 2.94 -3.8c0.48,-0.62 1.13,-0.96 1.84,-0.96 1.07,0 1.94,0.76 2.17,1.88l3.02 14.56c0.01,0.01 0.02,0.03 0.03,0.04l9.42 5.88 3.15 1.97c1.05,0.66 1.25,1.66 1.09,2.37z"/>
   </g>
  </g>
 </g>
</svg>
