<?xml version="1.0" encoding="UTF-8"?>
<!DOCTYPE svg PUBLIC "-//W3C//DTD SVG 1.1//EN" "http://www.w3.org/Graphics/SVG/1.1/DTD/svg11.dtd">
<!-- Creator: CorelDRAW -->
<svg xmlns="http://www.w3.org/2000/svg" xml:space="preserve" width="23.273mm" height="28.2658mm" version="1.1" style="shape-rendering:geometricPrecision; text-rendering:geometricPrecision; image-rendering:optimizeQuality; fill-rule:evenodd; clip-rule:evenodd"
viewBox="0 0 79.58 96.66"
 xmlns:xlink="http://www.w3.org/1999/xlink"
 xmlns:xodm="http://www.corel.com/coreldraw/odm/2003">
 <defs>
  <style type="text/css">
   <![CDATA[
    .fil0 {fill:black}
   ]]>
  </style>
 </defs>
 <g id="Capa_x0020_1">
  <metadata id="CorelCorpID_0Corel-Layer"/>
  <path class="fil0" d="M34.7 4.3c-15.41,2.37 -27.18,15.78 -27.18,31.87l0 11.4 -5.56 15.58c-0.61,1.69 -1.13,3.17 -1.47,4.41 -0.35,1.28 -0.63,2.72 -0.42,4.25 0.44,3.25 2.44,6.08 5.35,7.59 1.37,0.71 2.82,0.94 4.14,1.04 1.28,0.1 2.85,0.1 4.65,0.1l9.45 0c0,8.91 7.22,16.13 16.13,16.13 8.91,0 16.13,-7.22 16.13,-16.13l9.45 0c1.8,0 3.37,0 4.65,-0.1 1.32,-0.1 2.77,-0.32 4.14,-1.03 2.91,-1.51 4.91,-4.34 5.35,-7.59 0.21,-1.53 -0.07,-2.97 -0.42,-4.25 -0.34,-1.24 -0.87,-2.72 -1.47,-4.41l-5.56 -15.58 0 -11.4c0,-16.07 -11.75,-29.4 -27.12,-31.86 -1.67,-0.27 -0.88,-4.26 -4.86,-4.31 -4.26,-0.06 -3.22,3.97 -5.38,4.3zm13.15 76.23l-16.13 0c0,4.46 3.61,8.07 8.07,8.07 4.46,0 8.07,-3.61 8.07,-8.07zm17.37 -8.06c1.99,0 3.25,-0 4.19,-0.07 0.76,-0.06 1.01,-0.14 1.04,-0.16 0.58,-0.3 0.97,-0.87 1.06,-1.51 -0.01,0.07 0.04,-0.13 -0.2,-1.03 -0.25,-0.91 -0.67,-2.1 -1.34,-3.97l-5.72 -16.02c-0.16,-0.46 -0.27,-0.98 -0.27,-1.54l0 -12.01c0,-13.36 -10.83,-24.2 -24.2,-24.2 -13.36,0 -24.2,10.84 -24.2,24.2l0 12.01c0,0.56 -0.1,1.07 -0.27,1.54l-5.72 16.02c-0.67,1.87 -1.09,3.06 -1.34,3.97 -0.2,0.74 -0.2,1 -0.2,1.03 0.09,0.64 0.48,1.2 1.06,1.5 0.03,0.01 0.28,0.1 1.04,0.16 0.94,0.07 2.2,0.07 4.19,0.07l50.87 0z"/>
 </g>
</svg>
