<?xml version="1.0" encoding="UTF-8"?>
<!DOCTYPE svg PUBLIC "-//W3C//DTD SVG 1.1//EN" "http://www.w3.org/Graphics/SVG/1.1/DTD/svg11.dtd">
<!-- Creator: CorelDRAW -->
<svg xmlns="http://www.w3.org/2000/svg" xml:space="preserve" width="21.2372mm" height="27.2546mm" version="1.1" style="shape-rendering:geometricPrecision; text-rendering:geometricPrecision; image-rendering:optimizeQuality; fill-rule:evenodd; clip-rule:evenodd"
viewBox="0 0 149.41 191.75"
 xmlns:xlink="http://www.w3.org/1999/xlink"
 xmlns:xodm="http://www.corel.com/coreldraw/odm/2003">
 <defs>
  <style type="text/css">
   <![CDATA[
    .fil0 {fill:#C63437;fill-rule:nonzero}
   ]]>
  </style>
 </defs>
 <g id="Capa_x0020_1">
  <metadata id="CorelCorpID_0Corel-Layer"/>
  <g id="_2041521514320">
   <path class="fil0" d="M34.86 61.72l13.87 0 0 111.53 -13.87 0 0 -111.53zm32.91 0l13.87 0 0 111.53 -13.87 0 0 -111.53zm32.9 0l13.87 0 0 111.53 -13.87 0 0 -111.53zm-100.33 -17.96l0.05 0 8.15 6.83 0 129.66c0,6.35 5.14,11.5 11.5,11.5l109.34 0c6.35,0 11.5,-5.15 11.5,-11.5l0 -129.66 8.15 -6.83 0.05 0 0 -11.38 -148.73 0 0 11.38z"/>
   <path class="fil0" d="M89.65 13.16l-29.88 0 0 -3.13c0,-0.82 0.67,-1.49 1.49,-1.49l26.9 0c0.82,0 1.49,0.67 1.49,1.49l0 3.13zm56.96 2.84l-48.43 0 0 -11.33c0,-2.59 -2.09,-4.68 -4.68,-4.68l-37.6 0c-2.58,0 -4.68,2.09 -4.68,4.68l0 11.33 -48.43 0c-1.55,0 -2.8,1.25 -2.8,2.8l0 8.94 149.41 0 0 -8.94c0,-1.54 -1.25,-2.8 -2.8,-2.8z"/>
  </g>
 </g>
</svg>
