<?xml version="1.0" encoding="UTF-8"?>
<!DOCTYPE svg PUBLIC "-//W3C//DTD SVG 1.1//EN" "http://www.w3.org/Graphics/SVG/1.1/DTD/svg11.dtd">
<!-- Creator: CorelDRAW -->
<svg xmlns="http://www.w3.org/2000/svg" xml:space="preserve" width="1.10308in" height="1.10307in" version="1.1" style="shape-rendering:geometricPrecision; text-rendering:geometricPrecision; image-rendering:optimizeQuality; fill-rule:evenodd; clip-rule:evenodd"
viewBox="0 0 14.52 14.52"
 xmlns:xlink="http://www.w3.org/1999/xlink"
 xmlns:xodm="http://www.corel.com/coreldraw/odm/2003">
 <defs>
  <style type="text/css">
   <![CDATA[
    .fil1 {fill:#FEFEFE;fill-rule:nonzero}
    .fil0 {fill:url(#id0)}
   ]]>
  </style>
  <linearGradient id="id0" gradientUnits="userSpaceOnUse" x1="13.41" y1="1.12" x2="1.12" y2="13.41">
   <stop offset="0" style="stop-opacity:1; stop-color:#00B9E0"/>
   <stop offset="1" style="stop-opacity:1; stop-color:#3179BD"/>
  </linearGradient>
 </defs>
 <g id="Capa_x0020_1">
  <metadata id="CorelCorpID_0Corel-Layer"/>
  <path class="fil0" d="M-0 10.72l0 -6.92c0,-2.09 1.71,-3.8 3.8,-3.8l6.92 0c2.09,0 3.8,1.71 3.8,3.8l0 6.92c0,2.09 -1.71,3.8 -3.8,3.8l-6.92 0c-2.09,0 -3.8,-1.71 -3.8,-3.8z"/>
  <path class="fil1" d="M11.27 4.77c-0.25,0.11 -0.53,0.18 -0.8,0.23 0.13,-0.02 0.32,-0.26 0.39,-0.35 0.12,-0.14 0.21,-0.31 0.27,-0.49l-0 -0.04 -0.04 0c-0.3,0.16 -0.62,0.28 -0.95,0.36l-0.07 -0.02 -0.08 -0.09c-0.14,-0.12 -0.29,-0.21 -0.46,-0.28 -0.22,-0.09 -0.47,-0.13 -0.71,-0.11 -0.23,0.02 -0.46,0.08 -0.67,0.19 -0.21,0.11 -0.39,0.26 -0.54,0.44 -0.15,0.19 -0.26,0.41 -0.32,0.65 -0.06,0.23 -0.05,0.45 -0.02,0.68l-0.03 0.04c-1.3,-0.19 -2.39,-0.66 -3.26,-1.66 -0.04,-0.04 -0.06,-0.04 -0.09,0 -0.38,0.58 -0.2,1.5 0.28,1.96 0.06,0.06 0.13,0.12 0.2,0.18 -0.03,0 -0.35,-0.03 -0.63,-0.18l-0.06 0.03c-0,0.06 0,0.12 0.01,0.19 0.07,0.58 0.48,1.12 1.03,1.33 0.07,0.03 0.14,0.05 0.21,0.06 -0.13,0.03 -0.26,0.05 -0.62,0.02 -0.04,-0.01 -0.06,0.01 -0.04,0.06 0.27,0.74 0.86,0.96 1.3,1.09 0.06,0.01 0.12,0.01 0.18,0.02l-0.01 0.01c-0.15,0.22 -0.65,0.39 -0.89,0.47 -0.43,0.15 -0.89,0.22 -1.35,0.17 -0.07,-0.01 -0.09,-0.01 -0.11,0l0.02 0.05c0.09,0.06 0.19,0.11 0.28,0.17 0.29,0.15 0.59,0.27 0.9,0.36 1.62,0.45 3.44,0.12 4.65,-1.09 0.95,-0.95 1.29,-2.25 1.29,-3.56 0,-0.05 0.06,-0.08 0.1,-0.11 0.25,-0.19 0.45,-0.41 0.63,-0.66 0.04,-0.06 0.04,-0.11 0.04,-0.13l0 -0.01 -0.03 0z"/>
 </g>
</svg>
