<?xml version="1.0" encoding="UTF-8"?>
<!DOCTYPE svg PUBLIC "-//W3C//DTD SVG 1.1//EN" "http://www.w3.org/Graphics/SVG/1.1/DTD/svg11.dtd">
<!-- Creator: CorelDRAW -->
<svg xmlns="http://www.w3.org/2000/svg" xml:space="preserve" width="28.0182mm" height="28.0179mm" version="1.1" style="shape-rendering:geometricPrecision; text-rendering:geometricPrecision; image-rendering:optimizeQuality; fill-rule:evenodd; clip-rule:evenodd"
viewBox="0 0 36.88 36.88"
 xmlns:xlink="http://www.w3.org/1999/xlink"
 xmlns:xodm="http://www.corel.com/coreldraw/odm/2003">
 <defs>
  <style type="text/css">
   <![CDATA[
    .fil1 {fill:#FEFEFE;fill-rule:nonzero}
    .fil0 {fill:url(#id0)}
   ]]>
  </style>
  <linearGradient id="id0" gradientUnits="userSpaceOnUse" x1="34.05" y1="2.83" x2="2.83" y2="34.05">
   <stop offset="0" style="stop-opacity:1; stop-color:#00B9E0"/>
   <stop offset="1" style="stop-opacity:1; stop-color:#3179BD"/>
  </linearGradient>
 </defs>
 <g id="Capa_x0020_1">
  <metadata id="CorelCorpID_0Corel-Layer"/>
  <path class="fil0" d="M-0 27.24l0 -17.59c0,-5.31 4.34,-9.65 9.65,-9.65l17.59 0c5.31,0 9.65,4.34 9.65,9.65l0 17.59c0,5.31 -4.34,9.65 -9.65,9.65l-17.59 0c-5.31,0 -9.65,-4.34 -9.65,-9.65z"/>
  <path class="fil1" d="M28.63 12.12c-0.64,0.29 -1.34,0.46 -2.03,0.58 0.33,-0.06 0.81,-0.65 1,-0.89 0.3,-0.37 0.54,-0.78 0.67,-1.23l-0 -0.11 -0.11 0.01c-0.77,0.41 -1.56,0.71 -2.41,0.92l-0.17 -0.04 -0.21 -0.22c-0.36,-0.3 -0.74,-0.54 -1.17,-0.72 -0.57,-0.23 -1.18,-0.33 -1.79,-0.29 -0.59,0.04 -1.17,0.21 -1.7,0.48 -0.53,0.28 -1,0.66 -1.37,1.12 -0.39,0.48 -0.67,1.04 -0.82,1.64 -0.14,0.58 -0.13,1.15 -0.04,1.73l-0.08 0.1c-3.31,-0.49 -6.06,-1.68 -8.29,-4.22 -0.1,-0.11 -0.15,-0.11 -0.23,0.01 -0.98,1.46 -0.5,3.81 0.72,4.97 0.16,0.15 0.33,0.31 0.51,0.45 -0.07,0.01 -0.88,-0.07 -1.6,-0.45l-0.15 0.08c-0.01,0.16 0,0.3 0.03,0.48 0.19,1.48 1.21,2.85 2.62,3.39 0.17,0.07 0.35,0.13 0.53,0.16 -0.32,0.07 -0.65,0.12 -1.57,0.05 -0.11,-0.02 -0.16,0.04 -0.11,0.14 0.69,1.88 2.18,2.44 3.29,2.76 0.15,0.03 0.3,0.03 0.45,0.06l-0.03 0.03c-0.37,0.56 -1.65,0.98 -2.25,1.19 -1.09,0.38 -2.27,0.55 -3.42,0.44 -0.18,-0.03 -0.22,-0.03 -0.27,0l0.05 0.12c0.23,0.15 0.47,0.29 0.71,0.42 0.73,0.39 1.49,0.69 2.29,0.91 4.11,1.13 8.73,0.3 11.81,-2.76 2.42,-2.41 3.27,-5.72 3.27,-9.04 0,-0.13 0.15,-0.2 0.25,-0.27 0.63,-0.47 1.14,-1.04 1.61,-1.67 0.11,-0.14 0.11,-0.27 0.11,-0.32l0 -0.02 -0.08 0z"/>
 </g>
</svg>
