<?xml version="1.0" encoding="UTF-8"?>
<!DOCTYPE svg PUBLIC "-//W3C//DTD SVG 1.1//EN" "http://www.w3.org/Graphics/SVG/1.1/DTD/svg11.dtd">
<!-- Creator: CorelDRAW -->
<svg xmlns="http://www.w3.org/2000/svg" xml:space="preserve" width="23.2472mm" height="27.1516mm" version="1.1" style="shape-rendering:geometricPrecision; text-rendering:geometricPrecision; image-rendering:optimizeQuality; fill-rule:evenodd; clip-rule:evenodd"
viewBox="0 0 43.73 51.07"
 xmlns:xlink="http://www.w3.org/1999/xlink"
 xmlns:xodm="http://www.corel.com/coreldraw/odm/2003"
 data-name="Layer 1">
 <defs>
  <style type="text/css">
   <![CDATA[
    .fil0 {fill:black}
   ]]>
  </style>
 </defs>
 <g id="Capa_x0020_1">
  <metadata id="CorelCorpID_0Corel-Layer"/>
  <g id="_1825671889040">
   <path class="fil0" d="M-0 39.7l11.38 11.38 3.62 -3.62 -11.38 -11.38 -3.62 3.62 0 0zm26.25 -26.16c1.19,-2.38 2.38,-3.58 4.77,-3.58 2.63,0 4.77,2.14 4.77,4.77 0,4.77 -4.77,9.54 -9.54,14.3 -4.77,-4.77 -9.54,-9.54 -9.54,-14.3 0,-2.63 2.14,-4.77 4.77,-4.77 2.38,0 3.58,1.19 4.77,3.58l0 0 0 -0zm16.56 -3.71c0.29,-0.17 0.67,-0.07 0.84,0.22 0.17,0.29 0.07,0.67 -0.22,0.84l-2.75 1.59c-0.29,0.17 -0.67,0.07 -0.84,-0.22 -0.17,-0.29 -0.07,-0.67 0.22,-0.84l2.75 -1.59 0 0zm-33.25 10.89c-0.34,0 -0.62,-0.28 -0.62,-0.62 0,-0.34 0.28,-0.62 0.62,-0.62l3.18 -0c0.34,0 0.62,0.28 0.62,0.62 0,0.34 -0.28,0.62 -0.62,0.62l-3.18 0zm33.37 -1.23c0.34,0 0.62,0.28 0.62,0.62 0,0.34 -0.28,0.62 -0.62,0.62l-3.18 0c-0.34,0 -0.62,-0.28 -0.62,-0.62 0,-0.34 0.28,-0.62 0.62,-0.62l3.18 -0zm-17.3 -18.86c0,-0.34 0.28,-0.62 0.62,-0.62 0.34,0 0.62,0.28 0.62,0.62l0 3.18c0,0.34 -0.28,0.62 -0.62,0.62 -0.34,0 -0.62,-0.28 -0.62,-0.62l0 -3.18 0 0zm-9.66 2.92c-0.17,-0.29 -0.07,-0.67 0.22,-0.84 0.29,-0.17 0.67,-0.07 0.84,0.22l1.59 2.75c0.17,0.29 0.07,0.67 -0.22,0.84 -0.29,0.17 -0.67,0.07 -0.84,-0.22l-1.59 -2.75 0 0zm-6.91 7.35c-0.29,-0.17 -0.39,-0.55 -0.22,-0.84 0.17,-0.29 0.55,-0.39 0.84,-0.22l2.75 1.59c0.29,0.17 0.39,0.55 0.22,0.84 -0.17,0.29 -0.55,0.39 -0.84,0.22l-2.75 -1.59 0 0zm26.39 -7.97c0.17,-0.29 0.54,-0.39 0.84,-0.23 0.29,0.17 0.39,0.54 0.23,0.84l-1.59 2.75c-0.17,0.29 -0.54,0.39 -0.84,0.23 -0.29,-0.17 -0.39,-0.54 -0.23,-0.84l1.59 -2.75 0 0zm-1.42 31.69l4.64 -5.01c1.44,-1.56 3.99,0.57 2.74,2.29l-6.48 8.94c-1.28,1.77 -3.11,2.79 -5.3,2.79l-12.54 0c-1.05,0 -1.95,0.41 -2.64,1.2l-0.17 0.19 -8.28 -8.28 3.97 -3.87c1.21,-1.18 2.65,-1.8 4.34,-1.8l3.47 0c1.13,0 2.09,0.26 3.07,0.82l1.06 0.61 8.44 0c1.35,0 2.46,1.11 2.46,2.46 0,0.68 -0.24,1.17 -0.63,1.64l0 0c-0.45,0.5 -1.11,0.82 -1.83,0.82 -2.4,0 -4.8,0 -7.2,0 -0.34,0 -0.62,0.28 -0.62,0.62 0,0.34 0.28,0.62 0.62,0.62l7.2 0c2.17,0 3.88,-1.88 3.68,-4.04l0 0z"/>
  </g>
 </g>
</svg>
