<?xml version="1.0" encoding="UTF-8"?>
<!DOCTYPE svg PUBLIC "-//W3C//DTD SVG 1.1//EN" "http://www.w3.org/Graphics/SVG/1.1/DTD/svg11.dtd">
<!-- Creator: CorelDRAW -->
<svg xmlns="http://www.w3.org/2000/svg" xml:space="preserve" width="27.125mm" height="27.125mm" version="1.1" style="shape-rendering:geometricPrecision; text-rendering:geometricPrecision; image-rendering:optimizeQuality; fill-rule:evenodd; clip-rule:evenodd"
viewBox="0 0 94.93 94.93"
 xmlns:xlink="http://www.w3.org/1999/xlink"
 xmlns:xodm="http://www.corel.com/coreldraw/odm/2003">
 <defs>
  <style type="text/css">
   <![CDATA[
    .fil0 {fill:black;fill-rule:nonzero}
   ]]>
  </style>
 </defs>
 <g id="Capa_x0020_1">
  <metadata id="CorelCorpID_0Corel-Layer"/>
  <g id="_1826516576832">
   <g>
    <g>
     <g>
      <path class="fil0" d="M68.15 63.08l-41.38 0c-1.68,0 -3.04,-1.36 -3.04,-3.04l0 -45.84c0,-1.68 1.36,-3.04 3.04,-3.04l41.38 0c1.68,0 3.04,1.36 3.04,3.04l0 45.84c0,1.68 -1.36,3.04 -3.04,3.04zm-38.34 -6.09l35.29 0 0 -39.76 -35.29 0 0 39.76z"/>
      <path class="fil0" d="M47.46 79.59c-10.67,0 -22.14,-4.31 -33.17,-12.45 -8.22,-6.08 -13.3,-12.1 -13.52,-12.35 -0.95,-1.13 -0.95,-2.78 0,-3.91 0.41,-0.49 10.17,-12.02 24.64,-19.21l2.71 5.45c-9.94,4.93 -17.6,12.25 -20.9,15.72 2.07,2.17 5.85,5.86 10.8,9.5 6.93,5.1 17.66,11.18 29.44,11.18 11.78,0 22.51,-6.08 29.44,-11.18 4.95,-3.64 8.73,-7.32 10.8,-9.5 -3.32,-3.47 -11,-10.8 -20.9,-15.72l2.71 -5.45c14.48,7.19 24.24,18.73 24.64,19.21 0.95,1.13 0.95,2.78 0,3.91 -0.21,0.25 -5.29,6.28 -13.52,12.35 -11.03,8.15 -22.5,12.45 -33.17,12.45z"/>
      <g>
       <rect class="fil0" x="36.31" y="34.08" width="22.31" height="6.09"/>
       <rect class="fil0" x="36.31" y="45.44" width="22.31" height="6.09"/>
       <rect class="fil0" x="36.31" y="22.72" width="22.31" height="6.09"/>
      </g>
     </g>
     <g>
      <path class="fil0" d="M6.09 27.38l-6.09 0 0 -24.34c0,-1.68 1.36,-3.04 3.04,-3.04l24.34 0 0 6.09 -21.3 0 0 21.3z"/>
      <path class="fil0" d="M27.38 94.93l-24.34 0c-1.68,0 -3.04,-1.36 -3.04,-3.04l0 -24.34 6.09 0 0 21.3 21.3 0 0 6.09z"/>
      <path class="fil0" d="M91.68 94.93l-24.34 0 0 -6.09 21.3 0 0 -21.3 6.09 0 0 24.34c0,1.68 -1.36,3.04 -3.04,3.04z"/>
      <path class="fil0" d="M94.93 27.38l-6.09 0 0 -21.3 -21.3 0 0 -6.09 24.34 0c1.68,0 3.04,1.36 3.04,3.04l0 24.34z"/>
     </g>
    </g>
   </g>
  </g>
 </g>
</svg>
