<?xml version="1.0" encoding="UTF-8"?>
<!DOCTYPE svg PUBLIC "-//W3C//DTD SVG 1.1//EN" "http://www.w3.org/Graphics/SVG/1.1/DTD/svg11.dtd">
<!-- Creator: CorelDRAW -->
<svg xmlns="http://www.w3.org/2000/svg" xml:space="preserve" width="26.726mm" height="26.7258mm" version="1.1" style="shape-rendering:geometricPrecision; text-rendering:geometricPrecision; image-rendering:optimizeQuality; fill-rule:evenodd; clip-rule:evenodd"
viewBox="0 0 32.57 32.57"
 xmlns:xlink="http://www.w3.org/1999/xlink"
 xmlns:xodm="http://www.corel.com/coreldraw/odm/2003">
 <defs>
  <style type="text/css">
   <![CDATA[
    .fil1 {fill:#FEFEFE}
    .fil2 {fill:#1CB36C}
    .fil0 {fill:#FEFEFE;fill-rule:nonzero}
   ]]>
  </style>
 </defs>
 <g id="Capa_x0020_1">
  <metadata id="CorelCorpID_0Corel-Layer"/>
  <path class="fil0" d="M9.21 26.96l0.55 0.33c2.03,1.21 4.34,1.84 6.68,1.84 7.21,0 13.08,-5.85 13.08,-13.05 0,-7.19 -5.87,-13.05 -13.08,-13.05 -7.21,0 -13.08,5.85 -13.08,13.05 0,2.38 0.66,4.71 1.91,6.76l0.34 0.55 -1.31 4.86 4.9 -1.31zm-9.21 5.61l2.34 -8.71c-1.32,-2.39 -2.02,-5.06 -2.02,-7.77 0,-8.87 7.23,-16.09 16.12,-16.09 8.89,0 16.13,7.22 16.13,16.09 0,8.87 -7.23,16.09 -16.13,16.09 -2.67,0 -5.31,-0.67 -7.66,-1.95l-8.78 2.35z"/>
  <path class="fil1" d="M22.43 18.32c-0.66,-0.4 -1.52,-0.84 -2.3,-0.52 -0.6,0.24 -0.98,1.18 -1.37,1.66 -0.2,0.24 -0.43,0.28 -0.74,0.16 -2.24,-0.9 -3.97,-2.4 -5.21,-4.46 -0.21,-0.32 -0.17,-0.57 0.08,-0.87 0.37,-0.44 0.84,-0.94 0.94,-1.54 0.1,-0.59 -0.18,-1.29 -0.42,-1.82 -0.31,-0.68 -0.66,-1.64 -1.34,-2.02 -0.62,-0.35 -1.44,-0.15 -2,0.3 -0.96,0.78 -1.42,2 -1.4,3.21 0,0.34 0.04,0.69 0.12,1.02 0.2,0.8 0.56,1.54 0.98,2.25 0.31,0.53 0.65,1.05 1.02,1.55 1.2,1.63 2.7,3.05 4.43,4.11 0.87,0.53 1.8,0.99 2.76,1.31 1.08,0.36 2.04,0.73 3.21,0.51 1.22,-0.23 2.43,-0.99 2.91,-2.17 0.14,-0.35 0.21,-0.74 0.13,-1.11 -0.17,-0.76 -1.2,-1.21 -1.81,-1.58z"/>
  <path class="fil2" d="M15.22 21.36c-1.73,-1.06 -3.23,-2.48 -4.43,-4.11 -0.37,-0.5 -0.71,-1.02 -1.02,-1.55 -0.42,-0.71 -0.78,-1.46 -0.98,-2.25 -0.08,-0.33 -0.12,-0.67 -0.12,-1.02 -0.02,-1.21 0.45,-2.43 1.4,-3.21 0.55,-0.45 1.37,-0.65 2,-0.3 0.68,0.38 1.03,1.35 1.34,2.02 0.25,0.53 0.52,1.22 0.42,1.82 -0.1,0.59 -0.57,1.09 -0.94,1.54 -0.25,0.3 -0.29,0.55 -0.08,0.87 1.24,2.07 2.96,3.57 5.21,4.46 0.31,0.12 0.55,0.08 0.74,-0.16 0.39,-0.48 0.77,-1.42 1.37,-1.66 0.78,-0.32 1.64,0.12 2.3,0.52 0.62,0.37 1.65,0.82 1.81,1.58 0.08,0.37 0.01,0.76 -0.13,1.11 -0.49,1.18 -1.69,1.93 -2.91,2.17 -1.17,0.22 -2.13,-0.15 -3.21,-0.51 -0.97,-0.32 -1.9,-0.78 -2.76,-1.31zm-6 5.6l0.55 0.33c2.03,1.21 4.34,1.84 6.68,1.84 7.21,0 13.08,-5.85 13.08,-13.05 0,-7.19 -5.87,-13.05 -13.08,-13.05 -7.21,0 -13.08,5.85 -13.08,13.05 0,2.38 0.66,4.71 1.91,6.76l0.34 0.55 -1.31 4.86 4.9 -1.31z"/>
 </g>
</svg>
