<?xml version="1.0" encoding="UTF-8"?>
<!DOCTYPE svg PUBLIC "-//W3C//DTD SVG 1.1//EN" "http://www.w3.org/Graphics/SVG/1.1/DTD/svg11.dtd">
<!-- Creator: CorelDRAW -->
<svg xmlns="http://www.w3.org/2000/svg" xml:space="preserve" width="28.0184mm" height="28.0176mm" version="1.1" style="shape-rendering:geometricPrecision; text-rendering:geometricPrecision; image-rendering:optimizeQuality; fill-rule:evenodd; clip-rule:evenodd"
viewBox="0 0 38.35 38.35"
 xmlns:xlink="http://www.w3.org/1999/xlink"
 xmlns:xodm="http://www.corel.com/coreldraw/odm/2003">
 <defs>
  <style type="text/css">
   <![CDATA[
    .fil1 {fill:#FEFEFE;fill-rule:nonzero}
    .fil0 {fill:url(#id0)}
   ]]>
  </style>
  <linearGradient id="id0" gradientUnits="userSpaceOnUse" x1="35.4" y1="2.95" x2="2.95" y2="35.41">
   <stop offset="0" style="stop-opacity:1; stop-color:#EF4E47"/>
   <stop offset="1" style="stop-opacity:1; stop-color:#963133"/>
  </linearGradient>
 </defs>
 <g id="Capa_x0020_1">
  <metadata id="CorelCorpID_0Corel-Layer"/>
  <path class="fil0" d="M28.32 38.35l-18.29 0c-5.52,0 -10.03,-4.51 -10.03,-10.03l0 -18.29c0,-5.52 4.51,-10.03 10.03,-10.03l5.74 0c4.04,-0 8.19,-0 12.03,-0 2.34,0 3.85,0.36 5.56,1.37 1.28,0.75 2.38,1.77 3.22,2.98 1.12,1.62 1.77,3.58 1.77,5.68l0 18.29c0,5.52 -4.51,10.03 -10.03,10.03z"/>
  <path class="fil1" d="M22.52 19.54l-5.28 2.61c-0.21,0.11 -0.91,-0.04 -0.91,-0.27l0 -5.36c0,-0.24 0.71,-0.39 0.92,-0.27l5.05 2.75c0.21,0.12 0.43,0.43 0.22,0.54zm6.93 -3.15c0,-2.54 -2.06,-4.6 -4.61,-4.6l-11.77 0c-2.54,0 -4.6,2.06 -4.6,4.6l0 5.48c0,2.54 2.06,4.61 4.6,4.61l11.77 0c2.54,0 4.61,-2.06 4.61,-4.61l0 -5.48z"/>
 </g>
</svg>
