<?xml version="1.0" encoding="UTF-8"?>
<!DOCTYPE svg PUBLIC "-//W3C//DTD SVG 1.1//EN" "http://www.w3.org/Graphics/SVG/1.1/DTD/svg11.dtd">
<!-- Creator: CorelDRAW -->
<svg xmlns="http://www.w3.org/2000/svg" xml:space="preserve" width="57.067mm" height="57.067mm" version="1.1" style="shape-rendering:geometricPrecision; text-rendering:geometricPrecision; image-rendering:optimizeQuality; fill-rule:evenodd; clip-rule:evenodd"
viewBox="0 0 893.02 893.02"
 xmlns:xlink="http://www.w3.org/1999/xlink"
 xmlns:xodm="http://www.corel.com/coreldraw/odm/2003">
 <defs>
  <style type="text/css">
   <![CDATA[
    .fil0 {fill:#FEFEFE}
    .fil1 {fill:#383838;fill-rule:nonzero}
   ]]>
  </style>
 </defs>
 <g id="Capa_x0020_1">
  <metadata id="CorelCorpID_0Corel-Layer"/>
  <rect class="fil0" width="893.02" height="893.02" rx="290.16" ry="290.16"/>
  <path class="fil1" d="M462.87 787.96l0.04 -165.15c0.01,-20.53 9.82,-39.82 26.4,-51.92l80.45 -58.68 0.34 57 -39.14 28.29c-14.03,10.14 -22.35,26.4 -22.36,43.72l-0.02 57.32 132 -95.38c10.53,-7.61 16.77,-19.81 16.77,-32.81l0 -173.06 29.42 23.18c10.27,8.09 16.27,20.45 16.27,33.53l0 139.72c0,12.99 -6.24,25.19 -16.77,32.81l-223.4 161.44z"/>
  <path class="fil1" d="M413.92 787.96l-0.04 -165.15c-0.01,-20.53 -9.81,-39.82 -26.4,-51.92l-80.45 -58.68 -0.34 57 39.15 28.29c14.03,10.14 22.35,26.4 22.36,43.72l0.02 57.32 -132 -95.38c-10.53,-7.61 -16.77,-19.81 -16.77,-32.81l0 -173.06 -29.42 23.18c-10.27,8.09 -16.27,20.45 -16.27,33.53l0 139.72c0,12.99 6.24,25.19 16.77,32.81l223.4 161.44z"/>
  <path class="fil1" d="M703.04 278.54l-25.39 -20.08c-12.82,-10.14 -20.3,-25.58 -20.3,-41.92l0 -64.99 45.69 0 0 126.99z"/>
  <path class="fil1" d="M731.17 407.41l-294.46 -233.64 -281.31 224.67c-15.7,12.54 -38.6,9.98 -51.15,-5.72l-5.81 -7.27 338.18 -270.07 351.47 278.87 -5.77 7.28c-12.5,15.75 -35.39,18.39 -51.14,5.89z"/>
 </g>
</svg>
